<svg id="Layer_1" data-name="Layer 1" xmlns="http://www.w3.org/2000/svg" viewBox="0 0 500 500"><defs><style>.cls-1{fill:#fecf81;}.cls-2{fill:#fec481;}</style></defs><path class="cls-1" d="M242.66,139.32h15.39a18.81,18.81,0,0,0,2.1.49q45.11,4.75,73,40.47a101.54,101.54,0,0,1,14.59,26.12h18.47c5.48,0,7.28,1.79,7.28,7.2v60.92c6.92-.75,11-5.43,11-12.4q0-41.9.05-83.81c0-1.89-.64-2.61-2.3-3.34a18.56,18.56,0,0,1-10.91-18.13,18.78,18.78,0,0,1,12.86-16.55,26.58,26.58,0,0,0,2.5-1h6.6c4.58,1.46,8.93,3.41,11.63,7.6a68.14,68.14,0,0,1,3.77,7.79v6.6c-.32.83-.67,1.65-1,2.5-1.65,4.94-4.73,8.81-9.49,10.82-2.51,1.05-2.79,2.46-2.78,4.73q.07,41.5,0,83c0,10.66-6.39,19.34-16.28,22.28-1.8.54-3.69.8-5.7,1.22v60.46c0,5.66-1.72,7.38-7.38,7.38H351.53v60.27c0,4.9-1.94,6.81-6.86,6.81H156.09c-5,0-6.91-1.9-6.91-7v-60h-15.1c-4.92,0-6.89-1.93-6.89-6.77V213.11c0-4.7,2-6.69,6.68-6.71h19c.33-.76.63-1.42.92-2.09q21.42-49.71,74-62.49C232.69,140.65,237.71,140.13,242.66,139.32ZM138.39,217.4V342.63h224V217.4H274.84a5.47,5.47,0,0,1-.1-10.92c.82-.08,1.65,0,2.47,0h58.3c-9.29-24.72-38.73-54.81-82.33-56-45.83-1.29-77.69,29.32-88,56h58.28a21,21,0,0,1,2.75.06,5.47,5.47,0,0,1,0,10.87,25,25,0,0,1-3,.06H138.39Zm21.9,192.25H340.4V353.91H160.29ZM390,150.33a7.68,7.68,0,1,0,7.7,7.67A7.68,7.68,0,0,0,390,150.33Z"/><path class="cls-2" d="M250.48,228.39h93.71c5.61,0,7.34,1.74,7.34,7.42V324.3c0,5.78-1.71,7.46-7.59,7.46H156.79c-6,0-7.61-1.65-7.61-7.71V236.12c0-6.16,1.6-7.73,7.86-7.73Zm-37.64,11.2H160.39v81h52.45Zm63.79,0H224.18v81h52.45Zm63.71,81.06v-81H287.89v81Z"/><path class="cls-2" d="M250.35,217.38a5.48,5.48,0,1,1,5.48-5.48V212A5.55,5.55,0,0,1,250.35,217.38Z"/><path class="cls-2" d="M250.05,387.31H188.78a5.47,5.47,0,1,1-.08-10.94c.82-.07,1.65,0,2.47,0H309.59c5,0,7.63,1.88,7.65,5.46s-2.62,5.53-7.57,5.54Z"/><path class="cls-1" d="M187.73,262.26c.65.09,1.31.15,2,.27a17.32,17.32,0,0,1,13.17,10.24A17.71,17.71,0,0,1,195,295.89a16.88,16.88,0,0,1-12,1.66,17.49,17.49,0,0,1-13.29-11.9,15.49,15.49,0,0,1-.83-4.09.7.7,0,0,0-.06-.34V279l.06-.27a17.25,17.25,0,0,1,2.66-8.08,17.63,17.63,0,0,1,12.06-8.11c.64-.12,1.3-.18,2-.27Zm-5.28,1.5a16.24,16.24,0,0,0-4.45,1.85c.52.89,1,1.75,1.5,2.6a.57.57,0,0,1-.11.78c-1.3,1.29-2.6,2.58-3.89,3.89a.57.57,0,0,1-.78.1c-.77-.45-1.55-.89-2.33-1.33l-.29-.15a16,16,0,0,0-1.83,4.44l2.79.76c.5.14.58.24.58.75v5.27c0,.57-.07.66-.64.81l-2.74.74a16.13,16.13,0,0,0,1.85,4.46l2.18-1.24c.91-.54.85-.5,1.57.21q1.74,1.76,3.5,3.5a.59.59,0,0,1,.12.83h0c-.07.11-.13.22-.19.33L178,294.62a16.64,16.64,0,0,0,4.45,1.83l.79-2.9a.52.52,0,0,1,.55-.47h5.64a.5.5,0,0,1,.53.41l.21.77.61,2.2a16.24,16.24,0,0,0,4.45-1.85c-.5-.87-1-1.71-1.45-2.54-.25-.44-.23-.56.12-.92l3.73-3.72c.41-.41.49-.42,1-.14l2.5,1.42a16,16,0,0,0,1.83-4.44l-2.92-.8a.51.51,0,0,1-.45-.54v-5.64a.5.5,0,0,1,.41-.53l.77-.21,2.2-.61a16.31,16.31,0,0,0-1.85-4.44L198.5,273a.53.53,0,0,1-.72-.06l-4-4a.52.52,0,0,1-.08-.67l.26-.45,1.27-2.22a16.13,16.13,0,0,0-4.46-1.85c-.25.94-.5,1.83-.74,2.73-.17.6-.22.65-.83.65H184c-.56,0-.66-.07-.8-.61C183,265.63,182.71,264.72,182.45,263.76Zm18.14,6.92a16.91,16.91,0,0,0-4.54-4.54l-1.32,2.31,3.55,3.55Zm-30.54,6.22a16.86,16.86,0,0,0,0,6.41l2.6-.7v-5Zm4.89-4.93,3.55-3.54-1.31-2.3a16.87,16.87,0,0,0-4.54,4.53Zm28.23,11.35a16.51,16.51,0,0,0,0-6.42l-2.6.71v5Zm-7.11,10.76a17.31,17.31,0,0,0,4.53-4.54l-2.35-1.34c-1.14,1.14-2.28,2.27-3.4,3.41a.3.3,0,0,0,0,.29c.38.72.79,1.43,1.22,2.18Zm-17.54-2.34-3.43-3.42a.2.2,0,0,0-.21,0l-2.24,1.28a16.83,16.83,0,0,0,4.54,4.52Zm10.59-25.58.71-2.61a16.91,16.91,0,0,0-6.42,0l.71,2.61Zm-5,27.9-.7,2.61a16.86,16.86,0,0,0,6.41,0l-.71-2.6Z"/><path class="cls-1" d="M175.73,280.11A10.88,10.88,0,1,1,186.6,291h-.06A10.89,10.89,0,0,1,175.73,280.11Zm1,0a9.9,9.9,0,1,0,9.92-9.9,9.9,9.9,0,0,0-9.92,9.9v0Z"/><path class="cls-1" d="M188.51,283.73a6.85,6.85,0,0,0,.77,2c.33.59.15.92-.52.92h-4.29c-.68,0-.85-.32-.52-.94.2-.38.38-.79.55-1.2.09-.23.14-.48.22-.74-.34,0-.65-.07-.95-.14a3.39,3.39,0,0,1-2.61-4A3.43,3.43,0,0,1,182,278c1.36-1.44,2.8-2.82,4.2-4.22a.5.5,0,0,1,.7-.07l.07.07c1.42,1.41,2.86,2.8,4.23,4.25a3.19,3.19,0,0,1,.64,3.51,3.29,3.29,0,0,1-2.84,2.15Zm-.4,1.9c-.05-.12-.1-.24-.14-.37-.18-.68-.39-1.35-.53-2-.08-.42.21-.62.64-.57a3.51,3.51,0,0,0,1.21,0,2.39,2.39,0,0,0,1.16-4c-1.23-1.29-2.5-2.52-3.76-3.78h-.06c-1.34,1.32-2.67,2.61-4,3.93a2.07,2.07,0,0,0-.54,1.78,2.43,2.43,0,0,0,2.64,2.2,2.25,2.25,0,0,0,.36-.06c.5-.1.74.11.69.61a3.87,3.87,0,0,1-.12.68c-.16.55-.34,1.1-.51,1.67Z"/><path class="cls-1" d="M251.51,262.26c.65.09,1.31.15,2,.27a17.32,17.32,0,0,1,13.17,10.24,17.71,17.71,0,0,1-7.93,23.12,16.88,16.88,0,0,1-12,1.66,17.49,17.49,0,0,1-13.29-11.9,15.47,15.47,0,0,1-.82-4.09,2.05,2.05,0,0,0-.07-.34V279l.06-.27a17.12,17.12,0,0,1,2.67-8.08,17.61,17.61,0,0,1,12-8.11c.65-.12,1.31-.18,2-.27Zm-5.28,1.5a16.31,16.31,0,0,0-4.44,1.85l1.49,2.6a.57.57,0,0,1-.1.78l-3.9,3.89a.57.57,0,0,1-.78.1l-2.32-1.33-.29-.15a16.29,16.29,0,0,0-1.84,4.44l2.79.76c.5.14.59.24.59.75v5.27c0,.57-.08.66-.64.81l-2.74.74a16.13,16.13,0,0,0,1.85,4.46l2.17-1.24c.92-.54.86-.5,1.57.21,1.17,1.17,2.33,2.34,3.5,3.5a.59.59,0,0,1,.14.81l0,0c-.07.11-.13.22-.19.33-.42.75-.85,1.49-1.29,2.26a16.78,16.78,0,0,0,4.45,1.83c.27-1,.54-1.94.79-2.9a.53.53,0,0,1,.55-.47h5.65a.5.5,0,0,1,.53.41l.21.77c.2.72.39,1.44.6,2.2a16.24,16.24,0,0,0,4.45-1.85c-.49-.87-1-1.71-1.45-2.54-.24-.44-.22-.56.13-.92l3.72-3.72c.42-.41.49-.42,1-.14l2.5,1.42a16.29,16.29,0,0,0,1.84-4.44l-2.93-.8a.52.52,0,0,1-.45-.54v-5.64a.5.5,0,0,1,.41-.53l.77-.21,2.2-.61a16.94,16.94,0,0,0-1.84-4.44c-.9.52-1.76,1-2.61,1.5a.54.54,0,0,1-.73-.06l-4-4a.5.5,0,0,1-.08-.67l.25-.45L259,265.6a15.94,15.94,0,0,0-4.45-1.85l-.75,2.73c-.16.6-.22.65-.83.65h-5.19c-.57,0-.66-.07-.81-.61Zm18.14,6.92a16.87,16.87,0,0,0-4.53-4.54l-1.32,2.31,3.54,3.55Zm-30.54,6.22a16.46,16.46,0,0,0,0,6.41l2.59-.7v-5Zm4.89-4.93,3.56-3.54-1.32-2.3a17.12,17.12,0,0,0-4.53,4.53ZM267,283.32a16.51,16.51,0,0,0,0-6.42l-2.6.71v5Zm-7.11,10.76a17.31,17.31,0,0,0,4.53-4.54L262,288.2l-3.4,3.41a.3.3,0,0,0,0,.29c.4.72.81,1.43,1.24,2.18Zm-17.54-2.34c-1.15-1.15-2.28-2.29-3.43-3.42a.2.2,0,0,0-.21,0l-2.23,1.28a17.09,17.09,0,0,0,4.53,4.52Zm10.59-25.58.71-2.61a16.86,16.86,0,0,0-6.41,0l.71,2.61Zm-5,27.9-.71,2.61a16.86,16.86,0,0,0,6.41,0l-.71-2.6Z"/><path class="cls-1" d="M239.52,280.11A10.88,10.88,0,1,1,250.39,291h-.06A10.89,10.89,0,0,1,239.52,280.11Zm1,0a9.91,9.91,0,1,0,9.92-9.9,9.91,9.91,0,0,0-9.92,9.9v0Z"/><path class="cls-1" d="M252.3,283.73a6.56,6.56,0,0,0,.76,2c.33.59.15.92-.52.92h-4.28c-.69,0-.86-.32-.53-.94a10.81,10.81,0,0,0,.55-1.2,6.29,6.29,0,0,0,.22-.74c-.33,0-.65-.07-.95-.14a3.41,3.41,0,0,1-2.58-4.06,3.46,3.46,0,0,1,.83-1.57c1.36-1.44,2.8-2.82,4.21-4.22a.48.48,0,0,1,.67-.09l.09.09c1.42,1.41,2.86,2.8,4.23,4.25a3.17,3.17,0,0,1,.64,3.51,3.26,3.26,0,0,1-2.84,2.15Zm-.4,1.9a2.35,2.35,0,0,1-.14-.37c-.19-.68-.39-1.35-.53-2-.08-.42.21-.62.64-.57a3.45,3.45,0,0,0,1.2,0,2.4,2.4,0,0,0,1.17-4c-1.23-1.29-2.51-2.52-3.77-3.78h-.06c-1.33,1.32-2.67,2.61-4,3.93a2.15,2.15,0,0,0-.54,1.78,2.45,2.45,0,0,0,2.66,2.2,1.86,1.86,0,0,0,.34-.06c.49-.1.73.11.68.61a3.13,3.13,0,0,1-.12.68c-.16.55-.33,1.1-.51,1.67Z"/><path class="cls-1" d="M318.35,262.26c.65.09,1.31.15,2,.27a17.32,17.32,0,0,1,13.17,10.24,17.71,17.71,0,0,1-7.93,23.12,16.88,16.88,0,0,1-12,1.66,17.49,17.49,0,0,1-13.29-11.9,15.47,15.47,0,0,1-.82-4.09,2.29,2.29,0,0,0-.07-.34V279l.06-.27a17.12,17.12,0,0,1,2.67-8.08,17.62,17.62,0,0,1,12.05-8.11c.65-.12,1.31-.18,2-.27Zm-5.28,1.5a16.31,16.31,0,0,0-4.44,1.85l1.49,2.6a.57.57,0,0,1-.1.78l-3.9,3.89a.57.57,0,0,1-.78.1L303,271.65l-.29-.15a16.29,16.29,0,0,0-1.84,4.44l2.79.76c.5.14.58.24.59.75v5.27c0,.57-.08.66-.64.81l-2.74.74a16.13,16.13,0,0,0,1.85,4.46l2.17-1.24c.92-.54.86-.5,1.57.21l3.5,3.5a.59.59,0,0,1,.14.81l0,0c-.07.11-.13.22-.19.33l-1.29,2.26a16.78,16.78,0,0,0,4.45,1.83c.27-1,.54-1.94.79-2.9a.53.53,0,0,1,.55-.47H320a.5.5,0,0,1,.53.41l.21.77c.19.72.39,1.44.6,2.2a16.24,16.24,0,0,0,4.45-1.85c-.49-.87-1-1.71-1.45-2.54-.24-.44-.23-.56.13-.92l3.72-3.72c.42-.41.49-.42,1-.14l2.5,1.42a16.29,16.29,0,0,0,1.84-4.44l-2.93-.8a.52.52,0,0,1-.45-.54v-5.64a.5.5,0,0,1,.41-.53l.77-.21,2.2-.61a16.94,16.94,0,0,0-1.84-4.44c-.9.52-1.76,1-2.61,1.5a.54.54,0,0,1-.73-.06l-4-4a.52.52,0,0,1-.09-.67l.26-.45,1.27-2.22a15.94,15.94,0,0,0-4.45-1.85l-.75,2.73c-.16.6-.22.65-.83.65h-5.19c-.57,0-.66-.07-.81-.61C313.58,265.63,313.33,264.72,313.07,263.76Zm18.14,6.92a16.87,16.87,0,0,0-4.53-4.54l-1.32,2.31L328.9,272Zm-30.54,6.22a16.46,16.46,0,0,0,0,6.41l2.59-.7v-5Zm4.89-4.93,3.56-3.54-1.32-2.3a16.83,16.83,0,0,0-4.53,4.53Zm28.23,11.35a16.51,16.51,0,0,0,0-6.42l-2.6.71v5Zm-7.11,10.76a17.31,17.31,0,0,0,4.53-4.54l-2.35-1.34-3.4,3.41a.3.3,0,0,0,0,.29c.38.72.79,1.43,1.22,2.18Zm-17.54-2.34-3.43-3.42a.2.2,0,0,0-.21,0l-2.23,1.28a17.09,17.09,0,0,0,4.53,4.52Zm10.59-25.58.71-2.61a16.86,16.86,0,0,0-6.41,0l.71,2.61Zm-5,27.9-.71,2.61a16.86,16.86,0,0,0,6.41,0l-.71-2.6Z"/><path class="cls-1" d="M306.36,280.11A10.88,10.88,0,1,1,317.23,291h-.06A10.89,10.89,0,0,1,306.36,280.11Zm1,0a9.9,9.9,0,1,0,9.92-9.9,9.9,9.9,0,0,0-9.92,9.9v0Z"/><path class="cls-1" d="M319.14,283.73a6.56,6.56,0,0,0,.76,2c.33.59.15.92-.52.92H315.1c-.69,0-.86-.32-.53-.94a10.81,10.81,0,0,0,.55-1.2,6.29,6.29,0,0,0,.22-.74c-.33,0-.65-.07-.95-.14a3.39,3.39,0,0,1-1.75-5.61c1.36-1.44,2.8-2.82,4.21-4.22a.48.48,0,0,1,.67-.09l.09.09c1.42,1.41,2.86,2.8,4.23,4.25a3.17,3.17,0,0,1,.64,3.51,3.26,3.26,0,0,1-2.84,2.15Zm-.4,1.9c-.06-.15-.12-.26-.15-.37-.18-.68-.39-1.35-.52-2-.09-.42.21-.62.64-.57a3.45,3.45,0,0,0,1.2,0,2.4,2.4,0,0,0,1.17-4c-1.23-1.29-2.51-2.52-3.77-3.78h-.06c-1.33,1.32-2.67,2.61-4,3.93a2.15,2.15,0,0,0-.54,1.78,2.45,2.45,0,0,0,2.66,2.2,1.86,1.86,0,0,0,.34-.06c.49-.1.73.11.68.61a3.87,3.87,0,0,1-.12.68c-.16.55-.33,1.1-.51,1.67Z"/><path class="cls-1" d="M500,417.37a105.68,105.68,0,0,0-19.23-18.09c-3.39-2.51-7-4.76-10.51-7.06a1.56,1.56,0,0,1-.9-1.89A10.35,10.35,0,0,0,451.18,382a1.92,1.92,0,0,1-2.47.73,70.29,70.29,0,0,0-17.86-3c-1.46,0-2.05-.39-2.3-2-2.46-14.93-1-29.35,5.23-43.23a1.86,1.86,0,0,1,2.16-1.33,10.31,10.31,0,0,0,10.54-9.31,9.17,9.17,0,0,1,.13-1,47.88,47.88,0,0,1,5.87,1.91c2.75,1.29,4.89.84,6.86-1.4a28.15,28.15,0,0,1,3-2.56c.85,2.27,1.68,4.35,2.4,6.46a3.09,3.09,0,0,0,2.2,2.14c7.41,2.37,14.81,4.78,22.22,7.16,2.4.77,3.77-.42,3.21-2.85a46.31,46.31,0,0,0-8.11-17.48c-.93-1.25-2.11-1.48-3.15-.7s-1.13,2-.21,3.24a44,44,0,0,1,6.16,11.8c.08.22.12.44.22.82-.43-.09-.78-.15-1.11-.25-5.49-1.77-11-3.52-16.45-5.36a2.77,2.77,0,0,1-1.48-1.4c-1-2.47-1.88-5-2.83-7.5-.77-2-2.19-2.39-3.82-1-1.84,1.54-3.62,3.14-5.48,4.65a1.91,1.91,0,0,1-1.44.42c-7.33-2.32-14.64-4.7-21.95-7.07-.07,0-.11-.13-.25-.3a39.44,39.44,0,0,1,9-5.11c11.85-4.81,23-3.7,33.35,4,1.29,1,2.57.91,3.35-.13s.55-2.2-.8-3.25a35.77,35.77,0,0,0-23.16-7.73H453l-.66-4.48c2.17.46,4.15.77,6.07,1.33a4.18,4.18,0,0,0,4.24-1c5.7-4.75,11.47-9.41,17.22-14.1a9.06,9.06,0,0,0,.75-.64,2.07,2.07,0,0,0-.65-3.62c-16-6-36-3.76-47.47,13a68.57,68.57,0,0,0-4.06,7.85c-.19.36-.32.76-.57,1.39-.52-1.23-.9-2.25-1.36-3.24-5.93-12.9-16-20.09-30.07-21.75a44.74,44.74,0,0,0-19.44,2.3,12.61,12.61,0,0,0-1.44.56,2,2,0,0,0-.56,3.48c2.44,2.12,5,4.15,7.52,6.15a2,2,0,0,0,2.82-.25l.07-.09a2.08,2.08,0,0,0-.29-2.93l-.09-.07c-1.33-1.16-2.72-2.26-4.15-3.44,22.05-6.68,42.13,6.71,44.37,27.91a46.14,46.14,0,0,0-18.29-7.8c.24-1.88.48-3.67.72-5.47a7.94,7.94,0,0,1,.13-.83c.37-3.13-.56-4-3.65-3.26-2.38.54-4.75,1.11-7.15,1.55a2.81,2.81,0,0,1-1.85-.46c-1.16-.79-2.19-1.77-3.3-2.64a2.15,2.15,0,0,0-3.05,0l-.09.09a2.09,2.09,0,0,0,.21,2.95l.2.15A50.41,50.41,0,0,0,394,297.9a4.55,4.55,0,0,0,2.88.41c2.12-.32,4.19-.89,6.5-1.41l-.59,4.21a93.82,93.82,0,0,0-9.88,1.21c-12.39,2.81-20.78,10.6-26.1,21.86a64.41,64.41,0,0,0-3.27,9.26,3.81,3.81,0,0,0,.44,2.84c.65,1,1.83.59,2.85.26q11-3.57,21.95-7.08a3.24,3.24,0,0,0,2.28-2.23c.7-2.08,1.52-4.12,2.37-6.41,1.56,1.33,3.05,2.52,4.43,3.82a3.14,3.14,0,0,0,3.59.73c2.46-.89,5-1.63,7.62-2.49A10.82,10.82,0,0,0,416.78,333c-5.79,15.78-8.3,31.95-6.48,48.81l-3.91,1.14a89.62,89.62,0,0,0-17.23,7.19c-1.49.81-2,1.9-1.38,3.07s1.84,1.48,3.39.65a82.86,82.86,0,0,1,25.63-9,67.79,67.79,0,0,1,31,2.1,1.47,1.47,0,0,1,.87,1.08c0,4.81,2.05,8.39,6.51,10.24s8.45.69,11.81-2.74l.28-.14A118.15,118.15,0,0,1,493,415.84H362.76c.38-.43.69-.81,1-1.16A119.58,119.58,0,0,1,382.57,399c.31-.21.64-.41.93-.64a2.1,2.1,0,0,0,.66-2.9l-.07-.1a2.06,2.06,0,0,0-2.87-.57l-.13.09c-2.43,1.67-4.87,3.35-7.22,5.14a113.32,113.32,0,0,0-17.15,16.05c-1.48,1.71-1.37,2.66.4,4.07H500ZM423.36,313.78c-7.52,2.44-14.86,4.83-22.22,7.17a1.85,1.85,0,0,1-1.45-.37c-1.86-1.51-3.65-3.1-5.48-4.64s-3.1-1.06-3.9,1c-.95,2.49-1.81,5-2.82,7.49a2.5,2.5,0,0,1-1.39,1.32c-5.5,1.85-11,3.62-16.56,5.4a10,10,0,0,1-1.09.23C377,304.78,403.84,298.66,423.36,313.78Zm51.31-32.12c-.05.18-.05.3-.11.35q-7.19,5.89-14.4,11.74a1.69,1.69,0,0,1-1.26.23c-2.66-.54-5.31-1.16-8-1.73-2.37-.5-3.39.44-3.1,2.84s.58,4.52.88,6.85a46.06,46.06,0,0,0-18.27,7.8c1.75-18.19,18.75-34.82,44.26-28.08Zm-60.21,99.12a12,12,0,0,0-.14-1.3,92.52,92.52,0,0,1,.29-20.1A106.49,106.49,0,0,1,421,333.93a1.42,1.42,0,0,1,.78-.85,11.67,11.67,0,0,0,6.07-3.8l2.65,2.42c-7.18,15.27-8.83,31.3-5.87,47.92Zm44.74,14a6.19,6.19,0,1,1,6.12-6.26h0a6.21,6.21,0,0,1-6.12,6.29Zm-29.56-72.13c.6-1.28,1.14-2.6,1.86-3.81a1.51,1.51,0,0,1,1.37-.42c2.83.84,5.64,1.74,8.42,2.72a1.79,1.79,0,0,1,.95,1.24,6.09,6.09,0,0,1-5.53,6.59l-.42,0a6.73,6.73,0,0,1-6.65-6.3Zm-4-.33a6.16,6.16,0,1,1-12.29.87c0-.22,0-.45,0-.67a1.41,1.41,0,0,1,1.13-1.49c2.34-.69,4.64-1.48,7-2.22s3.1-.45,3.91,2.07a9.24,9.24,0,0,1,.3,1.48Z"/><path class="cls-1" d="M0,417.37a105.68,105.68,0,0,1,19.23-18.09c3.39-2.51,7-4.76,10.51-7.06a1.56,1.56,0,0,0,.9-1.89A10.35,10.35,0,0,1,48.82,382a1.92,1.92,0,0,0,2.47.73,70.29,70.29,0,0,1,17.86-3c1.46,0,2-.39,2.3-2,2.46-14.93,1-29.35-5.23-43.23a1.86,1.86,0,0,0-2.16-1.33,10.31,10.31,0,0,1-10.54-9.31,9.17,9.17,0,0,0-.13-1,47.88,47.88,0,0,0-5.87,1.91c-2.75,1.29-4.89.84-6.86-1.4a28.15,28.15,0,0,0-3-2.56c-.85,2.27-1.68,4.35-2.4,6.46a3.09,3.09,0,0,1-2.2,2.14c-7.41,2.37-14.81,4.78-22.22,7.16-2.4.77-3.77-.42-3.21-2.85a46.31,46.31,0,0,1,8.11-17.48c.93-1.25,2.11-1.48,3.15-.7s1.13,2,.21,3.24A43.69,43.69,0,0,0,13,330.61c-.08.22-.12.44-.22.82.43-.09.78-.15,1.11-.25,5.49-1.77,11-3.52,16.45-5.36a2.77,2.77,0,0,0,1.48-1.4c1-2.47,1.88-5,2.83-7.5.77-2,2.19-2.39,3.82-1,1.84,1.54,3.62,3.14,5.48,4.65a1.91,1.91,0,0,0,1.44.42c7.33-2.32,14.64-4.7,22-7.07.07,0,.11-.13.25-.3a39.44,39.44,0,0,0-9-5.11c-11.85-4.81-23-3.7-33.35,4-1.29,1-2.57.91-3.35-.13s-.55-2.2.8-3.25A35.77,35.77,0,0,1,45.9,301.4H47l.66-4.48c-2.17.46-4.15.77-6.07,1.33a4.18,4.18,0,0,1-4.24-1c-5.7-4.75-11.47-9.41-17.22-14.1a9.06,9.06,0,0,1-.75-.64,2.07,2.07,0,0,1,.65-3.62c16-6,36-3.76,47.47,13a68.57,68.57,0,0,1,4.06,7.85c.19.36.32.76.57,1.39.52-1.23.9-2.25,1.36-3.24,5.93-12.9,16-20.09,30.07-21.75A44.72,44.72,0,0,1,123,278.41a12.61,12.61,0,0,1,1.44.56,2,2,0,0,1,.56,3.48c-2.44,2.12-5,4.15-7.52,6.15a2,2,0,0,1-2.82-.25l-.07-.09a2.08,2.08,0,0,1,.29-2.93l.09-.07c1.33-1.16,2.72-2.26,4.15-3.44-22-6.68-42.13,6.71-44.37,27.91A46.12,46.12,0,0,1,93,301.93c-.24-1.88-.48-3.67-.72-5.47a7.94,7.94,0,0,0-.13-.83c-.37-3.13.56-4,3.65-3.26,2.38.54,4.75,1.11,7.15,1.55a2.81,2.81,0,0,0,1.85-.46c1.16-.79,2.19-1.77,3.3-2.64a2.15,2.15,0,0,1,3.05,0l.09.09a2.09,2.09,0,0,1-.21,2.95l-.2.15A49.9,49.9,0,0,1,106,297.9a4.55,4.55,0,0,1-2.88.41c-2.12-.32-4.19-.89-6.5-1.41l.59,4.21a93.82,93.82,0,0,1,9.88,1.21c12.39,2.81,20.78,10.6,26.1,21.86a64.41,64.41,0,0,1,3.27,9.26,3.81,3.81,0,0,1-.44,2.84c-.65,1-1.83.59-2.85.26q-11-3.57-21.95-7.08a3.24,3.24,0,0,1-2.28-2.23c-.7-2.08-1.52-4.12-2.37-6.41-1.56,1.33-3,2.52-4.43,3.82a3.14,3.14,0,0,1-3.59.73c-2.46-.89-5-1.63-7.62-2.49A10.82,10.82,0,0,1,83.22,333c5.79,15.78,8.3,31.95,6.48,48.81l3.91,1.14a89.62,89.62,0,0,1,17.23,7.19c1.49.81,2,1.9,1.38,3.07s-1.84,1.48-3.39.65a82.86,82.86,0,0,0-25.63-9,67.79,67.79,0,0,0-31,2.1,1.47,1.47,0,0,0-.87,1.08c0,4.81-2,8.39-6.51,10.24s-8.45.69-11.81-2.74a2.44,2.44,0,0,0-.28-.14A118.15,118.15,0,0,0,7,415.84H137.24c-.38-.43-.69-.81-1-1.16A119.58,119.58,0,0,0,117.43,399c-.31-.21-.64-.41-.93-.64a2.1,2.1,0,0,1-.66-2.9l.07-.1a2.06,2.06,0,0,1,2.87-.57l.13.09c2.43,1.67,4.87,3.35,7.22,5.14a113.32,113.32,0,0,1,17.15,16.05c1.48,1.71,1.37,2.66-.4,4.07H0ZM76.64,313.78c7.52,2.44,14.86,4.83,22.22,7.17a1.85,1.85,0,0,0,1.45-.37c1.86-1.51,3.65-3.1,5.48-4.64s3.1-1.06,3.9,1c1,2.49,1.81,5,2.82,7.49a2.5,2.5,0,0,0,1.39,1.32c5.5,1.85,11,3.62,16.56,5.4a10,10,0,0,0,1.09.23C123,304.78,96.16,298.66,76.64,313.78ZM25.33,281.66c.05.18.05.3.11.35q7.18,5.89,14.4,11.74a1.69,1.69,0,0,0,1.26.23c2.66-.54,5.31-1.16,8-1.73,2.37-.5,3.39.44,3.1,2.84s-.58,4.52-.88,6.85a46.06,46.06,0,0,1,18.27,7.8C67.84,291.55,50.84,274.92,25.33,281.66Zm60.21,99.12a12,12,0,0,1,.14-1.3,92.52,92.52,0,0,0-.29-20.1,105.92,105.92,0,0,0-6.34-25.45,1.42,1.42,0,0,0-.78-.85,11.67,11.67,0,0,1-6.07-3.8l-2.65,2.42c7.18,15.27,8.83,31.3,5.87,47.92Zm-44.74,14a6.19,6.19,0,1,0-6.12-6.26h0a6.21,6.21,0,0,0,6.12,6.29Zm29.56-72.13c-.6-1.28-1.14-2.6-1.86-3.81a1.51,1.51,0,0,0-1.37-.42c-2.83.84-5.64,1.74-8.42,2.72a1.79,1.79,0,0,0-1,1.24A6.09,6.09,0,0,0,63.24,329l.47,0a6.73,6.73,0,0,0,6.65-6.3Zm4-.33a6.16,6.16,0,0,0,12.29.87c0-.22,0-.45,0-.67A1.41,1.41,0,0,0,85.53,321c-2.34-.69-4.64-1.48-7-2.22s-3.1-.45-3.91,2.07a9.24,9.24,0,0,0-.3,1.48Z"/></svg>