<svg id="Layer_1" data-name="Layer 1" xmlns="http://www.w3.org/2000/svg" viewBox="0 0 500 500"><defs><style>.cls-1{fill:#fecf81;}.cls-2{fill:#fec481;}</style></defs><path class="cls-1" d="M377.65,318.3c-.75,5.24-1.63,10.48-4.42,15.1-6.68,11.11-16.59,16.93-29.46,16.62s-22.48-6.71-28.47-18.19c-1.9-3.66-3.46-7.5-5.09-11.29-1.16-2.7-.4-4.93,1.87-5.9s4.29-.06,5.57,2.7c1.71,3.66,3.22,7.42,5,11a24.57,24.57,0,0,0,45.74-17.15q-12.89-48.83-26-97.6a150.49,150.49,0,0,0-4.2-14.76c-11-29.13-48.8-36.57-70.08-13.84a6.48,6.48,0,0,0-1.28,3.76c-.12,1.78.37,3.59.3,5.37A14.39,14.39,0,0,1,255.08,208c-5.94.92-12,1.35-18,1.84-2.67.22-4.33-1.21-4.59-3.5s1.13-4.2,3.91-4.51c4.81-.57,9.66-1,14.49-1.42,6.82-.66,8.88-3.37,7.74-10.48l-62.92,5.93c-.75,6.05,2.41,9.44,8.39,8.93,5-.43,10-1,15-1.39,3-.24,4.81,1.14,5,3.61a3.73,3.73,0,0,1-3.1,4.27l-.4,0c-6.52.67-13,1.5-19.6,1.56-6.8.05-13.16-5.85-13.3-12.81-.13-5.56-3-8-7.23-10.36-26.93-14.63-60.41,3.91-62.28,34.48-.72,11.91-1.69,23.81-2.58,35.72-.21,2.95-1.82,4.55-4.34,4.44s-3.93-1.78-3.73-4.64c1-13.43,1.51-26.91,3.15-40.25,2-15.73,10.62-27.59,24.11-35.84,1.74-1.05,2.38-2.1,2-4a40.34,40.34,0,0,1-.52-5.37,11.91,11.91,0,0,1,10.28-12.49q8.3-1,16.64-1.56a11.75,11.75,0,0,1,12.34,10.1c.43,2.84-.2,6.29,1.25,8.39s4.9,2.63,7.43,3.95a22.21,22.21,0,0,1,4.56,2.85c2.26,2.1,4.7,2.32,7.63,2,20.4-2,40.81-3.88,61.21-5.91a8.68,8.68,0,0,0,4.07-2c3.53-2.75,6.86-5.77,10.42-8.46,1.25-.95,1.81-1.72,1.59-3.28a63,63,0,0,1-.59-6.72,11.78,11.78,0,0,1,10.42-12.33c5.44-.65,10.91-1.17,16.37-1.53,6.29-.41,12.23,4.2,12.39,10.55.15,5.76,2.37,8.39,7.69,10.73,15.45,6.91,24.12,19.52,28.31,35.83,7.47,29,15.36,58,23.07,86.94,1.69,6.29,3.49,12.58,5.25,18.87Zm-209.4-142c-.09-1-.19-2.62-.41-4.2-.38-2.68-1.9-4-4.57-3.76-5,.4-10,.88-15,1.41a3.8,3.8,0,0,0-3.68,3.89c0,.1,0,.21,0,.31,0,1.58.27,3.14.4,4.56Zm136.82-12.77c-.14-1.58-.17-3.15-.47-4.74a3.81,3.81,0,0,0-4.12-3.45l-.26,0c-5.09.42-10.19.75-15.23,1.55a5,5,0,0,0-3.35,3.15c-.44,1.91.22,4.08.41,6,4-.79,7.63-1.79,11.34-2.19S301,163.66,305.07,163.58Z"/><path class="cls-1" d="M296.12,289.27c-10.55,5.94-21.3,6.7-32.35,1.71a3.6,3.6,0,0,1-1-.48c-3.77-3.43-8.16-3.15-12.83-2.59-11,1.25-22,2.1-33,3.22a6.06,6.06,0,0,0-3.3,1.36q-15.27,14.52-35.3,8.24c-.33-.1-.66-.17-1.2-.32L171,326.94c-1.44,6.11-2.75,12.27-4.34,18.34a32.69,32.69,0,0,1-35.39,24.39,32.29,32.29,0,0,1-28.95-31.38c-.13-8.32,1-16.67,1.52-25,.8-11.38,1.66-22.75,2.49-34.13.06-.89.11-1.79.24-2.68.34-2.51,2.1-4.09,4.28-3.9a4.2,4.2,0,0,1,3.74,4.6c0,.05,0,.09,0,.14-.42,6.35-.88,12.72-1.34,19.07-1,13.08-1.94,26.15-2.81,39.23a24.46,24.46,0,0,0,20.42,25.81c12.27,2.1,24.53-5.31,27.67-17.44,3.91-15.11,7.25-30.41,10.84-45.56.33-1.41.62-2.81,1-4.2,1-3.68,3.33-4.78,6.7-3A25.73,25.73,0,0,0,194.44,294a24.37,24.37,0,0,0,14.21-8.17,7.14,7.14,0,0,1,5.06-2.61q21.75-2,43.48-4.1a7.2,7.2,0,0,1,5.46,1.63,25.33,25.33,0,0,0,31.45-.12c3.92-3,6.12-2.49,8.1,1.94q4.08,9.09,8.11,18.21c1.34,3,.7,5.31-1.71,6.38s-4.31-.05-5.66-3c-2.09-4.73-4.25-9.49-6.39-14.24A5.62,5.62,0,0,0,296.12,289.27Z"/><path class="cls-1" d="M172.56,214c8.47.23,13.63,4.33,14.43,11.32.79,7.16-3.4,12.15-11.93,14.27-1.3,9.72-4.81,13.95-12,14.49-6.83.51-11.33-3.42-13.75-12-8.93-.73-14-4.81-14.49-11.77s3.94-12.11,12.22-13.9c-.29-4.4.71-8.68,4.46-11.36a17,17,0,0,1,7.82-3.06C165.88,201.29,170.45,205.71,172.56,214Zm-13.28-4.07a4.48,4.48,0,0,0-4.09,4.56c0,1.51.21,3,.32,4.57.23,3.36-1,4.83-4.28,5.24-1.51.18-3,.21-4.54.51a4.51,4.51,0,0,0,1.05,9c1.52,0,3-.3,4.56-.39,3-.18,4.51,1.05,4.91,4.07.23,1.69.26,3.42.65,5.06a4.47,4.47,0,0,0,8.82-1.33c0-1.52-.31-3-.38-4.56-.16-3,1.16-4.56,4.09-4.94,1.41-.19,2.86-.23,4.29-.43,2.82-.4,4.45-2.34,4.19-4.93s-2.19-4.19-5.05-4.12c-1.43,0-2.85.27-4.29.37-3,.2-4.55-1-5-4-.22-1.6-.25-3.23-.53-4.82A4.4,4.4,0,0,0,159.28,209.9Z"/><path class="cls-1" d="M260.65,262.48a16.58,16.58,0,0,1,14.91-18.09l.3,0a16.78,16.78,0,1,1-15.2,18.22Zm8.09-.57a8.71,8.71,0,0,0,9.33,7.72,8.87,8.87,0,0,0,7.83-9.56,8.67,8.67,0,0,0-9.43-7.62,8.45,8.45,0,0,0-7.71,9.15l0,.31Z"/><path class="cls-1" d="M188.93,252.56a16.55,16.55,0,0,1,18.22,14.7c0,.11,0,.21,0,.32a16.13,16.13,0,1,1-18.25-15Zm10.19,15.88A8.5,8.5,0,0,0,190,260.6h0a8.67,8.67,0,0,0-8,9.25v.07a8.88,8.88,0,0,0,9.52,7.88A8.68,8.68,0,0,0,199.12,268.44Z"/><path class="cls-1" d="M320.17,201.14a11.71,11.71,0,1,1-.47,0Zm4.75,11.62a3.54,3.54,0,0,0-3.54-3.55h-.07a3.65,3.65,0,0,0-.16,7.3h.34a3.59,3.59,0,0,0,3.43-3.74Z"/><path class="cls-1" d="M315,233.65a11.81,11.81,0,1,1-12.71-10.83h0A11.7,11.7,0,0,1,315,233.47C315,233.53,315,233.59,315,233.65Zm-8.12.44a3.55,3.55,0,0,0-3.9-3.15h0a3.65,3.65,0,1,0,.43,7.28,3.93,3.93,0,0,0,.48-.06,3.54,3.54,0,0,0,3.05-4s0-.08,0-.12Z"/><path class="cls-1" d="M298.62,183.15a11.65,11.65,0,0,1,12.65,10.56,2.29,2.29,0,0,1,0,.25,11.79,11.79,0,1,1-12.67-10.81Zm.57,8.11a3.66,3.66,0,0,0-3.32,3.87,3.71,3.71,0,0,0,4,3.44h.11a3.65,3.65,0,0,0,3.27-3.91,3.56,3.56,0,0,0-3.69-3.42l-.32,0Z"/><path class="cls-1" d="M293.32,215.51a11.8,11.8,0,1,1-12.86-10.62h.05a11.64,11.64,0,0,1,12.78,10.38Zm-8.1.74a3.53,3.53,0,0,0-3.76-3.31l-.34,0a3.65,3.65,0,1,0,4.1,3.27Z"/><path class="cls-2" d="M213.21,238.81c-2,.19-3.92.49-5.89.54a4,4,0,0,1-4.39-3.44,2.64,2.64,0,0,1,0-.28c-.18-2.31,1.22-4,3.82-4.27,3.93-.44,7.85-.82,11.78-1.1a3.75,3.75,0,0,1,4.33,3.07c0,.1,0,.21,0,.31a3.9,3.9,0,0,1-3.15,4.53l-.33.05C217.41,238.54,215.31,238.62,213.21,238.81Z"/><path class="cls-2" d="M248.68,227.39c2-.17,3.92-.42,5.89-.53a4,4,0,0,1,1.16,7.83,130.93,130.93,0,0,1-13.1,1.21c-2.22.08-3.65-1.44-3.76-3.77a3.63,3.63,0,0,1,3.12-4.07l.27,0c2.1-.31,4.28-.43,6.42-.63Z"/><path class="cls-1" d="M7.69,223c-6-10-5.8-19.64.61-27.33a21.8,21.8,0,0,1,38.29,17.66c-.29,1.67-.73,3,1.24,4.12.81.45,1.2,2,1.44,3.06.79,3.65,1.42,7.34,2.1,11,.87,4.69.34,5.67-4.43,7.51,1.82,4.62,3.37,9.38,5.53,13.83,3.73,7.68,7.5,15.38,11.9,22.65,2.82,4.66,3.25,9.83,4.89,14.68.78,2.33,1.41,4.71,2.1,7.05.93,3,2,5.62,5.61,6.77,3.44,1.05,5.24,4.35,6,7.88.43,1.92.77,3.86,1.1,5.8.59,3.64-.57,5.31-4.2,6q-14.67,2.76-29.28,5.48l-34.78,6.5c-4.3.8-5.78-.2-6.59-4.4-.37-1.93-.74-3.86-1.05-5.8a10,10,0,0,1,3.4-9.85,5.69,5.69,0,0,0,2.19-5.36c-.47-5.24-1.11-10.54-1.49-15.83a37.11,37.11,0,0,1,.09-8.16c2-13.7,3.67-27.41,2.85-41.29-5.36-.37-5.89-.84-6.87-6.12-.58-3.08-1.35-6.15-1.67-9.28A39.8,39.8,0,0,1,7,223.19Zm30.25,17.45L24.24,243c-.93,14.46-1.85,28.6-2.78,42.7L56,279.22c-6-12.86-11.88-25.63-18-38.81ZM59.73,287.3l-38.92,7.29,1.44,16.91,42.4-7.92c-1.63-5.46-3.23-10.77-4.9-16.28Zm-33-67.73c2.21-.41,4.41-1,6.65-1.19s3.4-1.45,4.19-3.42a13.53,13.53,0,1,0-22.89,3.33c1.73,2.1,3.61,3.44,6.56,2.41A37.92,37.92,0,0,1,26.69,219.57ZM75.21,316c-.55-4.89-1.45-5.61-5.8-4.8L20.5,320.4c-4.46.82-5.13,2.15-3.28,6.5Zm-59-80.28,26.39-4.88-1.05-5.42-26.39,4.93Z"/><path class="cls-1" d="M405.11,295.12q-15.5-24.76-31-49.5a3.9,3.9,0,0,1-.16-4.44Q387.44,216,400.78,190.7a3.69,3.69,0,0,1,3.57-2.24q28.84-.94,57.67-2a3.06,3.06,0,0,1,3,1.56q15.25,24.47,30.58,48.94a3.88,3.88,0,0,1,.17,4.19c-1.69,3.15-3.34,6.29-5,9.44-.82,1.52-2.1,2-3.35,1.35s-1.7-2-.89-3.61c1.15-2.21,2.32-4.39,3.59-6.78l-1.38-.06q-25-.24-50-.51a1.69,1.69,0,0,0-1.77,1.05c-2.91,5.55-5.87,11.07-8.8,16.59-.16.31-.3.63-.52,1.1l4.43.07c4.19,0,8.33,0,12.5.14a1.6,1.6,0,0,0,1.73-1.05c.79-1.62,1.69-3.14,2.52-4.79a5,5,0,0,1,5-3c1.64,0,3.29,0,4.92.07a1.28,1.28,0,0,0,1.38-.83,7.18,7.18,0,1,1,.12,6.65,1.61,1.61,0,0,0-1.72-1.05c-1.43.07-2.88,0-4.33,0a1.2,1.2,0,0,0-1.29.78c-.83,1.65-1.77,3.24-2.57,4.9a5.26,5.26,0,0,1-5.31,3.15c-6.29-.11-12.59-.14-18.88-.21-.63,0-1.1,0-1.47.69q-6.61,12.58-13.3,25.1c-.11.22-.21.45-.3.68h1.25l51.38-1.79a1.69,1.69,0,0,0,1.66-1.05c1.35-2.64,2.78-5.24,4.19-7.87.16-.31.29-.63.51-1.12l-3.37.06c-5.58.07-11.14.17-16.71.21a1.49,1.49,0,0,0-1.55.95,7.12,7.12,0,0,1-8.15,3.59,7.2,7.2,0,0,1,.15-13.95,7.08,7.08,0,0,1,8.08,3.75,1.41,1.41,0,0,0,1.56.88q10.83-.19,21.65-.32a1.42,1.42,0,0,0,1.48-.89q1.36-2.69,2.84-5.32a2.31,2.31,0,0,1,2.6-1.3,2.17,2.17,0,0,1,1.9,2,2.94,2.94,0,0,1-.34,1.59q-5.67,10.77-11.39,21.49a3.89,3.89,0,0,1-3.69,2l-38,1.33-20.28.71Zm-21.81-61.2c-1.55,2.91-2.95,5.62-4.42,8.28a1.76,1.76,0,0,0,.09,2.1q13.56,21.56,27,43.2c.2.33.42.65.74,1.12l.65-1.23Q415.19,272.71,423,258a1.85,1.85,0,0,0-.16-2.24q-8.08-11.72-16.1-23.49a1.52,1.52,0,0,0-1.73-.79,7.07,7.07,0,0,1-7.66-4.54,7.19,7.19,0,0,1,11.32-8.08,7.1,7.1,0,0,1,1.75,8.82,1.42,1.42,0,0,0,.13,1.71q7.49,10.82,14.89,21.69c.2.29.43.54.73.92,2.3-4.36,4.57-8.56,6.75-12.8a1.73,1.73,0,0,0-.29-1.36q-14.14-20.69-28.32-41.34a10,10,0,0,0-.64-.82c-.23.39-.43.69-.59,1L386.3,228.16a1.6,1.6,0,0,0,.15,1.93l14.68,21.52a1.42,1.42,0,0,0,1.65.7,7.11,7.11,0,0,1,7.65,4.37,7.2,7.2,0,0,1-11.31,8.21,7.11,7.11,0,0,1-1.74-8.73,1.41,1.41,0,0,0-.09-1.71c-2.86-4.11-5.67-8.25-8.51-12.39Zm106.38,2.78c-.14-.31-.2-.41-.26-.52q-13.79-22.08-27.57-44.1a1.5,1.5,0,0,0-1.61-.69q-15.19.56-30.41,1.05l-2.81.12c1.47,2.1,2.84,4.1,4.19,6.09a1.17,1.17,0,0,0,1.46.58,6.71,6.71,0,0,1,5.66,1.36,7.26,7.26,0,1,1-10.84,2.56,1.31,1.31,0,0,0,0-1.51c-1.94-2.76-3.81-5.56-5.74-8.32a1.36,1.36,0,0,0-.92-.56c-4.19.1-8.48.27-12.87.42.26.42.43.72.62,1q14.12,20.57,28.19,41.15a1.76,1.76,0,0,0,1.65.87c9.43.08,18.87.18,28.23.27a7.65,7.65,0,0,0,1.13-.06c-.2-.35-.34-.59-.49-.82-2.76-4.38-5.55-8.73-8.29-13.11a1.53,1.53,0,0,0-1.7-.89,7,7,0,0,1-7-4.11,7.18,7.18,0,0,1,10.8-8.79,7.06,7.06,0,0,1,2,9.12,2,2,0,0,0,.06,2.35c3.36,5.24,6.63,10.42,10,15.6a1.86,1.86,0,0,0,1.29.75c1.67.09,3.36.06,5,.08ZM436,207.33a2.32,2.32,0,1,0-.15.29A1.59,1.59,0,0,0,436,207.33Zm31.63,44.12a2.39,2.39,0,1,0-2.32,4.19h0a2.39,2.39,0,1,0,2.32-4.19ZM405,257.27a2.36,2.36,0,0,0-3.14,1,2.32,2.32,0,0,0,1,3.14h0a2.37,2.37,0,0,0,2.21-4.19Zm50.73-40.76a2.35,2.35,0,1,0,2.42-4,1.19,1.19,0,0,0-.22-.12,2.35,2.35,0,1,0-2.43,4Zm-14.76,62.6a2.54,2.54,0,1,0-.05,0Zm-34.77-53.56a2.35,2.35,0,1,0-3.19.92A2.34,2.34,0,0,0,406.16,225.55Z"/><path class="cls-2" d="M481,258.36a2.41,2.41,0,1,1,1.12,3.31l-.19-.1a2.35,2.35,0,0,1-.93-3.2Z"/></svg>