<svg id="Layer_1" data-name="Layer 1" xmlns="http://www.w3.org/2000/svg" viewBox="0 0 500 500"><defs><style>.cls-1{fill:#fecf81;}.cls-2{fill:#fec481;}</style></defs><path class="cls-1" d="M27.75,380.32c13.36-13.7,26.61-27.63,40.16-41.21,4.89-4.9,11.44-6.07,18.28-6.07q86.22.1,172.44,0h5.27V296.5c-9.4-1.69-13.23-8.14-15.22-16.86-5-21.9-10.48-43.69-15.81-65.53-3.29-13.58,3.67-22.58,17.63-22.65h30c-3.32-13.83-6.5-27-9.68-40.22-2.24-9.32-4.54-18.63-6.76-27.95-3.31-13.83,4.34-23.47,18.63-23.48h61.87V85.05c-2.48,0-5,.11-7.52,0-4.26-.22-7.06-2.87-7.1-6.55s2.74-6.6,7-6.66c9.73-.15,19.49-.17,29.23,0,4.29.07,6.89,3,6.79,6.76-.1,3.63-2.64,6.1-6.73,6.44-1.28.12-2.58,0-3.87,0s-2.52.12-4,.18V99.77h59.06c14.19,0,21.92,9.81,18.6,23.56q-7.7,31.92-15.46,63.84c-.29,1.21-.47,2.44-.82,4.21h8.08c8.32,0,16.65-.26,24.94.21,10.26.6,17.27,9.68,15,19.4C462,235.38,456,259.7,450,284c-1.62,6.59-6.2,10.43-13,12.25v86.36a18.28,18.28,0,0,1-.38,4.67,6.46,6.46,0,0,1-12.64-.2,23.09,23.09,0,0,1-.33-4.7V296.72h-146V481.43h33.09c.07-1.45.2-3,.2-4.49v-43c0-13.41,7.68-20.95,21.16-21h37c12,0,19.89,7.87,19.93,19.92.05,16.05,0,32.1,0,48.88h25.72c6.32-.07,8.86-2.56,8.88-8.89v-55c.13-5.26,2.64-8.29,6.75-8.24s6.57,3.16,6.58,8.43c0,18.49.1,37,0,55.48-.08,12.78-8.66,21.38-21.34,21.38H63.4c-17.42,0-30.56-10.54-34.87-27.5a12,12,0,0,0-.83-1.87Zm13.38,9.18c-.09,1.65-.22,3-.22,4.43v63.65c0,15.28,9.06,24.24,24.44,24.24h100V433.3c0-12.55,7.84-20.26,20.46-20.28h36.56c13.43,0,21.08,7.61,21.08,21.07v47.54h20.36V389.5ZM350,191.47h52c2.22,0,3.94.07,4.66-2.94,5.42-23,11.1-45.88,16.62-68.83,1.12-4.71-.62-6.79-5.51-6.8H282.39c-5.08,0-6.68,2.1-5.48,7.08,5.44,22.52,11,45,16.28,67.58.77,3.31,2.22,4,5.27,3.95,17.15-.11,34.35,0,51.53,0Zm.13,13.32H250.8c-5.27,0-6.26,1.17-5.08,6.08,5.41,22.4,10.9,44.77,16.21,67.19.93,3.91,2.81,5.27,6.86,5.21q78.9-.18,157.8-.09c9.65,0,9.89-.17,12.65-9.49.2-.68.4-1.37.56-2.1q7.26-30.48,14.49-61c1.13-4.76.14-5.91-4.85-5.91q-49.65.06-99.32.09ZM49.85,374.16l1.35,1.52H263.86V346.41H160.4c-24.78,0-49.52-.12-74.34.12-3.33,0-7.38,1.06-9.82,3.09C67.14,357.46,58.58,365.93,49.85,374.16ZM230.18,481.65V434c0-6.11-1.82-7.88-8-7.91H187c-6.64,0-8.38,1.76-8.43,8.44v43c0,1.36.15,2.72.22,4.12Zm145.7,0c0-16.86.09-33.36-.07-49.81,0-3.92-2.55-5.72-7.1-5.75q-18.48-.09-37,0c-5.55,0-7.38,1.93-7.38,7.57v44.72a29.93,29.93,0,0,0,.38,3.28Z"/><path class="cls-1" d="M94.41,132.92,68,109.42c-6.79-6-6.07-10.89,2.2-14.43,6-2.6,12-5.5,18.2-7.63a14.55,14.55,0,0,1,9-.2c14.13,5.08,28.11,10.54,42.08,16.1a6.79,6.79,0,0,0,7.1-.74c14.89-9.93,30-19.58,44.87-29.51,10-6.68,20.29-6.84,30.34-.88A74.7,74.7,0,0,1,236.29,84c5.18,5.27,4.35,9.31-1.83,13.23L112.4,174.41c-7.72,4.87-15.13,10.43-24.51,12-13.37,2.17-25.68-.06-36.42-8.71-5.14-4.13-10.17-8.43-15.11-12.75-4.66-4.11-4-8.08.58-12.15,7.48-6.63,15.75-9,25.29-6,10.34,3.26,18.83,1.18,25.58-7.6C89.49,136.87,91.93,135.19,94.41,132.92Zm-11.6-28.45a4.51,4.51,0,0,0,.51.8l23.74,21.17c5,4.52,5,8.35,0,12.92-7.22,6.55-14.32,13.23-21.76,19.5a12.26,12.26,0,0,1-7.62,2.9c-6.12-.23-12.2-1.38-18.3-2.16l-8.18-1-.36,1.24c2.25,1.93,4.48,3.88,6.75,5.8,12.07,10.22,26.25,11.18,39.63,2.72L204,100.91c6.12-3.86,12.21-7.75,18.39-11.67-7.93-8.79-16-10.12-25.29-4.07q-23.79,15.42-47.35,31.19a10.11,10.11,0,0,1-10.41,1.06c-12.48-5-25.29-9.33-37.55-14.76C94.83,99.59,89,100,82.81,104.48Z"/><path class="cls-2" d="M163.57,192.73c-.88,1.06-2.17,3.34-4.15,4.61q-31.41,20.19-63,40c-4,2.52-8,1.73-10.06-1.73s-1-6.87,3.06-9.42q29.69-18.9,59.43-37.7a43.9,43.9,0,0,1,5.5-3.32C158.86,183.19,163.78,186.51,163.57,192.73Z"/><path class="cls-2" d="M350.19,324.41h-30.9c-5.19,0-8.3-2.58-8.26-6.66s3-6.48,8-6.49q31.14-.08,62.26,0c4.94,0,7.83,2.62,7.78,6.62s-3,6.5-7.91,6.53C370.81,324.45,360.5,324.41,350.19,324.41Z"/><path class="cls-2" d="M68.88,292.24c-1.46-1.44-3.88-2.91-4.89-5-1.44-3-.07-5.89,2.85-7.69q10.36-6.45,20.8-12.82c2.43-1.5,4.81-3.11,7.38-4.43a6.44,6.44,0,0,1,8.69,2.11,6.22,6.22,0,0,1-1.49,8.68l-.11.08c-9.63,6.15-19.43,12-29.2,18C72.05,291.58,71,291.65,68.88,292.24Z"/><path class="cls-2" d="M102.35,426.06H71.89c-5.35,0-8.18-2.39-8.12-6.63S66.69,413,72.11,413h61.36c5.27,0,8.19,2.43,8.12,6.65s-2.84,6.39-7.91,6.41C123.24,426.09,112.79,426.06,102.35,426.06Z"/><path class="cls-2" d="M367.22,145.37a7.11,7.11,0,0,1,7.19,7c0,.11,0,.23,0,.34a7.38,7.38,0,0,1-7.11,7.16,7.51,7.51,0,0,1-7.46-7.3,7.23,7.23,0,0,1,7.21-7.24Z"/><path class="cls-2" d="M338.89,152.42a7.56,7.56,0,0,1-7.27,7.49,7.3,7.3,0,0,1-7.25-7,7,7,0,0,1,6.46-7.54l.48,0a7.27,7.27,0,0,1,7.57,7Z"/><path class="cls-2" d="M351.62,221.35h54.56c7.84,0,9.74,1.86,9.76,9.49v27.49c0,6-2.32,8.25-8.43,8.26H295.38c-6,0-8.26-2.34-8.3-8.43q-.12-14.18,0-28.36c0-6.27,2.3-8.43,8.66-8.43Q323.7,221.33,351.62,221.35Zm-51,31.62H402.44V234.91H300.58Z"/><path class="cls-1" d="M384,26.39c-1.29,1.46-2.11,3.27-3.32,3.56a7.14,7.14,0,0,1-4.92-1c-3.68-2.19-6.86-5.38-10.73-7.07-14.75-6.45-28.36-4.15-40.6,6.32-.38.33-.72.71-1.11,1.06-2.1,1.65-4.63,1.6-6.23-.13a4.36,4.36,0,0,1,.29-6.16l.06-.06a43.22,43.22,0,0,1,22.13-12.08c15.6-3.17,29.45.46,41.28,11.21C382.09,23.09,382.79,24.65,384,26.39Z"/><path class="cls-1" d="M375.13,38.38c.1,3.95-3.16,6.16-6.07,4.79a12,12,0,0,1-2.4-1.8,25.61,25.61,0,0,0-34.09,0c-.37.34-.72.7-1.12,1.06-2.17,1.68-4.56,1.61-6.2-.2s-1.63-4.22.36-6.18a32.48,32.48,0,0,1,17-9.18c11.48-2.21,21.68.58,30.36,8.51A16.5,16.5,0,0,1,375.13,38.38Z"/><path class="cls-1" d="M367.7,52.63c-1.2,1.38-2,3.16-3.23,3.49a6.47,6.47,0,0,1-4.87-.83c-2.82-2.1-5.65-3.73-9.24-3.9A14.25,14.25,0,0,0,340.14,55c-2.71,2.29-5,2.31-6.84.2s-1.28-4.53,1.23-6.81c8.49-7.68,22.25-7.6,30.44.27A26,26,0,0,1,367.7,52.63Z"/></svg>