<svg id="Layer_1" data-name="Layer 1" xmlns="http://www.w3.org/2000/svg" viewBox="0 0 487.63 421.37"><defs><style>.cls-1{fill:#fec481;}.cls-2{fill:#a7a7a7;}.cls-3{fill:#fecf81;}</style></defs><path class="cls-1" d="M389.85,328c-1.3,1.25-2.38,3-3.93,3.67-3.57,1.47-7.1-1.28-7.2-5.37-.1-3.61,0-7.22,0-11H356.9c-1.91,15.83-3.8,31.6-5.76,47.86H361.6c11.11,0,11.36.25,11.36,11.5v20.7c0,4.94-2,7-7,7-12.31,0-24.62-.05-36.93.08a6.31,6.31,0,0,0-4,1.71,30.74,30.74,0,0,1-43.46.83c-.23-.21-.44-.43-.66-.65a6.06,6.06,0,0,0-4.85-2q-29.52.09-59,0a5.81,5.81,0,0,0-4.62,1.89,30.72,30.72,0,0,1-43.45.7q-.45-.42-.87-.87a5.84,5.84,0,0,0-3.79-1.61c-12.21-.12-24.43-.07-36.65-.08-5.51,0-7.41-1.9-7.42-7.39V370.35c0-5.37,1.82-7.16,7.27-7.18h14.54c-1.94-16.14-3.84-31.92-5.75-47.85h-21.8v10c0,4.26-2,6.62-5.45,6.67s-5.64-2.38-5.64-6.77V271.78a15.69,15.69,0,0,1,0-1.68,5.58,5.58,0,0,1,5.5-5.27,5.47,5.47,0,0,1,5.53,5.41v.09c.11,3.62,0,7.25,0,11.09h17.7c-.72-6.21-1.42-12.37-2.15-18.53-1-8.7-2.2-17.38-3.09-26.1-.24-2.4-1-3.15-3.41-3-4.47.19-9,.09-13.43,0s-6.69-2.12-6.7-6.68V201.36c0-4.81,1.94-6.72,6.83-6.75q13.42-.09,26.85-.11h219c8.77,0,17.54.17,26.3.05,3.45-.05,6,1,7.45,4.16V229.5c-1.48,3.34-4.11,4.47-7.65,4.34-4.28-.16-8.57.08-12.85-.09-2.17-.08-2.85.67-3.08,2.78-.95,8.89-2.1,17.75-3.16,26.62-.72,6.07-1.4,12.14-2.1,18.29H378.7V270.39a5.51,5.51,0,0,1,9.82-3.44c.48.54.88,1.15,1.31,1.73ZM153.17,363.16c3.79,0,7.32.16,10.83-.08a6.81,6.81,0,0,0,4.06-1.69c12.65-12.77,32.14-12.71,44.79.15a5.62,5.62,0,0,0,3.55,1.55q30.21.14,60.42,0a5.28,5.28,0,0,0,3.35-1.41c13-13.13,32.11-13.16,45.13,0a4.08,4.08,0,0,0,2.24,1.41c4.07.15,8.16.07,12.44.07C345.16,320,350.3,277.07,355.47,234H137.68C142.84,277,148,319.85,153.17,363.16ZM114.56,222.47H378.5V205.82H114.56ZM190.68,363a19.45,19.45,0,1,0,.08,0Zm112,0a19.71,19.71,0,1,0,19.85,19.58A19.7,19.7,0,0,0,302.68,363Zm-81.89,28H272.4V374.45H220.77Zm-89.31,0H160V374.44H131.46Zm201.67-16.65V391h28.49V374.42ZM133.57,292.91H114.66v11h20.19Zm226-.05c-.43,3.69-.84,7.31-1.27,11h20.21v-11Z"/><path class="cls-2" d="M185,382.82a5.32,5.32,0,0,1,5.07-5.57h.26a5.46,5.46,0,0,1,5.62,5.3v.06a5.62,5.62,0,0,1-5.4,5.66A5.51,5.51,0,0,1,185,382.82Z"/><path class="cls-2" d="M308.21,382.63a5.5,5.5,0,0,1-5.37,5.63h0a5.61,5.61,0,0,1-5.58-5.47,5.45,5.45,0,0,1,5.33-5.55h.09a5.33,5.33,0,0,1,5.53,5.13Z"/><path class="cls-3" d="M392.32,158.45c-1.42,1.61-2.73,3.33-4.27,4.82-6.18,5.95-12.47,11.79-18.64,17.76a8.34,8.34,0,0,1-6.32,2.54c-5.66-.1-11.32,0-17,0-4.09,0-6.46-2-6.54-5.44s2.32-5.78,6.48-5.85c4.71-.08,9.44.07,14.15-.08a5.74,5.74,0,0,0,3.44-1.39c5.35-4.91,10.59-9.94,15.81-15a4.34,4.34,0,0,0,1.48-2.51c.1-10,.06-20,.06-30.29L362.8,128.2c-11.05,3.15-22.1,6.28-33.13,9.48a12.43,12.43,0,0,0-4.05,1.86Q305.45,155,285.36,170.66c-.37.29-.69.63-1.72,1.56h6.64a32.87,32.87,0,0,1,5.34.32,5.46,5.46,0,0,1,4.34,5.53,5.59,5.59,0,0,1-4.9,5.36,22.31,22.31,0,0,1-2.83.1q-81.51,0-163,.06c-3.88,0-6.28-1.3-8.08-4.77q-8.3-16.08-17.06-31.9a8.6,8.6,0,0,1-.06-9c5.77-11.11,11.29-22.36,17-33.51a14.71,14.71,0,0,1,3.42-4.38c5.86-5,11.88-9.91,17.78-14.91a7.93,7.93,0,0,1,6.22-2c6.57.64,13.16,1.1,19.72,1.76a6.35,6.35,0,0,0,5.32-1.77Q190.67,67.66,208,52.42c3.71-3.29,5.23-3.41,9.57-.88,3.48,2,7,4.11,10.59,6.27.66-1,1.26-1.78,1.81-2.63,7.86-12.1,15.63-24.25,23.64-36.24A10.88,10.88,0,0,1,259,14.86c16-5,32.21-9.79,48.39-14.49a10,10,0,0,1,5.48,0C326.09,4.5,339.28,8.7,352.4,13.11a9.08,9.08,0,0,1,4.6,3.75c7.06,12.14,13.87,24.42,20.82,36.62a7.44,7.44,0,0,1,.5,6.74c-3.53,9.44-6.93,18.93-10.49,28.35-.66,1.76-.54,2.79,1,4.06,6.57,5.52,13.05,11.15,19.5,16.81a55.93,55.93,0,0,1,4,4.29ZM256.78,73.55c-7.34,0-14.13.14-20.91-.08a15,15,0,0,1-6.34-1.76c-4.66-2.47-9.18-5.21-13.64-8-1.67-1-2.67-.9-4.12.4-9.46,8.53-19,17-28.53,25.41a19.7,19.7,0,0,0-1.53,1.6c3.67,4.33,7.38,8.36,10.68,12.71a17.54,17.54,0,0,0,9.82,6.43c13.48,3.83,26.87,8,40.6,12.12C247.45,106.13,252.05,90.06,256.78,73.55Zm40.48,19.1a7.18,7.18,0,0,0-.79.38q-20.89,18.45-41.81,36.87c-1.38,1.2-.92,2.21-.44,3.46q6.55,17,13.07,34c.26.66.62,1.27,1.06,2.14l48.83-37.84C310.46,118.51,303.91,105.69,297.26,92.65Zm-88.54,31.28c-3.69,16.15-7.33,32.06-11,48.13h59a7.63,7.63,0,0,0-.23-1.25c-4.51-11.78-9-23.57-13.6-35.31a3.8,3.8,0,0,0-2.15-1.9C230.11,130.33,219.47,127.16,208.72,123.93ZM304.52,13.2a9.17,9.17,0,0,0-1.28.18c-13.07,3.89-26.16,7.76-39.2,11.76a5.55,5.55,0,0,0-2.59,2.34C254.52,38,247.67,48.63,240.81,59.22c-.55.85-1,1.73-1.78,3h24a3.06,3.06,0,0,0,1.06-.34q19.5-8,38.88-16a2.74,2.74,0,0,0,1.47-2C304.55,33.66,304.52,23.49,304.52,13.2ZM289.61,83.86a26.8,26.8,0,0,0,2.73-2.37c2.77-3.16,6.2-4,10.36-4q19.8.32,39.61,0c5.65-.1,10.94.09,14.86,4.89.09.1.34.08.83.19,2.49-6.79,5-13.61,7.56-20.58-.9-.19-1.34-.31-1.8-.37-17-2.21-34-4.44-51-6.58a8,8,0,0,0-3.79.61c-9.34,3.79-18.64,7.66-28,11.51l-6.34,2.65Zm18.55,5.23c6.48,12.69,12.79,25,19.13,37.47L374.78,113a17.23,17.23,0,0,0-1.3-1.4c-8.35-7.22-16.68-14.46-25.1-21.59a5.56,5.56,0,0,0-3.33-1c-11.32-.08-22.64,0-34,0a17.67,17.67,0,0,0-2.89.08Zm-170.06,83c1.4.06,2.23.14,3.06.14,14,0,28.09-.06,42.14.06,2.32,0,3-.89,3.46-2.9,2.51-11.29,5.12-22.57,7.69-33.86.19-.84.27-1.71.45-2.92-12,3.14-23.44,6.14-34.9,9.18a3.05,3.05,0,0,0-1.58,1c-6.68,9.59-13.32,19.21-20.32,29.29ZM135,105.94c7.29,8.08,14.32,15.93,21.46,23.69a3.28,3.28,0,0,0,2.64.57c4.12-.95,8.2-2.07,12.3-3.15,6.95-1.82,13.89-3.66,21.21-5.59-7.08-8.35-13.87-16.4-20.74-24.38a3.74,3.74,0,0,0-2.29-.81c-6.28-.6-12.56-1.17-18.85-1.64a4.46,4.46,0,0,0-2.85.65C143.62,98.68,139.47,102.22,135,105.94ZM316,44.06l46.7,6c-.6-1.24-.92-2-1.32-2.7-4.12-7.3-8.18-14.64-12.44-21.86a7.12,7.12,0,0,0-3.52-2.81c-5.76-2-11.61-3.83-17.44-5.7-3.92-1.25-7.85-2.46-12-3.75ZM128.18,115.29c-2.87,5.69-5.63,11.14-8.37,16.6-1.72,3.44-4.76,6.92-4.74,10.36s3.14,6.84,4.91,10.26c1,2,2.13,4,3.19,6l4.63,8.58,20.45-29.53Zm139-36.91c-3.28,11.45-6.39,22.33-9.71,34L281.1,91.44Z"/><path class="cls-1" d="M319.66,183.51a5.48,5.48,0,0,1-5.53-5.43v-.14a5.59,5.59,0,0,1,5.52-5.64,5.74,5.74,0,0,1,5.74,5.72v0A5.63,5.63,0,0,1,319.66,183.51Z"/><path class="cls-3" d="M416.64,350.85c-.35-3.7-.67-7.13-1-10.57-.36-3.72-.72-7.45-1.11-11.18a2.62,2.62,0,0,1,1-2.39q8.78-7.6,17.49-15.26a2.24,2.24,0,0,1,3-.25q10.35,6.72,20.72,13.4a2.76,2.76,0,0,1,1.24,2.85q-.6,9-1.14,18v1.87l6.23-4.15c1.2-.8,2.38-1.63,3.6-2.39a1.92,1.92,0,0,1,2.69.25,1.71,1.71,0,0,1,.31.52q4.95,9.79,9.79,19.64a2.91,2.91,0,0,1,0,1.89q-3.46,13.25-7,26.46c-.09.31-.14.63-.23,1,2.45,1,4.87,1.88,7.22,2.93a6.73,6.73,0,0,1,2.38,1.82c1.76,2.17,3.39,4.45,5.06,6.69,1.07,1.44.95,2.32-.45,3.48-3.63,3-7.28,6-10.89,9.1a3.23,3.23,0,0,1-2.84.75c-3.57-.57-7.17-1-10.74-1.58a1.47,1.47,0,0,0-1.72.78,27.57,27.57,0,0,1-2.48,3.68,3.25,3.25,0,0,1-2,1.17c-7.57.71-15.16,1.34-22.75,1.94a5.91,5.91,0,0,1-2.17-.29c-5.75-1.7-11.48-3.45-17.24-5.13a3.41,3.41,0,0,0-2,.06c-4.56,1.65-9.09,3.38-13.63,5.08-1.59.59-2.13.45-3.21-.86l-9-10.82c-1.32-1.58-1.25-2.43.27-3.74,3.81-3.27,7.61-6.56,11.44-9.8a1.46,1.46,0,0,0,.53-1.88c-3-8.8-5.87-17.62-8.85-26.42a3.75,3.75,0,0,1,.31-3.26c3.7-6.7,7.34-13.42,11-20.14,1.13-2.06,2-2.29,3.93-1Zm37.22-22.07c-3.56.44-6.93,1-10.33,1.23a3.17,3.17,0,0,0-3.09,2.36c-.4,1.07-1.09,2-1.49,3.11a8.86,8.86,0,0,0-.7,2.91q-.06,25.31,0,50.61v1.51a26.22,26.22,0,0,1,2.92-1.42,2.19,2.19,0,0,0,1.48-2q2.44-14.89,5-29.79c.89-5.27,0-3.71,4.16-6.57a1.87,1.87,0,0,0,.92-1.58c.27-5,.59-10,.89-15,0-1.78.14-3.54.24-5.37Zm-19.64,62.5V338.62a1.22,1.22,0,0,0-1-1.31c-4.51-1.77-9-3.59-13.5-5.39-.3-.11-.6-.18-1-.32.15,1.56.28,3,.41,4.41.52,5.49,1.06,11,1.56,16.46a1.9,1.9,0,0,0,1,1.66,24,24,0,0,1,3.41,2.21,3,3,0,0,1,1.12,1.88c.41,5.63.71,11.25,1,16.88.27,4.64.52,9.29.84,13.92a1.43,1.43,0,0,0,.74,1.14c1.85.47,3.59.76,5.42,1.12Zm-20.42,7.21a5.44,5.44,0,0,0-.08-1.21q-2.33-13.25-4.66-26.49a1.09,1.09,0,0,0-1.11-1.07h-.07c-3-.26-6.06-.61-9.09-.91-1.65-.16-3.31-.3-5-.45a1.21,1.21,0,0,0,0,.38q4.13,12.4,8.27,24.8a1.41,1.41,0,0,0,.66.78c3.64,1.4,7.28,2.75,11.08,4.17Zm40.84-4.12a3.3,3.3,0,0,0,.19-.43q3.36-14.2,6.67-28.43a1.42,1.42,0,0,0-.58-1.12c-2.48-1.83-5-3.61-7.51-5.4-.58-.42-1.17-.82-1.76-1.22-.12.2-.2.26-.21.33q-2.52,15-5,30a1.14,1.14,0,0,0,.32.93C449.35,390.86,452,392.6,454.64,394.37Zm-32-32.54c-3.14,2.25-6.07,4.37-9,6.43a1.45,1.45,0,0,0-.7,1.72c1.24,6.8,2.41,13.61,3.61,20.41.41,2.31.84,4.62,1.29,7.12,2.07-2.07,3.94-4,5.86-5.83a2.1,2.1,0,0,0,.65-1.85c-.25-3.58-.44-7.15-.65-10.73-.39-5.67-.7-11.33-1.08-17.27ZM475,364.6a6.91,6.91,0,0,0-.91,0c-2.44.34-4.88.75-7.33,1-1.06.11-1.39.62-1.61,1.57-1.95,8.4-3.94,16.79-5.91,25.18-.13.58-.21,1.16-.35,1.91,3-1.3,5.86-2.5,8.67-3.76a1.66,1.66,0,0,0,.76-1c.43-1.37.78-2.77,1.15-4.16Q472.26,375.05,475,364.6Zm-41.3-48.51-13.47,11.76,15.06,6c.67-1.33,1.22-2.62,1.95-3.8a3.56,3.56,0,0,0,.23-3.45C436.17,323.17,435,319.68,433.7,316.09Zm23.07,86.4a11.72,11.72,0,0,0-4.3-4.85,40.06,40.06,0,0,1-5.73-3.84c-1.9-1.58-3.53-1.68-5.65-.37-2.43,1.51-2.54,1.33-1.86,4.06.78,3.15,1.57,6.28,2.39,9.54Zm-41.68,9.56a2.88,2.88,0,0,0,.38.22l15.45,4.65c.27.07.74.06.88-.11,1.68-2,3.33-4.11,5.09-6.31l-19.15-6.38Zm21.87,4.7.17.28,17.21-1.45a1.24,1.24,0,0,0,.74-.36c2-2.6,3.86-5.26,2.69-8.84a.66.66,0,0,0-.28,0L442,411a1.61,1.61,0,0,0-.77.36c-1.42,1.81-2.84,3.64-4.23,5.39Zm.23-10.32a3.05,3.05,0,0,0,.05-.52c-.82-3.31-1.62-6.62-2.5-9.91a1.38,1.38,0,0,0-.93-.75c-2-.44-3.94-.86-5.92-1.17a2,2,0,0,0-1.48.46c-1.14,1-2.18,2.13-3.25,3.21l-3,3Zm-35-57.19L394,364.36l13.75,1.38c-1.88-5.52-3.65-10.85-5.54-16.5Zm-8.89,55.37c2.22-.31,4.09-.47,5.92-.84a4.16,4.16,0,0,1,3.46.75c2.86,2,5.78,3.87,8.78,5.87l2.52-7.6c-3.79-1.41-7.47-2.69-11.05-4.19a2.79,2.79,0,0,0-3.44.64c-1.87,1.76-3.92,3.43-6.17,5.37Zm27.54-46.38L406.29,349l5.3,15.89ZM459,398.54a25.24,25.24,0,0,1,1.37,2.13,1.69,1.69,0,0,0,1.77,1c3.21-.05,6.42,0,9.63,0,.39,0,1,0,1.14-.22,1.26-1.55,2.43-3.16,3.69-4.82-2.17-.87-4.15-1.68-6.15-2.44a1.56,1.56,0,0,0-1,0C466,395.54,462.54,397,459,398.54ZM390.63,409c2.23,2.68,4.25,5.15,6.35,7.56a1.42,1.42,0,0,0,1.25.14c3-1.09,6.07-2.25,9.1-3.39a5.63,5.63,0,0,0,.76-.42l-7.4-4.92a1.34,1.34,0,0,0-.79-.26C396.9,408.11,393.9,408.54,390.63,409Zm71.9-48.36c.86-4.76,1.67-9.26,2.55-14.07l-11.51,7.67Zm6.4-11.75-.27.09c-.75,4.17-1.51,8.35-2.31,12.73l8.4-1.19C472.76,356.53,470.85,352.71,468.93,348.89Zm2.82,56.77H462v4.13l9.74,1.39Zm-33.34-88.18,3.13,8.85,8.83-1.11Zm41.36,81.57c-3.86,4.44-4.62,6.46-3.8,10.05l7-5.83Z"/><path class="cls-3" d="M31.78,350.85c-.34-3.7-.66-7.13-1-10.57q-.54-5.58-1.11-11.18a2.62,2.62,0,0,1,1-2.39q8.76-7.6,17.49-15.26a2.24,2.24,0,0,1,3-.25q10.35,6.72,20.73,13.4a2.75,2.75,0,0,1,1.23,2.85q-.6,9-1.14,18v1.87l6.23-4.15c1.2-.8,2.38-1.63,3.6-2.39a1.92,1.92,0,0,1,2.69.25,1.71,1.71,0,0,1,.31.52q5,9.79,9.8,19.64a3.05,3.05,0,0,1,0,1.89c-2.31,8.83-4.67,17.64-7,26.46-.08.31-.14.63-.23,1,2.45,1,4.88,1.88,7.23,2.93A6.94,6.94,0,0,1,97,395.31c1.76,2.17,3.38,4.45,5,6.69,1.07,1.44,1,2.32-.44,3.48-3.64,3-7.29,6-10.9,9.1a3.23,3.23,0,0,1-2.84.75c-3.57-.57-7.16-1-10.74-1.58a1.46,1.46,0,0,0-1.71.78A27.79,27.79,0,0,1,73,418.21a3.25,3.25,0,0,1-2,1.17c-7.58.71-15.16,1.34-22.75,1.94A5.94,5.94,0,0,1,46,421c-5.75-1.7-11.49-3.45-17.25-5.13a3.41,3.41,0,0,0-2,.06c-4.56,1.65-9.09,3.38-13.64,5.08-1.59.59-2.12.45-3.21-.86l-9-10.82c-1.31-1.58-1.25-2.43.28-3.74,3.81-3.27,7.6-6.56,11.44-9.8a1.46,1.46,0,0,0,.52-1.88c-3-8.8-5.87-17.62-8.84-26.42a3.68,3.68,0,0,1,.31-3.26c3.69-6.7,7.33-13.42,11-20.14,1.12-2.06,2-2.29,3.92-1ZM69,328.78c-3.57.44-6.94,1-10.33,1.23a3.19,3.19,0,0,0-3.1,2.36c-.4,1.07-1.08,2-1.49,3.11a8.6,8.6,0,0,0-.69,2.91q-.06,25.31,0,50.61v1.51a26.08,26.08,0,0,1,2.91-1.42,2.2,2.2,0,0,0,1.49-2q2.45-14.89,5-29.79c.89-5.27,0-3.71,4.16-6.57a1.83,1.83,0,0,0,.92-1.58c.28-5,.6-10,.9-15C68.8,332.37,68.9,330.61,69,328.78Zm-19.65,62.5V338.62a1.2,1.2,0,0,0-1-1.31c-4.51-1.77-9-3.59-13.5-5.39-.29-.11-.6-.18-1-.32.14,1.56.27,3,.41,4.41l1.56,16.46a1.89,1.89,0,0,0,1,1.66,24.64,24.64,0,0,1,3.42,2.21,3.09,3.09,0,0,1,1.12,1.88c.41,5.63.71,11.25,1,16.88.27,4.64.52,9.29.84,13.92a1.47,1.47,0,0,0,.73,1.14c1.86.47,3.6.76,5.43,1.12ZM29,398.49a5.44,5.44,0,0,0-.08-1.21Q26.53,384,24.21,370.79a1.1,1.1,0,0,0-1.1-1.08H23c-3-.26-6.06-.61-9.09-.91l-5-.45c0,.22-.06.31,0,.38q4.11,12.4,8.26,24.8a1.43,1.43,0,0,0,.67.78C21.5,395.72,25.16,397.07,29,398.49Zm40.84-4.12a3.3,3.3,0,0,0,.19-.43c2.23-9.47,4.47-18.95,6.66-28.43a1.44,1.44,0,0,0-.57-1.12c-2.48-1.83-5-3.61-7.51-5.4-.58-.42-1.18-.82-1.76-1.22-.13.2-.2.26-.21.33q-2.52,15-5,30A1.12,1.12,0,0,0,62,389c2.53,1.83,5.16,3.57,7.82,5.34Zm-32-32.54c-3.15,2.25-6.07,4.37-9,6.43A1.43,1.43,0,0,0,28,370c1.23,6.8,2.41,13.61,3.61,20.41.41,2.31.83,4.62,1.28,7.12,2.07-2.07,3.94-4,5.86-5.83a2,2,0,0,0,.65-1.85c-.25-3.58-.44-7.15-.65-10.73-.3-5.69-.63-11.35-1-17.29Zm52.4,2.77a6.91,6.91,0,0,0-.91,0c-2.44.34-4.87.75-7.32,1-1.07.11-1.4.62-1.62,1.57-1.94,8.4-3.93,16.79-5.9,25.18-.13.58-.22,1.16-.36,1.91,3-1.3,5.87-2.5,8.67-3.76a1.72,1.72,0,0,0,.77-1c.43-1.37.77-2.77,1.14-4.16q2.66-10.29,5.46-20.74ZM48.85,316.09,35.37,327.85l15.06,6a38.84,38.84,0,0,1,2-3.8,3.57,3.57,0,0,0,.24-3.45C51.31,323.17,50.13,319.68,48.85,316.09Zm23.06,86.4a11.7,11.7,0,0,0-4.29-4.85,40.06,40.06,0,0,1-5.73-3.84c-1.91-1.58-3.53-1.68-5.66-.37-2.42,1.51-2.54,1.33-1.86,4.06.78,3.15,1.58,6.28,2.4,9.54Zm-41.67,9.56a2.08,2.08,0,0,0,.38.22q7.71,2.34,15.44,4.65c.27.07.74.06.88-.11,1.69-2,3.33-4.11,5.09-6.31l-19.15-6.38Zm21.86,4.7.18.28,17.21-1.45a1.18,1.18,0,0,0,.73-.36c2-2.6,3.86-5.26,2.69-8.84a.62.62,0,0,0-.27,0L57.17,411a1.61,1.61,0,0,0-.77.36C55,413.17,53.53,415,52.1,416.75Zm.23-10.32a1.84,1.84,0,0,0,.05-.52c-.81-3.31-1.62-6.62-2.49-9.91a1.42,1.42,0,0,0-.94-.75c-2-.44-3.93-.86-5.92-1.17a2.1,2.1,0,0,0-1.48.46c-1.14,1-2.17,2.13-3.25,3.21l-3,3Zm-35-57.19L9.11,364.36l13.75,1.38ZM8.47,404.61c2.22-.31,4.09-.47,5.92-.84a4.14,4.14,0,0,1,3.45.75c2.86,2,5.79,3.87,8.78,5.87l2.52-7.6c-3.78-1.41-7.46-2.69-11-4.19a2.77,2.77,0,0,0-3.43.64C12.76,401,10.72,402.67,8.47,404.61ZM36,358.23,21.43,349l5.3,15.89Zm38.14,40.31c.49.69.94,1.4,1.36,2.13a1.71,1.71,0,0,0,1.77,1c3.21-.05,6.42,0,9.63,0,.4,0,1,0,1.15-.22,1.25-1.55,2.43-3.16,3.68-4.82-2.17-.87-4.15-1.68-6.14-2.44a1.56,1.56,0,0,0-1,0c-3.48,1.35-6.9,2.81-10.44,4.35ZM5.78,409c2.22,2.68,4.25,5.15,6.34,7.56a1.44,1.44,0,0,0,1.26.14c3-1.09,6.07-2.25,9.1-3.39a5.52,5.52,0,0,0,.75-.42L15.84,408a1.34,1.34,0,0,0-.79-.26C12.05,408.11,9.05,408.54,5.78,409Zm71.9-48.36,2.54-14.07-11.51,7.67Zm6.4-11.75-.27.09c-.76,4.17-1.52,8.35-2.31,12.73l8.39-1.19Zm2.82,56.77H77.15v4.13l9.75,1.39ZM53.55,317.48c1.11,3.12,2.11,6,3.13,8.85l8.84-1.11Zm41.36,81.57c-3.86,4.44-4.62,6.46-3.8,10.05l7-5.83Z"/><polygon class="cls-1" points="223.5 285.07 223.5 311.66 246.53 324.97 269.56 311.66 269.56 285.07 246.53 271.78 223.5 285.07"/></svg>