<svg id="Layer_1" data-name="Layer 1" xmlns="http://www.w3.org/2000/svg" viewBox="0 0 500 500"><defs><style>.cls-1{fill:#f3cf81;}.cls-2{fill:#f3c481;}</style></defs><path class="cls-1" d="M453.13,13c7.34,3.13,15.44,5.19,21.89,9.63,14.05,9.69,19.88,24,19.83,41-.11,39.49,0,79,0,118.49v257.5c0,16.94-5.7,31-19.27,41.41-8.94,6.88-19.14,9.85-30.43,9.83q-74.64-.14-149.3,0H257.59c-28.23-.07-48.85-20.17-49.62-48.4-.12-4.2,0-8.4,0-12.6V64.13c0-17.15,5.64-31.66,19.85-41.47,6.45-4.44,14.54-6.5,21.89-9.63Zm17.73,239V64c0-17.62-9.4-27.06-27.07-27.06H259c-17.68,0-27.09,9.43-27.09,27v376c0,17.31,9.48,26.83,26.83,26.83H444a36.06,36.06,0,0,0,8.79-.78c11.39-2.85,18.06-12.16,18.06-25.07Q470.9,346.51,470.86,252Z"/><path class="cls-2" d="M351.47,450.86a23.75,23.75,0,1,1,23.76-23.73h0A23.8,23.8,0,0,1,351.47,450.86Z"/><path class="cls-2" d="M371.11,76.62c-7.46,0-14.91.06-22.37,0-7.9-.08-13.27-5-13.23-11.93,0-6.75,5.33-11.72,12.92-11.77q22.83-.15,45.66,0c7.6,0,12.94,5,13.05,11.69s-5.39,11.93-13.21,12C386.33,76.68,378.72,76.62,371.11,76.62Z"/><path class="cls-2" d="M307.75,76.56a12.23,12.23,0,0,1-12.13-11.65c-.11-6.24,5.46-11.9,11.79-12a12.18,12.18,0,0,1,12.12,11.64A12.22,12.22,0,0,1,307.75,76.56Z"/><path class="cls-2" d="M442.85,266.51l-16,9.19-6.53,3.8c-.07-.76-.16-1.28-.16-1.79V254.54a2.79,2.79,0,0,1,1-2.08c6.88-4.13,13.82-8.16,20.75-12.21a6.49,6.49,0,0,1,.87-.33Z"/><path class="cls-2" d="M307.56,239.77v7.67c0,5.8,0,11.61-.05,17.41a2.84,2.84,0,0,1-1,2.08C299.69,271,292.85,275,286,279a8.8,8.8,0,0,1-1,.42c-.05-.33-.09-.66-.11-1v-24a2.45,2.45,0,0,1,.81-1.83C292.87,248.36,300,244.19,307.56,239.77Z"/><path class="cls-1" d="M256.68,230l16.08-9.44a28.61,28.61,0,0,0,3.84-2.29c2-1.61,3.57-1.24,5.61,0,5.92,3.67,12,7.1,18,10.63.53.31,1,.64,1.78,1.1l-9.64,5.67c-3.92,2.3-7.83,4.61-11.78,6.85a2.47,2.47,0,0,1-2,.26C271.33,238.6,264.1,234.33,256.68,230Z"/><path class="cls-1" d="M369.58,230c-7.44,4.36-14.62,8.59-21.83,12.76a1.72,1.72,0,0,1-1.5,0c-7.26-4.21-14.49-8.46-21.93-12.83,1.4-.84,2.61-1.57,3.83-2.28,5.79-3.41,11.6-6.78,17.37-10.22a2.34,2.34,0,0,1,2.84,0c6.57,3.93,13.19,7.76,19.79,11.63C368.58,229.34,369,229.63,369.58,230Z"/><path class="cls-1" d="M391.89,230c7.49-4.39,14.74-8.65,22-12.87a1.62,1.62,0,0,1,1.33,0c7.27,4.22,14.51,8.47,21.93,12.82-.46.33-.77.59-1.11.79-6.71,3.94-13.42,7.9-20.16,11.78a2.63,2.63,0,0,1-2.12.27C406.52,238.6,399.34,234.35,391.89,230Z"/><path class="cls-1" d="M251.16,239.77l16.06,9.42c1.78,1,3.6,2,5.3,3.15a2.66,2.66,0,0,1,1.13,1.84c.08,8.11.05,16.22,0,24.33a6,6,0,0,1-.13.85c-.53-.26-1-.45-1.38-.69-6.62-3.86-13.24-7.72-19.83-11.65a2.37,2.37,0,0,1-1.14-1.61C251.13,257,251.16,248.57,251.16,239.77Z"/><path class="cls-1" d="M341.36,279.6l-14.51-8.5c-2.31-1.36-4.65-2.66-6.91-4.1a2.42,2.42,0,0,1-1.1-1.66c-.07-8.23,0-16.46,0-24.69a3.53,3.53,0,0,1,.22-.72l8.07,4.73c4.3,2.52,8.62,5,12.88,7.58A2.72,2.72,0,0,1,341.3,254C341.39,262.38,341.36,270.79,341.36,279.6Z"/><path class="cls-2" d="M375.12,239.8c0,7.72-.18,15.07.09,22.41.11,3.14-.78,4.87-3.61,6.36-5.89,3.1-11.54,6.65-17.3,10-.47.28-1,.52-1.6.86-.05-.66-.11-1.13-.11-1.6V254.64a2.71,2.71,0,0,1,.77-2C360.48,248.35,367.63,244.19,375.12,239.8Z"/><path class="cls-1" d="M386.51,239.84c7.34,4.31,14.48,8.49,21.59,12.71a1.86,1.86,0,0,1,.8,1.3V279.3a10.14,10.14,0,0,1-1.3-.48c-6.72-3.93-13.44-7.85-20.12-11.85a2.56,2.56,0,0,1-1.11-1.82c-.07-8.16,0-16.33,0-24.49A5.62,5.62,0,0,1,386.51,239.84Z"/><path class="cls-1" d="M200.9,63.05c-3.7,4.19-6.1,9.38-9.57,10.23-4.29,1-10.16-.34-14.13-2.71-10.58-6.32-19.73-15.52-30.85-20.38C103.94,31.66,64.74,38.26,29.53,68.33c-1.1.94-2.07,2-3.2,2.92C20.35,76,13,75.85,8.4,70.88S4,58.41,9.4,53c17.83-17.75,39-29.75,63.69-34.79C118,9.05,157.81,19.55,191.86,50.46,195.25,53.55,197.37,58,200.9,63.05Z"/><path class="cls-1" d="M175.33,97.54c.31,11.36-9.21,17.71-17.45,13.75a32.38,32.38,0,0,1-6.89-5.14c-28.45-24.92-69.66-24.93-98.11,0-1.08,1-2.09,2-3.22,2.88-6.26,4.87-13.1,4.64-17.83-.55-4.89-5.36-4.7-12.06,1-17.76A93.48,93.48,0,0,1,81.74,64.5c33-6.35,62.4,1.68,87.35,24.49C172.1,91.74,174,95.69,175.33,97.54Z"/><path class="cls-1" d="M154,138.54c-3.46,4-5.8,9.08-9.28,10-4.24,1.15-10.51.24-14-2.34-8.11-6-16.29-10.75-26.57-11.24-11.25-.54-20.88,3.15-29.43,10.36-7.79,6.58-14.47,6.62-19.68.56-5-5.81-3.68-13,3.56-19.57,24.39-22.11,64-21.88,87.56.74C149,129.87,150.82,133.87,154,138.54Z"/></svg>