<svg id="Layer_1" data-name="Layer 1" xmlns="http://www.w3.org/2000/svg" viewBox="0 0 500 500"><defs><style>.cls-1{fill:#fecf81;}.cls-2{fill:#fec481;}</style></defs><path class="cls-1" d="M366.38,264.68V252.5H467.84c12.68,0,20.09,7.4,20.09,20.08V414.84c0,12.9-7.37,20.24-20.32,20.24H216.18c-13.12,0-20.38-7.34-20.38-20.56V273c0-13.21,7.27-20.51,20.42-20.51h101v12.18H216.57c-6.77,0-8.6,1.81-8.6,8.52V414.32c0,6.76,1.82,8.6,8.52,8.6H430.65c6.75,0,8.6-1.83,8.6-8.54V273.26c0-6.75-1.83-8.58-8.54-8.58Zm84.7,0V422.92h15.79c7.2,0,8.89-1.72,8.89-9V273.69c0-1,.06-2,0-3-.33-3.51-2.25-5.78-5.76-5.9-6.35-.23-12.67-.08-18.92-.08Z"/><path class="cls-1" d="M342,69.92H449.25c13.16,0,20.39,7.29,20.4,20.53V207.59c0,13.38-7.26,20.57-20.75,20.57-25,0-49.95.06-74.92-.07-3.22,0-5.23.75-7.05,3.64-6.09,9.63-12.54,19-18.89,28.51-4,6-8.39,6-12.38,0-6.56-9.79-13.15-19.56-19.56-29.44a5.34,5.34,0,0,0-5.22-2.72q-38.22.12-76.44,0c-13.14,0-20.41-7.32-20.41-20.53V90c0-12.87,7.39-20.2,20.35-20.2Q288.21,69.91,342,69.92Zm-.25,177.54c1-1.38,1.76-2.36,2.44-3.38,5.13-7.69,10.38-15.31,15.33-23.12,2.28-3.59,5-5.08,9.36-5.05,26.75.16,53.5.08,80.25.07,6.44,0,8.34-1.91,8.34-8.4V90.44c0-6.45-1.9-8.35-8.39-8.35H234.6c-6.48,0-8.37,1.89-8.37,8.36V207.59c0,6.49,1.89,8.39,8.35,8.39,25.73,0,51.47.24,77.2-.15,6.67-.1,10.79,1.89,14.16,7.63,4.77,8.15,10.37,15.81,15.84,24Z"/><path class="cls-1" d="M302.87,356c-9.14,0-17.75-.05-26.35,0-3.34,0-6.09-.79-7.3-4.18s.49-5.53,2.89-7.56Q310.6,311.77,349,279.19c2.55-2.16,5.21-3.33,8.26-1.32s3.23,5.05,2.09,8.41c-4.65,13.78-9.21,27.6-13.8,41.4-.4,1.18-.73,2.38-1.2,3.95,8.82,0,17.28.05,25.75,0,3.38,0,6.42.39,7.81,4s-.68,5.93-3.25,8.11q-37.92,32-75.77,64.06l-1.14,1c-2.47,2.11-5.17,2.83-8,.86s-3.16-4.59-2.09-7.75c4.58-13.54,9.06-27.12,13.57-40.68C301.78,359.64,302.23,358.07,302.87,356Zm-11.32-12.2c6.94,0,12.82-.05,18.71,0s8.34,3.53,6.57,9c-3,9.13-6.06,18.23-9.09,27.34-.52,1.57-.95,3.16-1.71,5.7l49.31-41.77c-1.11-.18-1.36-.25-1.6-.25h-16c-6.94,0-9.33-3.39-7.12-10q4.59-13.86,9.24-27.7c.36-1.09.64-2.2,1.21-4.19Z"/><path class="cls-2" d="M390.29,288.93H372.48V277c8.45,0,16.9-.29,25.31.23,1.72.11,3.43,3.13,4.79,5,.54.78.15,2.22.15,3.36V402c0,7-1.78,8.74-8.76,8.75H323.84V398.66h66.45Z"/><path class="cls-2" d="M317.34,276.85v12.08h-60.4v109.6h17.79v12.09c-8.43,0-16.88.29-25.29-.23-1.72-.11-3.44-3.12-4.8-5.05-.55-.77-.15-2.22-.15-3.36V285.61c0-7,1.76-8.76,8.74-8.76Z"/><path class="cls-1" d="M220.39,276.93H232v11.81H220.39Z"/><path class="cls-1" d="M415.09,277h11.73v11.8H415.09Z"/><path class="cls-1" d="M220.22,410.43V398.86h11.84v11.57Z"/><path class="cls-1" d="M415.08,410.48V398.77h11.7v11.71Z"/><path class="cls-1" d="M421.18,179.46c-.18,3.51,0,6.47-.54,9.31-1.64,9-9,15-18.35,15-17.62.07-35.24,0-52.86,0h-90.5c-13.22,0-20.52-7.26-20.53-20.4V114.16c0-12.4,7.49-19.93,19.84-19.93H400.08c13.77,0,20.82,7,20.9,20.79v3.56h6.08a18.2,18.2,0,0,1,18.23,18.09c.14,8.11.11,16.23,0,24.34-.13,10.46-7.88,18.18-18.31,18.41C425.13,179.5,423.25,179.46,421.18,179.46ZM329.7,191.64h70.75c6.46,0,8.36-1.91,8.36-8.38V114.8c0-6.47-1.9-8.36-8.38-8.36H258.94c-6.48,0-8.36,1.88-8.36,8.37v68.46c0,6.47,1.89,8.37,8.37,8.37Q294.32,191.66,329.7,191.64Zm91.5-60.85v36.49c2.08,0,4,.1,5.82,0,3.76-.24,6.05-2.51,6.1-6.36.1-8,.12-15.93,0-23.89-.06-3.79-2.44-6-6.25-6.2-1.77-.12-3.54,0-5.67,0Z"/><path class="cls-2" d="M274.66,179.3H262.94V118.91h11.72Z"/><path class="cls-1" d="M207.92,252H172.38V216.41h11.75V170c0-5.09-2.24-7.29-7.39-7.29H155.19c-4.44,0-6.82,2.36-6.84,6.83v15c0,.58.07,1.16.12,1.91h11.67v23.76H5.55V186.53H136.42V184c.08-5.93-.21-11.89.33-17.77a17.33,17.33,0,0,1,17-15.43c7.91-.12,15.81-.06,23.72,0,10.82,0,18.5,7.73,18.52,18.6v47h11.89Z"/><path class="cls-1" d="M5.44,434.74V326.17H160.29V424.9c0,3.29.1,6.58.16,9.87Z"/><path class="cls-2" d="M5.49,317.4V222.45H160.14V317.4Zm59.44-23.69V234.27H53.25v71.22H88.74V293.71ZM100.86,264v41.51h11.59V264Zm0-23.75V252H112.5V240.22Z"/></svg>