<svg id="Layer_1" data-name="Layer 1" xmlns="http://www.w3.org/2000/svg" viewBox="0 0 500 500"><defs><style>.cls-1{fill:#fecf81;}.cls-2{fill:#fec481;}</style></defs><path class="cls-1" d="M8.09,305.46c.4-1.07.84-2.12,1.21-3.19a21.88,21.88,0,0,1,20.2-15.06c6.39-.18,12.79-.06,19.19-.07h4.06c0-7.72-.07-15,0-22.32.25-17.82,12-32.48,29.34-36.34a48.2,48.2,0,0,1,10.38-1c27.33-.08,54.66,0,82,0h4.47V196.78c-18-6-24-21.83-21.35-34.94a29.78,29.78,0,0,1,58.32,0c2.54,12.37-2.73,28.59-21.66,35v27.42c0,.9.09,1.8.17,3.1h87.65c17.56,0,31.64,9.83,36.66,25.75a51.46,51.46,0,0,1,1.91,13c.3,6.81.08,13.65.08,20.88,7.29,0,14.25-.28,21.18.11a30,30,0,0,1,11.38,2.51c7.84,3.83,12,10.64,12,19.37q.24,33.67,0,67.34c-.07,12.67-9.81,22.07-22.89,22.29-7.08.13-14.17,0-21.73,0,0,3.64,0,7.09,0,10.54-.11,5.68.28,11.46-.56,17-2.88,19-18,31.84-37.27,31.89-31.51.08-63,0-94.55,0q-48.84,0-97.69,0c-18,0-33-11.51-36.73-28.77-1.34-6.27-.88-12.93-1.13-19.42-.14-3.58,0-7.17,0-11.28H43.62c-4.19,0-8.37.06-12.56,0-11.26-.2-19.33-6.52-22.38-17.41a7.83,7.83,0,0,0-.59-1.24Zm178.85-63c-31.62,0-63.25.29-94.87-.14-13.85-.18-24.66,9.77-24.59,24.65.25,50.58.09,101.16.1,151.74,0,15.49,9.24,24.71,24.75,24.72H281c15.68,0,24.84-9.21,24.84-25,0-50.35-.18-100.7.11-151,.09-14.85-10.19-25.35-25.22-25.11-31.23.51-62.51.16-93.79.16ZM52.64,302H32.5c-7,0-9.58,2.61-9.58,9.74v49.84c0,4.53-.05,9.06,0,13.59.09,5.82,2.8,8.54,8.54,8.64H52.64ZM321,302v81.75h20.09c6.93,0,9.47-2.54,9.48-9.46V310.51c0-4.88-2.44-8.26-6.56-8.42C336.33,301.84,328.69,302,321,302ZM201.53,167.94a14.8,14.8,0,1,0-14.77,14.84,14.65,14.65,0,0,0,14.77-14.53Z"/><path class="cls-1" d="M142,287.16a22.25,22.25,0,0,1,22.39,22.11v.16a22.32,22.32,0,1,1-22.55-22.27Zm.14,29.58a7.43,7.43,0,1,0-.18,0Z"/><path class="cls-1" d="M253.71,309.26a22.33,22.33,0,0,1-44.65,1.06c0-.32,0-.63,0-.94a22.33,22.33,0,0,1,44.65-.12Zm-22.46,7.48a7.42,7.42,0,0,0,7.58-7.24v-.14a7.44,7.44,0,1,0-7.58,7.38Z"/><path class="cls-2" d="M186.87,398.75a90.05,90.05,0,0,1-39.51-9.2c-4.75-2.35-6.49-6.42-4.49-10.45s6.14-5.21,10.76-3c22.22,10.45,44.38,10.32,66.56-.14,4.33-2,8.56-.64,10.41,3.2s.36,8-3.93,10.14A89.13,89.13,0,0,1,186.87,398.75Z"/><path class="cls-1" d="M272,172.62H480.28c10.3,0,13.17,2.85,13.17,13.09,0,4.11.12,8.23-.13,12.33-.32,5.27-3.67,8.54-8.92,9.07-1.41.14-2.83.13-4.25.13H252.6c-9.48-.3-15-5.76-15.14-15.22-.11-7.37,0-14.75,0-22.12V56.32c0-10.26,2.94-13.22,13.09-13.24,3.82,0,7.66-.11,11.48.06,6.43.29,9.9,3.81,10,10.23.13,7.23,0,14.47,0,21.7v97.55ZM247.61,53.52V189.19c0,7.4.46,7.84,8.07,7.84H482.93v-14.2H273.39c-9.58,0-11.58-2-11.58-11.39V53.52Z"/><path class="cls-1" d="M405.22,80.3V72.2c0-3.21,1.72-5.18,4.9-5.26s5,1.93,5.2,5c.19,2.67,0,5.36,0,8.23,1.24.22,2.17.42,3.11.53,5.42.65,9,4.1,9,9.45q.21,18.51,0,37c-.08,6-3.48,8.66-12.11,10,0,2.41.07,4.92,0,7.42-.12,3.43-1.71,5.93-5.35,5.82-3.37-.11-4.87-2.46-4.84-5.8v-7.38l-3.51-.6c-5.45-1-8.74-4.31-8.81-9.8q-.27-18.3,0-36.59c.1-5.66,3.66-9,9.39-9.6A20.89,20.89,0,0,0,405.22,80.3Zm11.94,46.16V91.28H403.35v35.18Z"/><path class="cls-2" d="M363.19,117.4c0,2.54.07,5.21,0,7.86-.11,3.14-1.66,5.17-4.94,5.23s-4.94-1.93-5.13-5c-.17-2.66,0-5.35,0-8.19-1.32-.21-2.26-.4-3.21-.52-5.38-.65-9-4.12-9-9.5-.15-12.33-.18-24.67,0-37,.09-6,3.63-8.75,12.17-10v-7.4c.09-3.43,1.6-5.93,5.29-5.84,3.43.09,4.85,2.5,4.88,5.77v7.44c1.33.2,2.4.35,3.46.53,5.37.91,8.76,4.39,8.83,9.81.15,12.19.19,24.38,0,36.57C375.38,113.18,372.42,115.48,363.19,117.4Zm-12.11-11.17h14v-35h-14Z"/><path class="cls-1" d="M311.08,147.27v7.41c0,3.34-1.46,5.62-4.88,5.7-3.66.08-5.24-2.34-5.31-5.8-.06-2.5,0-5,0-7.4-10.39-1.84-12.14-4-12.14-14.16V104.56c0-10.52,1.58-12.47,12.14-14.58V82.92c0-3.43,1.5-6,5.1-6s5.18,2.39,5.11,5.92v7.29l3.19.51c5.76,1,9,4.17,9.12,9.92q.31,18.06,0,36.11C323.28,143.05,320.48,145.28,311.08,147.27ZM313,101H299.31v35.23H313Z"/><path class="cls-2" d="M457.29,151.9c-10.73-2-12.35-4-12.35-14.83V108.16c0-9.35,2.48-12.12,12.35-13.26V87.11c0-3.35,1.55-5.52,5-5.56s5,2.21,5.17,5.48c.1,2.53,0,5.06,0,7.82,1.22.17,2.16.32,3.1.43,5.44.62,8.91,4,9,9.48q.19,18.49,0,37c-.08,6.14-3.6,9-12.07,9.94,0,2.55.08,5.19,0,7.82-.12,3.28-1.76,5.56-5.16,5.52s-5-2.23-5-5.6Zm11.84-11V105.73H455.54v35.21Z"/></svg>