<svg id="Layer_1" data-name="Layer 1" xmlns="http://www.w3.org/2000/svg" viewBox="0 0 500 500"><defs><style>.cls-1{fill:#fecf81;}.cls-2{fill:none;}.cls-2,.cls-3{stroke:#f3c481;stroke-miterlimit:10;}.cls-3{fill:#a7a7a7;}</style></defs><path class="cls-1" d="M244.84,487.36c-4.43-2.12-5.13-5.94-5.12-10.39q.1-51,0-102V369.3H224V389c0,3.38.1,6.78-.15,10.15-.3,4.06-3.22,6.93-6.8,6.67-3.83-.28-6.47-2.41-6.64-6.37-.29-6.76-.2-13.53-.25-20.29v-9.86H194.64c-.1,1.33-.28,2.65-.29,4v53.07c0,2.57.63,4,3.12,5.34a21.33,21.33,0,0,1,11.06,24.5,21.66,21.66,0,0,1-41.87.47c-2.74-9.91,1.56-19.67,10.81-25.13,1.32-.78,2.92-2.54,2.93-3.86.16-19.07.07-38.15,0-57.22a9.49,9.49,0,0,0-.65-1.78c-5.42,0-11.22.26-17-.05-18.52-1-34.18-16.32-34.07-38.25V317.91c-8.64,0-17-.36-25.33.22-2.52.18-5.21,2.59-7.22,4.58Q74.91,343.58,54,364.81a6.21,6.21,0,0,0-1.4,5c3.27,12.2-2.37,23.78-13.71,27.52-11.65,3.86-23.31-2.13-27.61-14.16a16.22,16.22,0,0,0-1-2V372a7.35,7.35,0,0,0,1-1.41c4.83-12.53,15.16-17.67,28-14.23,1.43.39,3.8-.5,4.93-1.61C57.27,341.93,70.46,329.21,83,315.91c8.55-9.05,18.33-13.52,30.75-12.58,4.83.37,9.71.06,14.56.06V287.57h-5.25c-7.54,0-15.08.08-22.61,0-5.5-.08-8.65-2.7-8.7-6.87s3.13-6.8,8.57-6.93c3.53-.09,7.07,0,10.61,0h17.39V257.93H20.7c-4.43,0-8.29-.63-10.38-5.12v-3.69c2.09-4.49,6-5.13,10.38-5.12q51,.1,102,0h5.69V228.27H108.68c-3.39,0-6.78.1-10.15-.15-4.07-.3-6.93-3.22-6.67-6.8.27-3.83,2.41-6.46,6.36-6.64,6.45-.29,12.91-.21,19.37-.26h10.78V199c-1.32-.1-2.64-.29-4-.29q-26.53,0-53.07-.06c-2.57,0-4,.63-5.35,3.12a21.33,21.33,0,0,1-24.45,11,21.67,21.67,0,0,1-.5-41.88c9.91-2.74,19.67,1.58,25.15,10.8.83,1.39,2.83,2.93,4.31,2.95,18.61.19,37.22.12,55.84.1a23.27,23.27,0,0,0,2.35-.32c0-4.3-.14-8.56,0-12.8a64.12,64.12,0,0,1,1.14-10.52c.86-4.07,4.16-6.32,7.73-5.62,4.11.79,5.8,3.45,5.77,7.61q-.47,83.26-.81,166.55c0,12.39,5.7,21.16,16,24.2a35,35,0,0,0,9.54,1.26q78.47.11,156.91,0c2.91,0,5.81-.54,8.72-.72,5-.31,7.93,1.71,8.54,5.71s-2,7.39-7,8-10.41.66-15.63.89c-2,.09-4,0-6.14,0,0,8.52-.36,16.76.21,24.93.17,2.55,2.45,5.31,4.43,7.32q21,21.38,42.44,42.4a6.14,6.14,0,0,0,5,1.31c12.39-3.28,24.07,2.61,27.67,14.21s-2.54,23-14.79,27.28a10.07,10.07,0,0,0-1.52.89h-8.31a6.09,6.09,0,0,0-1.17-.71c-13.49-4.52-18.92-14.77-15.38-28.47.37-1.41-.59-3.74-1.71-4.88-13.49-13.69-27-27.35-40.75-40.79-7.25-7.1-10.94-15.35-10.55-25.53.22-5.8,0-11.61,0-17.63H283.46c-.07,1.68-.18,3-.19,4.4,0,8.15.11,16.3-.09,24.45-.13,4.78-3,7.69-6.9,7.68s-6.64-3-6.81-7.72c-.16-4.3-.05-8.61-.06-12.92v-15.9H253.62V476.94c0,4.45-.69,8.26-5.12,10.38ZM32.1,369.1a7.88,7.88,0,0,0-7.86,7.9h0A8.21,8.21,0,0,0,32,384.67a8.08,8.08,0,0,0,7.82-8A7.81,7.81,0,0,0,32.1,369.1Zm348.27,96.59a8.12,8.12,0,0,0-7.56-7.84,7.8,7.8,0,0,0-.59,15.58A8.17,8.17,0,0,0,380.37,465.69ZM46.65,199.47a7.73,7.73,0,0,0,8-7.46v-.25A7.88,7.88,0,0,0,47.06,184a8,8,0,0,0-8,7.78A7.82,7.82,0,0,0,46.65,199.47ZM187.37,458.65a7.78,7.78,0,0,0,7.78-7.48,7.7,7.7,0,0,0-7.28-8.1h-.29a7.85,7.85,0,0,0-7.85,7.44A8,8,0,0,0,187.37,458.65Z"/><path class="cls-1" d="M224,132.73h15.79V26.13a35.45,35.45,0,0,1,.39-6,6.65,6.65,0,0,1,13-.05,31.69,31.69,0,0,1,.39,6V132.6h15.79V108.21a49.5,49.5,0,0,1,.3-6.44c.49-3.61,3-5.43,6.36-5.55s6.13,1.58,6.66,5.14a77.79,77.79,0,0,1,.51,10.57c.07,6.76,0,13.52,0,20.66h15.4a27.07,27.07,0,0,0,.35-3.12q0-27,.08-54c0-2.73-1-4-3.31-5.24A21.32,21.32,0,0,1,285,45.62a21.64,21.64,0,0,1,41.85-.1c2.59,9.82-1.64,19.48-10.65,24.8-1.35.8-3.12,2.47-3.13,3.75-.2,19.38-.14,38.76-.14,59.29,6.13,0,12.07-.29,18,0,18.21,1,33.86,16.14,33.85,38v13c8.38,0,16.35.38,24.24-.21,2.72-.21,5.71-2.39,7.81-4.45,14.39-14.11,28.53-28.48,42.87-42.64,1.89-1.87,1.76-3.39,1.06-5.68a21.59,21.59,0,1,1,41.32-12.53l.18.62a21.13,21.13,0,0,1-14.48,26.14q-.45.13-.9.24a23.65,23.65,0,0,1-11.28-.15c-3.25-.87-5-.17-7.12,2-13.31,13.46-26.85,26.68-40.07,40.22-7.22,7.39-15.61,11.12-26,10.69-5.65-.24-11.33,0-17.33,0v15.77h25.46c7.53,0,11,2.15,11,6.87s-3.38,7-10.84,7H365.07V244H471.75a33.84,33.84,0,0,1,5.51.33,6.66,6.66,0,0,1,.13,13.15,38.82,38.82,0,0,1-6,.35H365v15.79h6.64c7.38,0,14.77-.09,22.15.06,4.77.1,7.73,2.88,7.75,6.79s-2.89,6.78-7.68,6.91c-7.69.21-15.39.08-23.08.09H365v15.77h12.6c14.62,0,29.24-.06,43.86.06,2.9,0,4.59-.65,6.08-3.46a21.22,21.22,0,0,1,24.23-10.76,21.67,21.67,0,0,1,.61,41.88,21.41,21.41,0,0,1-24.8-10.42c-1.22-2.18-2.23-3.54-5.12-3.52-18.15.16-36.31.08-54.46.09-.9,0-1.8.13-3.32.24,0,4.52.13,8.93-.05,13.33a61.82,61.82,0,0,1-1.11,10.06c-.85,4-4.2,6.41-7.69,5.7-4-.82-5.86-3.39-5.84-7.59q.47-83.05.85-166.12c.05-7.7-1.71-14.6-7.64-20-4.7-4.27-10.32-6-16.5-6H167c-2.76,0-5.5.57-8.26.76-4.17.28-6.81-1.66-7.58-5.76-.7-3.71,1.75-7.27,6.1-7.81,5.92-.74,11.94-.77,17.92-1.06,1.52-.08,3,0,4.73,0,0-8.54.36-16.78-.21-25-.17-2.54-2.46-5.29-4.44-7.3C161.26,86.45,147,72.38,133,58.18c-1.76-1.78-3.2-2.07-5.63-1.3a21.26,21.26,0,0,1-25.1-9.51A21.66,21.66,0,0,1,132,17.74a21.29,21.29,0,0,1,9.44,25.14c-.88,2.72-.18,4.15,1.61,5.93,13.44,13.32,26.65,26.89,40.24,40.05C191.1,96.41,195,105.15,194.44,116c-.28,5.48,0,11,0,16.71h15.77V109.2a53.39,53.39,0,0,1,.18-6.45c.5-4.07,3.41-6.73,7-6.63a6.79,6.79,0,0,1,6.58,7c.22,8,.11,16,.14,24ZM128.58,36.19a7.9,7.9,0,0,0-7.66-7.64,8.13,8.13,0,0,0-7.89,8,8.1,8.1,0,0,0,7.77,7.62,7.84,7.84,0,0,0,7.78-7.9Zm332.67,96.7a7.87,7.87,0,0,0,7.89-7.85v0a8.21,8.21,0,0,0-7.74-7.7,8.1,8.1,0,0,0-7.86,8A7.82,7.82,0,0,0,461.25,132.89ZM313.68,51A8.06,8.06,0,0,0,306,43.35a7.79,7.79,0,0,0-.1,15.58A7.89,7.89,0,0,0,313.68,51ZM454.33,310.3a7.79,7.79,0,0,0-15.58-.18h0a7.87,7.87,0,0,0,7.46,7.84A8,8,0,0,0,454.33,310.3Z"/><g id="Layer_2" data-name="Layer 2"><g id="Layer_1-2" data-name="Layer 1-2"><polygon class="cls-2" points="314.51 204.42 314.76 282.24 247.5 321.36 179.98 282.68 179.72 204.86 246.99 165.73 314.51 204.42"/><polygon class="cls-2" points="292.13 217.43 292.3 269.37 247.41 295.48 202.35 269.66 202.18 217.73 247.07 191.61 292.13 217.43"/><path class="cls-2" d="M276.47,269.38l-.84.52-5.79,3.38Z"/><polygon class="cls-2" points="248.28 192.31 202.19 219.35 202.19 218.95 247.93 192.1 248.28 192.31"/><polygon class="cls-2" points="249.51 193 202.19 220.78 202.19 220.37 249.16 192.81 249.51 193"/><polygon class="cls-2" points="250.74 193.71 202.19 222.2 202.19 221.79 250.38 193.5 250.74 193.71"/><polygon class="cls-2" points="251.96 194.41 202.2 223.62 202.2 223.2 251.6 194.21 251.96 194.41"/><polygon class="cls-2" points="253.19 195.12 202.2 225.04 202.2 224.63 252.83 194.91 253.19 195.12"/><polygon class="cls-2" points="254.41 195.81 202.21 226.45 202.21 226.05 254.06 195.61 254.41 195.81"/><path class="cls-2" d="M215.66,219.58a9.12,9.12,0,0,0-.95,1l-12.5,7.34v-.41Z"/><path class="cls-2" d="M255.64,196.52,242.89,204a11.58,11.58,0,0,0-1.42.42l13.82-8.11Z"/><path class="cls-2" d="M213.22,222.43c-.15.23-.3.44-.44.67l-10.57,6.2v-.41Z"/><path class="cls-2" d="M256.87,197.22l-10.7,6.27a2.86,2.86,0,0,0-.82.08L256.5,197Z"/><path class="cls-2" d="M212,224.6l-.27.56-9.46,5.55v-.4Z"/><path class="cls-2" d="M258.09,197.93l-9.54,5.6-.63-.05,9.81-5.76Z"/><path class="cls-2" d="M211.15,226.48,211,227l-8.75,5.15v-.42Z"/><path class="cls-2" d="M259.31,198.63l-8.8,5.16-.53-.1,9-5.27Z"/><path class="cls-2" d="M210.64,228.2a2.08,2.08,0,0,1-.11.48l-8.3,4.89v-.42Z"/><path class="cls-2" d="M260.54,199.33l-8.32,4.88-.47-.13,8.44-5Z"/><path class="cls-2" d="M210.33,229.8l-.06.46-8,4.71v-.42Z"/><path class="cls-2" d="M261.77,200l-8,4.72-.42-.17,8.1-4.75Z"/><path class="cls-2" d="M210.18,231.32v.42l-7.92,4.65V236Z"/><path class="cls-2" d="M263,200.74l-7.9,4.63-.38-.19,7.92-4.65Z"/><polygon class="cls-2" points="210.15 232.75 210.15 233.17 202.24 237.81 202.24 237.4 210.15 232.75"/><polygon class="cls-2" points="264.22 201.44 256.35 206.05 255.99 205.86 263.87 201.23 264.22 201.44"/><polygon class="cls-2" points="210.16 234.18 210.16 234.58 202.25 239.23 202.25 238.82 210.16 234.18"/><polygon class="cls-2" points="265.44 202.13 257.57 206.76 257.22 206.56 265.1 201.94 265.44 202.13"/><polygon class="cls-2" points="210.17 236.01 202.26 240.65 202.25 240.24 210.16 235.59 210.17 236.01"/><polygon class="cls-2" points="266.67 202.84 258.8 207.46 258.44 207.26 266.32 202.64 266.67 202.84"/><polygon class="cls-2" points="210.17 237.01 210.17 237.43 202.26 242.07 202.26 241.66 210.17 237.01"/><polygon class="cls-2" points="267.9 203.54 260.02 208.17 259.67 207.96 267.54 203.34 267.9 203.54"/><polygon class="cls-2" points="210.17 238.43 210.17 238.84 202.26 243.49 202.26 243.07 210.17 238.43"/><polygon class="cls-2" points="269.12 204.25 261.25 208.86 260.89 208.67 268.77 204.04 269.12 204.25"/><polygon class="cls-2" points="210.17 239.85 210.17 240.27 202.27 244.9 202.26 244.5 210.17 239.85"/><polygon class="cls-2" points="270.35 204.95 262.47 209.57 262.12 209.36 269.99 204.75 270.35 204.95"/><polygon class="cls-2" points="210.18 241.28 210.18 241.68 202.27 246.33 202.27 245.92 210.18 241.28"/><polygon class="cls-2" points="271.57 205.65 263.7 210.27 263.35 210.07 271.22 205.45 271.57 205.65"/><polygon class="cls-2" points="210.19 242.69 210.19 243.1 202.28 247.75 202.28 247.34 210.19 242.69"/><polygon class="cls-2" points="272.8 206.35 264.92 210.98 264.57 210.77 272.44 206.15 272.8 206.35"/><polygon class="cls-2" points="210.19 244.12 210.19 244.52 202.28 249.16 202.28 248.76 210.19 244.12"/><polygon class="cls-2" points="274.02 207.06 266.16 211.68 265.8 211.47 273.67 206.85 274.02 207.06"/><polygon class="cls-2" points="210.19 245.54 210.19 245.94 202.28 250.59 202.28 250.18 210.19 245.54"/><polygon class="cls-2" points="275.25 207.76 267.38 212.38 267.02 212.18 274.9 207.56 275.25 207.76"/><polygon class="cls-2" points="210.2 247.37 202.29 252.01 202.29 251.59 210.19 246.95 210.2 247.37"/><polygon class="cls-2" points="276.48 208.46 268.6 213.08 268.25 212.88 276.12 208.26 276.48 208.46"/><polygon class="cls-2" points="210.2 248.37 210.2 248.78 202.29 253.43 202.29 253.01 210.2 248.37"/><polygon class="cls-2" points="277.71 209.16 269.83 213.79 269.48 213.58 277.35 208.97 277.71 209.16"/><polygon class="cls-2" points="210.21 249.79 210.21 250.2 202.3 254.85 202.3 254.43 210.21 249.79"/><polygon class="cls-2" points="278.93 209.87 271.06 214.49 270.7 214.28 278.57 209.67 278.93 209.87"/><polygon class="cls-2" points="210.22 251.62 202.31 256.26 202.31 255.84 210.21 251.21 210.22 251.62"/><polygon class="cls-2" points="280.15 210.57 272.29 215.19 271.93 214.99 279.81 210.36 280.15 210.57"/><polygon class="cls-2" points="210.22 252.63 210.22 253.04 202.31 257.69 202.31 257.27 210.22 252.63"/><polygon class="cls-2" points="281.38 211.28 273.51 215.89 273.15 215.69 281.03 211.07 281.38 211.28"/><polygon class="cls-2" points="210.22 254.04 210.22 254.46 202.31 259.1 202.31 258.69 210.22 254.04"/><polygon class="cls-2" points="282.61 211.98 274.74 216.59 274.38 216.39 282.25 211.77 282.61 211.98"/><path class="cls-2" d="M210.25,255.87l-7.93,4.65v-.42l7.92-4.64C210.24,255.59,210.24,255.73,210.25,255.87Z"/><path class="cls-2" d="M283.83,212.68,276,217.3l-.35-.21,7.87-4.62Z"/><path class="cls-2" d="M210.38,257.19l-8.06,4.73v-.4l8-4.7C210.34,257,210.36,257.07,210.38,257.19Z"/><path class="cls-2" d="M285.05,213.37l-8,4.68-.32-.22,7.93-4.66Z"/><path class="cls-2" d="M210.59,258.49l-8.26,4.85v-.42l8.19-4.8C210.54,258.24,210.57,258.37,210.59,258.49Z"/><path class="cls-2" d="M286.28,214.08l-8.18,4.79-.28-.25,8.1-4.75Z"/><path class="cls-2" d="M210.91,259.72l-8.57,5v-.41l8.47-5A2.73,2.73,0,0,0,210.91,259.72Z"/><path class="cls-2" d="M287.49,214.77l-8.45,5a2.16,2.16,0,0,0-.27-.25l8.36-4.91Z"/><path class="cls-2" d="M211.29,260.91l-8.95,5.26v-.42l8.84-5.18A3.38,3.38,0,0,0,211.29,260.91Z"/><path class="cls-2" d="M288.71,215.47l-8.81,5.17c-.07-.09-.15-.17-.24-.27l8.69-5.1Z"/><path class="cls-2" d="M211.75,262.05l-9.41,5.53v-.41l9.27-5.45C211.65,261.83,211.7,261.94,211.75,262.05Z"/><path class="cls-2" d="M289.92,216.17l-9.24,5.43a3.11,3.11,0,0,0-.23-.28l9.1-5.35Z"/><path class="cls-2" d="M212.29,263.15,202.35,269v-.4l9.78-5.74A2.69,2.69,0,0,0,212.29,263.15Z"/><path class="cls-2" d="M291.15,216.87l-9.76,5.73a3,3,0,0,0-.2-.29l9.6-5.64Z"/><path class="cls-2" d="M212.9,264.21,203,270l-.35-.2,10.09-5.92A2.53,2.53,0,0,0,212.9,264.21Z"/><path class="cls-2" d="M292.13,217.43v.28L282,223.64a3.07,3.07,0,0,0-.17-.31l10.17-6Z"/><path class="cls-2" d="M213.59,265.22l-9.38,5.51-.35-.21,9.53-5.59C213.45,265,213.52,265.12,213.59,265.22Z"/><path class="cls-2" d="M292.14,218.72v.41l-9.56,5.6c0-.1-.1-.22-.15-.32Z"/><path class="cls-2" d="M214.36,266.19l-8.92,5.24-.35-.2,9-5.32A1.79,1.79,0,0,0,214.36,266.19Z"/><path class="cls-2" d="M292.14,220.14v.41l-9.06,5.32c-.05-.11-.09-.23-.14-.33Z"/><path class="cls-2" d="M215.19,267.12l-8.54,5-.35-.2,8.65-5.08A2.09,2.09,0,0,0,215.19,267.12Z"/><path class="cls-2" d="M292.14,221.54V222l-8.64,5a1,1,0,0,0-.13-.35Z"/><path class="cls-2" d="M216.11,268l-8.24,4.84-.35-.21,8.32-4.88Z"/><path class="cls-2" d="M292.15,223v.42l-8.34,4.89a2.37,2.37,0,0,0-.09-.36Z"/><path class="cls-2" d="M217.11,268.82l-8,4.7-.35-.19,8.08-4.75Z"/><path class="cls-2" d="M292.15,224.36v.42l-8.09,4.75a.72.72,0,0,0-.07-.38Z"/><path class="cls-2" d="M218.21,269.59l-7.9,4.64L210,274l7.92-4.65Z"/><path class="cls-2" d="M292.16,225.78v.41l-8,4.67v-.39Z"/><path class="cls-2" d="M292.17,227.2v.4l-7.91,4.64v-.41Z"/><polygon class="cls-2" points="292.17 228.61 292.17 229.01 284.27 233.65 284.26 233.25 292.17 228.61"/><polygon class="cls-2" points="292.17 230.02 292.17 230.43 284.27 235.07 284.27 234.66 292.17 230.02"/><polygon class="cls-2" points="223.07 272.4 215.19 277.02 214.84 276.82 222.71 272.2 223.07 272.4"/><polygon class="cls-2" points="292.18 231.84 284.28 236.48 284.28 236.07 292.17 231.43 292.18 231.84"/><polygon class="cls-2" points="224.29 273.11 216.42 277.72 216.42 277.72 216.06 277.52 223.94 272.9 224.29 273.11"/><polygon class="cls-2" points="292.18 232.85 292.18 233.25 284.29 237.89 284.28 237.49 292.18 232.85"/><polygon class="cls-2" points="225.51 273.8 217.64 278.42 217.63 278.42 217.28 278.22 225.15 273.6 225.16 273.6 225.51 273.8"/><polygon class="cls-2" points="292.19 234.26 292.19 234.67 284.29 239.31 284.29 238.89 292.19 234.26"/><polygon class="cls-2" points="226.73 274.5 218.86 279.12 218.51 278.92 226.38 274.3 226.73 274.5"/><polygon class="cls-2" points="292.19 236.08 284.29 240.72 284.29 240.31 292.19 235.67 292.19 236.08"/><polygon class="cls-2" points="227.95 275.2 220.09 279.82 220.08 279.82 219.72 279.62 227.6 275 227.95 275.2"/><polygon class="cls-2" points="292.19 237.09 292.19 237.49 284.29 242.13 284.29 241.72 292.19 237.09"/><polygon class="cls-2" points="229.17 275.9 221.3 280.52 220.96 280.32 228.82 275.7 229.17 275.9"/><polygon class="cls-2" points="292.2 238.5 292.2 238.91 284.3 243.55 284.3 243.14 292.2 238.5"/><polygon class="cls-2" points="230.39 276.6 222.53 281.22 222.17 281.01 230.04 276.4 230.39 276.6"/><polygon class="cls-2" points="292.21 240.32 284.31 244.96 284.3 244.55 292.2 239.91 292.21 240.32"/><polygon class="cls-2" points="231.62 277.3 223.74 281.92 223.39 281.71 231.25 277.1 231.62 277.3"/><polygon class="cls-2" points="292.21 241.32 292.21 241.74 284.31 246.38 284.31 245.96 292.21 241.32"/><polygon class="cls-2" points="232.83 278 224.96 282.62 224.61 282.42 232.48 277.8 232.83 278"/><polygon class="cls-2" points="292.21 242.73 292.21 243.15 284.31 247.78 284.31 247.37 292.21 242.73"/><polygon class="cls-2" points="234.06 278.69 226.18 283.32 225.84 283.11 233.7 278.5 234.06 278.69"/><polygon class="cls-2" points="292.22 244.56 284.32 249.2 284.31 248.79 292.21 244.16 292.22 244.56"/><polygon class="cls-2" points="235.28 279.4 227.41 284.02 227.05 283.82 234.92 279.19 235.28 279.4"/><polygon class="cls-2" points="292.22 245.56 292.22 245.98 284.32 250.62 284.32 250.2 292.22 245.56"/><polygon class="cls-2" points="236.5 280.1 228.62 284.72 228.27 284.51 236.14 279.9 236.5 280.1"/><polygon class="cls-2" points="292.23 246.97 292.23 247.39 284.33 252.03 284.33 251.61 292.23 246.97"/><polygon class="cls-2" points="237.72 280.8 229.85 285.42 229.5 285.21 237.36 280.6 237.72 280.8"/><polygon class="cls-2" points="292.23 248.4 292.23 248.8 284.33 253.44 284.33 253.03 292.23 248.4"/><path class="cls-2" d="M238.94,281.49l-7.87,4.62-.36-.19,7.87-4.63h0Z"/><polygon class="cls-2" points="292.24 249.8 292.24 250.22 284.34 254.85 284.34 254.44 292.24 249.8"/><path class="cls-2" d="M240.25,282.14l-8,4.68-.36-.21,7.92-4.65Z"/><path class="cls-2" d="M292.24,251.22v.41l-8,4.69v-.43Z"/><path class="cls-2" d="M241.7,282.71l-8.19,4.81-.35-.21,8.11-4.76Z"/><path class="cls-2" d="M292.24,252.63V253l-8.17,4.8a3.5,3.5,0,0,1,.07-.45Z"/><path class="cls-2" d="M243.33,283.18l-8.6,5.05-.35-.21,8.45-5A4.16,4.16,0,0,1,243.33,283.18Z"/><path class="cls-2" d="M292.25,254.05v.41l-8.57,5a3.94,3.94,0,0,0,.14-.49Z"/><path class="cls-2" d="M245.17,283.5,236,288.91l-.37-.2,9-5.29Z"/><path class="cls-2" d="M292.26,255.45v.42l-9.17,5.38c.07-.18.14-.36.2-.54Z"/><path class="cls-2" d="M247.37,283.63l-10.19,6-.36-.21,9.86-5.79Z"/><path class="cls-2" d="M292.26,256.88v.41l-10.09,5.91.31-.59Z"/><path class="cls-2" d="M250.19,283.39l-11.79,6.92-.36-.2,11.23-6.6A7,7,0,0,0,250.19,283.39Z"/><path class="cls-2" d="M292.26,258.28v.42l-11.62,6.82c.2-.24.37-.48.55-.73Z"/><path class="cls-2" d="M269.32,273.57,239.62,291l-.35-.2,14-8.22h0a17.89,17.89,0,0,0,2.84-1.33Z"/><path class="cls-2" d="M292.27,259.7v.41l-15.79,9.27a18.09,18.09,0,0,0,2.14-1.67h0Z"/><polygon class="cls-2" points="292.27 261.11 292.27 261.52 240.84 291.71 240.48 291.51 292.27 261.11"/><polygon class="cls-2" points="292.28 262.52 292.28 262.93 242.06 292.41 241.7 292.21 292.28 262.52"/><polygon class="cls-2" points="292.29 264.35 243.28 293.11 242.93 292.91 292.28 263.94 292.29 264.35"/><polygon class="cls-2" points="292.29 265.35 292.29 265.76 244.5 293.81 244.14 293.6 292.29 265.35"/><polygon class="cls-2" points="292.29 266.76 292.29 267.17 245.72 294.51 245.36 294.31 292.29 266.76"/><polygon class="cls-2" points="292.3 268.59 246.94 295.21 246.58 295 292.29 268.18 292.3 268.59"/><polygon class="cls-2" points="294.91 215.82 295.09 270.96 247.42 298.69 199.58 271.27 199.4 216.13 247.06 188.4 294.91 215.82"/><polygon class="cls-2" points="297.38 214.38 297.57 272.39 247.43 301.56 197.1 272.72 196.91 214.71 247.05 185.54 297.38 214.38"/><polygon class="cls-2" points="300.2 212.74 300.4 274.01 247.44 304.81 194.28 274.35 194.08 213.09 247.04 182.28 300.2 212.74"/><polygon class="cls-2" points="302.88 211.18 303.09 275.55 247.45 307.91 191.61 275.91 191.4 211.55 247.03 179.18 302.88 211.18"/><polygon class="cls-2" points="305.99 209.37 306.21 277.33 247.46 311.51 188.5 277.72 188.28 209.76 247.02 175.59 305.99 209.37"/><polygon class="cls-2" points="308.76 207.76 308.99 278.93 247.47 314.71 185.73 279.33 185.5 208.17 247.01 172.38 308.76 207.76"/><polygon class="cls-2" points="311.57 206.13 311.81 280.55 247.49 317.97 182.91 280.97 182.67 206.55 247 169.13 311.57 206.13"/><rect class="cls-2" x="282.93" y="250.25" width="1.18" height="0.4"/><rect class="cls-2" x="282.93" y="245.61" width="1.76" height="0.4"/><rect class="cls-2" x="282.93" y="248.7" width="1.44" height="0.4"/><rect class="cls-2" x="282.93" y="247.16" width="1.63" height="0.4"/><rect class="cls-3" x="241.97" y="239.41" width="11.03" height="11.03"/><rect class="cls-1" x="227.98" y="225.42" width="39.01" height="39.01"/><rect class="cls-2" x="223.43" y="220.87" width="48.11" height="48.11"/></g></g></svg>