<svg id="Layer_1" data-name="Layer 1" xmlns="http://www.w3.org/2000/svg" viewBox="0 0 500 500"><defs><style>.cls-1{fill:#fecf81;}.cls-2{fill:#fec481;}</style></defs><path class="cls-1" d="M179.38,487.83c-5.5-4.6-5.65-7.9-.53-13q26.4-26.42,52.86-52.76a9.08,9.08,0,0,0,2.88-7.11q-.15-44.7,0-89.41c0-7.45,2-9.49,9.35-9.5h16.84V283.32a44.18,44.18,0,0,1-4.74-.61c-3.79-.88-4.79-3.88-5.34-7.23-1.18-7.38-2.38-14.75-3.68-22.11-.69-3.89-3.6-5.54-7.24-4.22-5.33,1.94-10.6,4-15.95,5.89-2,.69-2.73,1.72-2.7,3.9.19,9.68.2,19.35.22,29,0,6-2.18,8.24-8.11,8.27q-18,.11-36,0c-2.12,0-3.36.36-4.47,2.49a19.54,19.54,0,0,1-22.51,10.11,19.83,19.83,0,0,1,.14-38.4c9.07-2.18,17.84,1.8,22.57,10.19.58,1,1.88,2.3,2.86,2.31,9.67.17,19.34.1,29,.09.89,0,1.78-.1,3.17-.19,0-5.45-.37-10.8.09-16.14a34.74,34.74,0,0,0-6.68-24.63,81.91,81.91,0,0,1-5.65-9.67c-1.84-3.37-1.4-6.47,1.59-9,2.59-2.18,5.23-4.36,8.38-7-7.2,0-13.6,0-20,0-9.54.11-19.08.38-28.63.44a3.92,3.92,0,0,0-4.19,2.54,19.38,19.38,0,0,1-22,10.3,19.79,19.79,0,0,1-.5-38.39c9-2.38,17.83,1.59,22.63,10,.62,1.09,2.13,2.38,3.22,2.37,20-.16,40-.5,60-.83a14.22,14.22,0,0,0,2.24-.5,39.28,39.28,0,0,0-2.84-2.88C209.9,194.62,204,190,198.41,185c-1.94-1.73-3.1-4.36-4.6-6.54l.8-1.09H158c-7.33,0-9.32-2-9.34-9.5,0-7.09-.08-14.17,0-21.28,0-2.28-.47-3.63-2.72-4.82a19.49,19.49,0,0,1-9.81-22.64,19.84,19.84,0,0,1,38.29.3,19.62,19.62,0,0,1-9.81,22.33,4.52,4.52,0,0,0-2.85,4.75c.17,5.77.06,11.55.06,17.67,10.51,0,20.58-.54,30.53.18,7.28.53,11.45-1.74,14.53-8.38,3.48-7.46,5.46-7.75,13.2-4.87,6.4,2.38,12.78,4.79,19.18,7.16,3.92,1.45,6.83-.11,7.55-4.17,1.29-7.23,2.49-14.48,3.66-21.73,1-6.08,2.81-7.75,8.87-7.8h8.14V101.16c0-7.77,1.85-9.66,9.48-9.66h61.15c6.42,0,8.52,2.12,8.57,8.59,0,2.84.08,5.68,0,8.52-.05,1.93.59,2.78,2.65,2.77,13.41,0,26.84,0,40.25-.13,1.21,0,2.69-1.27,3.55-2.35,3.73-4.7,5.87-5.32,11.25-2.59,13.79,7,28.08,13.08,39.89,23.41,28.47,24.87,42.6,56,40.74,94-.45,9.22-4.06,17.54-9.64,24.87-1.58,2.08-1.57,3.62-.56,5.86,6.21,13.72,12.3,27.51,18.4,41.29,5,11.28-.92,20.25-13.33,20.28h-7.63c0,4.95-.3,9.68.09,14.35.47,5.75-1,10.48-5.76,13.85-6.42,4.52-8.35,10.56-7.72,18.31.65,8.08.19,16.24.13,24.37,0,6.2-2.18,8.4-8.41,8.44-12,.05-24,.33-36-.17a31.14,31.14,0,0,1-12.41-3.71c-9.53-4.83-18.77-10.21-28.12-15.4-1.9-1.09-3.74-2.18-5.94-3.49-4.85,8.07-9.65,16-14.32,24a7.15,7.15,0,0,0-.43,3.37c0,9.68-.15,19.35.09,29a9,9,0,0,0,2.34,5.62c13.29,13.53,26.75,26.89,40.15,40.34,5.08,5.07,4.85,8.57-.78,12.94Zm222.2-367.72c-9.13,12.8-18.3,25.56-27.31,38.43a8,8,0,0,0-.9,4.36c-.05,22.82-.08,45.65.06,68.47a11,11,0,0,0,2,6c4.93,6.92,10.28,13.56,15.16,20.52a13.89,13.89,0,0,1,2.36,7c.3,7.64.12,15.22.11,22.83,0,5.45-1,6.82-6.17,8.91-8,3.2-16,6.43-24,9.56-1.89.73-2.84,1.63-2.83,3.88.11,13.16,0,26.31.14,39.46a5,5,0,0,0,2,3.64c13.49,8,27.11,15.88,40.66,23.83,7,4.09,14.27,6.13,22.45,5.2,4.36-.49,8.72-.09,13.15-.09h7.48c0-7.55-.22-14.51.06-21.44.27-6.42-2.18-13.42,4.19-18.79-11.29-2-20.51-6.55-28.18-14.12-2.91-2.86-3.09-6.62-.66-9.36s6.14-3,9.36-.47c.92.72,1.71,1.59,2.61,2.32a37.44,37.44,0,0,0,25.88,8.88c0-6.47-.08-12.51,0-18.54.08-5.37,2.51-7.63,7.92-7.73,4.76-.05,9.51,0,14.78,0-.69-1.68-1.18-3-1.75-4.23-6.42-14.48-12.74-29-19.34-43.38-2-4.45-1.8-7.87,1.68-11.52a34.79,34.79,0,0,0,9.66-22.65,95.34,95.34,0,0,0-7.57-42.24C452.55,150,430.5,131.69,401.58,120.11ZM331.8,230.24c-4.64-3.8-8.8-7.7-13.43-10.9-6-4.15-8.94-8.91-8.36-16.72.4-5.45,1.64-9.16,6-12.35,5.45-4,10.52-8.57,15.77-12.9l-7.64-13.16c-5.58,2.11-11,3.79-16.1,6.18-6.54,3.06-12.66,4-18.45-1.4a5.45,5.45,0,0,0-1.71-.88c-3.45-1.36-5.16-3.8-5.7-7.54-1.09-7.51-2.48-14.95-3.78-22.5H263.1c-.87,5.27-2,10.32-2.46,15.42-.66,7.79-2.77,14.36-11.15,17a4.78,4.78,0,0,0-1.29.84c-2.78,2.27-5.68,2.44-9,1.09-7.14-2.83-14.39-5.45-21.81-8.18l-7.44,12.91a8.52,8.52,0,0,0,.77,1c3.78,3.12,7.35,6.54,11.39,9.26,6.74,4.5,10.35,9.81,9.41,18.54-.51,4.66-1.5,8-5.21,10.79-5.62,4.27-11,8.92-16.53,13.5l7.63,13.17c5.53-2,10.79-3.54,15.62-5.89,6.93-3.36,13.34-4.29,19.49,1.39a6.08,6.08,0,0,0,1.72.88,7.9,7.9,0,0,1,5,6.71c1.18,7.72,2.59,15.4,3.94,23.31h12.31c.87,0,1.76-.12,2.69-.2.18-.64.34-1.09.43-1.6.75-4.44,1.41-8.9,2.27-13.32,2.43-12.55.19-12.57,11.34-17.63a4.34,4.34,0,0,0,1-.64c2.9-2.36,5.94-2.47,9.39-1.09,7,2.8,14.17,5.34,21.53,8.1ZM274.34,408.85v31.94c4.2-4.76,7.73-8.47,10.91-12.49a10.27,10.27,0,0,0,2.18-5.79c.13-29.65.09-59.3.07-88.94,0-1.38-.12-2.74-.19-4.13H247.75v4.69q0,42.53.05,85.05a11.89,11.89,0,0,1-3.82,9.21c-14.32,14.17-28.48,28.4-42.69,42.63-1,1-1.87,2-2.84,3,.48.29.68.52.88.52,14.56,0,29.13.09,43.69,0a5.43,5.43,0,0,0,3.45-1.88c4.26-4.67,8.48-9.38,12.43-14.29a9.56,9.56,0,0,0,2-5.45c.16-13.28.08-26.55.1-39.83,0-1.38.11-2.74.17-4.22Zm.22-125.8v32.71h72.26v-7.63c0-9.66.07-9.73,8.91-13.29,3.7-1.49,7.37-3,11-4.54l-.23-.79H353.73V276.4h26.82c-.73-4.6-.55-9.06-2.18-12.64-2.05-4.36-5.56-8-8.67-11.8a5.55,5.55,0,0,0-3.77-1.78c-8.73-.15-17.54,0-26.29-.14-2.93-.06-4.67.68-6.09,3.39-2.5,4.79-5.17,5.62-10.2,3.78-6.64-2.45-13.26-4.95-19.89-7.44-5.88-2.18-8.16-.93-9.24,5.36-1.17,6.85-2.27,13.72-3.38,20.59-.88,5.45-2.91,7.24-8.53,7.33C279.73,283.08,277.2,283.05,274.56,283.05Zm6.54-178.13v19.29c8.4,1.4,8.43,1.39,10,10,1.2,6.55,2.26,13.21,3.43,19.8.74,4.15,3.53,5.77,7.45,4.37q10.14-3.75,20.26-7.56c6.29-2.4,8.48-1.71,11.75,4a4.68,4.68,0,0,0,4.9,2.7c4.77-.16,9.56-.28,14.31,0,4.11.25,6.61-.68,9-4.66C367.59,144.19,374,136,380,127.6c.55-.78,1-1.65,1.76-3H343c-7.15,0-9.29-2.11-9.32-9.16V104.91Zm19.58,310.34c0,3.44-.18,6.54,0,9.58a13.44,13.44,0,0,1-3.89,10.46c-10.76,12-21.29,24.18-31.9,36.32-.7.8-1.26,1.7-2.06,2.8h50.76V415.26Zm26.71.08v59.05H376.7c-1.23-1.32-2.06-2.26-2.93-3.14-9.94-9.95-19.83-19.93-29.86-29.77a11,11,0,0,1-3.69-8.87c.22-5.74.06-11.5.06-17.27Zm-26.51-13.67H341.3c-1.29-2.35-1.9-4.36-3.18-5.61q-10.35-10.68-21-21.07a10.07,10.07,0,0,1-3.27-7.87c.12-11.21.05-22.41,0-33.62,0-1.35-.13-2.71-.19-4H300.88Zm44.59-16.85c4-6.54,7.63-12.69,11.4-19a8.93,8.93,0,0,0-1.67-1.26c-7.29-2.9-9.11-8.43-8.49-15.8.55-6.36.11-12.78.11-19.33H327.19v35.64a3.82,3.82,0,0,0,1.09,2.31c5.59,5.72,11.21,11.36,17.19,17.4ZM343.58,171c4.69,9.89,4.68,9.91-3.6,16.72-3.52,2.9-7,5.82-11.22,9.29h31.05V171ZM328.84,210.7c5.17,4.26,9.6,7.88,14,11.55,4.6,3.81,5,6.16,2.24,11.33-.53.95-.93,2-1.42,3h16.06V210.73ZM155.25,118a6.68,6.68,0,0,0-6.48,6.77,6.54,6.54,0,0,0,6.73,6.35h.1a6.4,6.4,0,0,0,6.24-6.54,6.54,6.54,0,0,0-6.51-6.58Zm6.54,171.84a6.41,6.41,0,0,0-6.21-6.63c-.11,0-.22,0-.33,0a6.54,6.54,0,0,0-.22,13.08,6.45,6.45,0,0,0,6.79-6.08c0-.12,0-.24,0-.36Zm-20.21-79.14a6.55,6.55,0,0,0-6.32-6.76h-.08a6.42,6.42,0,0,0-6.2,6.54,6.55,6.55,0,0,0,6.25,6.54,6.17,6.17,0,0,0,6.38-5.94v-.38Z"/><path class="cls-2" d="M439.4,243.38c0-4.47-.06-8.43,0-12.4.07-4.6,2.62-7.3,6.68-7.24,3.83.08,6.39,2.79,6.45,7.14q.15,9.27,0,18.54c-.07,4.65-2.54,7.08-7.22,7.15q-9.27.14-18.54,0c-4.36-.06-7.17-2.64-7.26-6.36s2.85-6.6,7.32-6.8c2.06-.08,4.13,0,6.19,0Z"/><path class="cls-2" d="M386.92,157.7H399.4v26H386.92Z"/><path class="cls-2" d="M386.87,197.26c3.69,0,7.25-.11,10.8.09a2.91,2.91,0,0,1,2,2c.21,3.54.1,7.11.1,10.9h-12.9Z"/><path class="cls-2" d="M399.47,236.75H386.88V223.94h12.59Z"/><path class="cls-2" d="M297.09,203.9a26.36,26.36,0,1,1-26.25-26.47h.08a26.17,26.17,0,0,1,26.17,26.17ZM270.63,217a13.18,13.18,0,1,0,.75-26.35h-.75a13.18,13.18,0,0,0,0,26.35Z"/><path class="cls-2" d="M274.1,382.48V395H261.28V382.48Z"/><path class="cls-2" d="M261.35,355.79h12.56v12.83H261.35Z"/><path class="cls-2" d="M313.6,289.51H301v-12.8H313.6Z"/><path class="cls-2" d="M327.27,289.36V276.71h12.82v12.65Z"/><path class="cls-1" d="M235.36,104.5c-.79.27-1.59.58-2.4.79a17.84,17.84,0,0,1-11-.71,59,59,0,0,1-6.54-3,1.38,1.38,0,0,0-1.72.09,26.93,26.93,0,0,1-12,5.2,4,4,0,0,1-.5.06,7,7,0,0,0-4.84,1.52c-1.82,1.58-4.66,1.19-6.54-.31a5.85,5.85,0,0,1-1.95-6.35,1.38,1.38,0,0,0,0-.94c-2.59-4-3.42-8.48-3.62-13.09a5.14,5.14,0,0,0-.17-2.41c-.37-.61-1.35-.74-2.05-1.09a25.79,25.79,0,0,1-9.08-7,6.32,6.32,0,0,0-3.62-2.64,5.44,5.44,0,0,1-3.66-5.45,5.73,5.73,0,0,1,4-5.35,1.4,1.4,0,0,0,1-.91,21.82,21.82,0,0,1,7.49-9c1.21-.89,2.51-1.67,3.8-2.45a1.08,1.08,0,0,0,.63-1.21,29.49,29.49,0,0,1,.86-11.56,14.67,14.67,0,0,1,6.92-9.13,15.61,15.61,0,0,1,11.08-1.28A29.52,29.52,0,0,1,210.71,32a1.57,1.57,0,0,0,2-.11,27,27,0,0,1,11-4.95c1.25-.21,2.54-.18,3.8-.31a1.76,1.76,0,0,0,1-.42,5.82,5.82,0,0,1,9.89,5.64,1.36,1.36,0,0,0,0,1A24.48,24.48,0,0,1,242,46.17a3,3,0,0,0,2.08,3.27,23.66,23.66,0,0,1,9.36,7.2,5.89,5.89,0,0,0,3.43,2.49,5.44,5.44,0,0,1,3.73,5.52,5.82,5.82,0,0,1-4,5.37,1.49,1.49,0,0,0-.84.7,21.48,21.48,0,0,1-7.22,8.72,50.51,50.51,0,0,1-4.24,2.84,1,1,0,0,0-.53,1.09,31,31,0,0,1-.49,10.16,16.15,16.15,0,0,1-5.15,9.1.65.65,0,0,0-.11.22ZM195.84,77.91c2.18,2.84,4.36,5.7,6.54,8.52a1.63,1.63,0,0,0,1.09.54,76.29,76.29,0,0,0,21.28-.92,1.63,1.63,0,0,0,.95-.58,76.64,76.64,0,0,0,9.91-19.06,1.41,1.41,0,0,0,0-1A77.06,77.06,0,0,0,224,47.3a1.58,1.58,0,0,0-1-.52,76.76,76.76,0,0,0-21.29.92,1.77,1.77,0,0,0-1,.62,76.15,76.15,0,0,0-9.81,19,1.57,1.57,0,0,0,.06,1.09C192.51,71.56,194.17,74.7,195.84,77.91ZM185.47,49.67a67,67,0,0,1,13.45-4.47,1.7,1.7,0,0,0,.83-.64c1.57-1.83,3.05-3.74,4.69-5.45,1.47-1.6,3.08-3.06,4.71-4.64-4.14-2.28-8.39-4-13.22-3.56A9.88,9.88,0,0,0,189.46,34C185.35,38.41,185.2,43.9,185.47,49.67Zm31.78,49.54a.57.57,0,0,0,.14.16,25.46,25.46,0,0,0,9.65,3.44c4.67.51,8.61-.79,11.3-4.88a17.13,17.13,0,0,0,2.55-8.38c.12-1.79,0-3.6.08-5.54a67.31,67.31,0,0,1-13.56,4.46,1.78,1.78,0,0,0-.83.63c-1.39,1.65-2.7,3.37-4.16,5C220.73,95.83,219,97.54,217.25,99.21ZM187.18,86.54a24,24,0,0,0,2.88,12.27,5.92,5.92,0,0,1,9.23,5.36c4.77-.09,8.73-2.09,12.67-4.73l-.41-.36a64,64,0,0,1-9.94-9,2,2,0,0,0-1-.47c-2.43-.46-4.89-.82-7.3-1.36C191.29,87.73,189.24,87.12,187.18,86.54Zm-2.82-4.36a1.45,1.45,0,0,0,.11-.26,66.72,66.72,0,0,1,2.85-13.41,1.64,1.64,0,0,0-.11-1.09,62.26,62.26,0,0,1-3.55-10.82l-.55-2.4c-4,2.44-7.56,5.22-9.67,9.54a5.72,5.72,0,0,1,3.86,4.94,5.92,5.92,0,0,1-2.88,5.67,24.53,24.53,0,0,0,9.94,7.78ZM242,51.65c0,.12-.08.24-.11.37A65.88,65.88,0,0,1,239,65.33a1.54,1.54,0,0,0,.08,1A62.06,62.06,0,0,1,243,78.71a4.73,4.73,0,0,0,.22.86c4.05-2.45,7.57-5.22,9.65-9.53a5.74,5.74,0,0,1-3.8-5,5.89,5.89,0,0,1,2.83-5.62,24.33,24.33,0,0,0-9.93-7.8ZM227.05,29.53c-4.76.1-8.72,2.11-12.66,4.75l.57.48a62.7,62.7,0,0,1,9.35,8.41,2.4,2.4,0,0,0,1.58,1A59.37,59.37,0,0,1,238.5,47c.21.07.42.17.68.28a24.58,24.58,0,0,0-2.85-12.38,6,6,0,0,1-9.28-5.41ZM237.52,70a101.36,101.36,0,0,1-8,14.93,7.43,7.43,0,0,0,1-.23c3.09-1.1,6.17-2.27,9.26-3.39.57-.19.65-.5.52-1-.46-1.87-.84-3.77-1.34-5.63-.44-1.58-1-3.11-1.5-4.67ZM196.83,48.78c-.22,0-.43.09-.65.15-3.27,1.18-6.54,2.37-9.81,3.53-.49.18-.47.49-.37.88.57,2.31,1.09,4.63,1.72,6.92.31,1.17.76,2.29,1.15,3.44A99.29,99.29,0,0,1,196.83,48.78Zm9,41.28a2.34,2.34,0,0,0,.09.25,53.09,53.09,0,0,0,8.22,7,.88.88,0,0,0,.83-.12q3.39-3.27,6.73-6.62c.33-.33.58-.72,1-1.23A83.42,83.42,0,0,1,205.81,90.06Zm14.92-46.4a55.25,55.25,0,0,0-8.57-7.29.74.74,0,0,0-.7.12c-2.43,2.39-4.83,4.8-7.23,7.2a5.89,5.89,0,0,0-.48.71A83.87,83.87,0,0,1,220.73,43.66Zm18.32,6.68a55.87,55.87,0,0,0-11-3c1.64,2.37,3.28,4.58,4.75,6.91s2.82,4.76,4.22,7.14c.67-1.18,1.85-7.45,2.06-11.09Zm-51.77,33a55.27,55.27,0,0,0,11.18,2.93A87.5,87.5,0,0,1,189.33,72,56.49,56.49,0,0,0,187.28,83.37Zm3.74,21.8a2.88,2.88,0,0,0,4,.9l0,0a2.91,2.91,0,1,0-4-.9Zm-21.9-34.34a2.89,2.89,0,0,0,4,.87l0,0A2.91,2.91,0,0,0,170,66.8a2.88,2.88,0,0,0-.87,4l0,0Zm66.21-42.28a2.88,2.88,0,0,0-4-.88l-.05,0a2.9,2.9,0,1,0,4,.85ZM257.27,63a2.9,2.9,0,0,0-4-.94l0,0a2.93,2.93,0,1,0,3.07,5,2.88,2.88,0,0,0,1-3.94l-.08-.13Z"/><path class="cls-1" d="M74.32,251.07c-.8.26-1.6.57-2.4.78a18,18,0,0,1-11-.69,57.52,57.52,0,0,1-6.54-3,1.4,1.4,0,0,0-1.73.1,27.28,27.28,0,0,1-12,5.2,1.46,1.46,0,0,0-.51.06,6.88,6.88,0,0,0-4.85,1.52c-1.82,1.58-4.66,1.19-6.54-.31a5.86,5.86,0,0,1-2-6.36,1.35,1.35,0,0,0,0-.93c-2.58-4-3.41-8.48-3.62-13.14,0-.82.22-1.81-.15-2.41s-1.35-.74-2.06-1.09a25.7,25.7,0,0,1-9.08-7,6.39,6.39,0,0,0-3.63-2.65,5.46,5.46,0,0,1-3.66-5.45,5.76,5.76,0,0,1,4-5.36,1.4,1.4,0,0,0,1-.9,21.78,21.78,0,0,1,7.49-8.87c1.22-.88,2.5-1.67,3.79-2.44a1.09,1.09,0,0,0,.63-1.21,29.71,29.71,0,0,1,.86-11.57,14.7,14.7,0,0,1,6.92-9.13A15.76,15.76,0,0,1,40.44,175a30,30,0,0,1,9.21,3.68,1.55,1.55,0,0,0,2-.09,26.75,26.75,0,0,1,11-4.95c1.25-.22,2.55-.18,3.82-.31a1.73,1.73,0,0,0,1-.42,5.82,5.82,0,0,1,9.89,5.64,1.36,1.36,0,0,0,0,1,24.48,24.48,0,0,1,3.53,13.32A3,3,0,0,0,83,196.1a23.64,23.64,0,0,1,9.36,7.19,6,6,0,0,0,3.43,2.49,5.46,5.46,0,0,1,3.73,5.53,5.83,5.83,0,0,1-4,5.37,1.47,1.47,0,0,0-.83.68,21.39,21.39,0,0,1-7.23,8.78,49.54,49.54,0,0,1-4.27,2.78A1,1,0,0,0,82.6,230a30.76,30.76,0,0,1-.49,10.17,16.16,16.16,0,0,1-5.16,9.1.55.55,0,0,0-.1.22ZM34.79,224.44c2.18,2.84,4.36,5.69,6.54,8.51a1.69,1.69,0,0,0,1.09.55,77.13,77.13,0,0,0,21.29-.92,1.7,1.7,0,0,0,1-.59,76.72,76.72,0,0,0,9.9-19.05,1.41,1.41,0,0,0,0-.95A76.65,76.65,0,0,0,63,193.86a1.62,1.62,0,0,0-1-.51,76.38,76.38,0,0,0-21.29.92,1.71,1.71,0,0,0-1,.62,76.78,76.78,0,0,0-9.87,19,1.67,1.67,0,0,0,.07,1.1C31.47,218.13,33.13,221.27,34.79,224.44ZM24.42,196.23a66.75,66.75,0,0,1,13.51-4.42,1.89,1.89,0,0,0,.83-.65c1.56-1.83,3.05-3.74,4.68-5.5,1.47-1.61,3.08-3.06,4.71-4.64-4.15-2.28-8.38-4-13.21-3.56a9.89,9.89,0,0,0-6.54,3.06C24.31,185,24.17,190.48,24.42,196.23ZM56.2,245.82a.61.61,0,0,0,.15.17A25.37,25.37,0,0,0,66,249.41c4.66.52,8.6-.77,11.29-4.86a16.76,16.76,0,0,0,2.55-8.39c.12-1.8.07-3.6.08-5.54a67.77,67.77,0,0,1-13.54,4.46,1.72,1.72,0,0,0-.84.64c-1.4,1.64-2.69,3.37-4.16,4.95C59.73,242.4,57.94,244.06,56.2,245.82ZM26.13,233.11A24.2,24.2,0,0,0,29,245.38a5.93,5.93,0,0,1,9.25,5.36c4.76-.09,8.72-2.1,12.66-4.73a4.71,4.71,0,0,0-.42-.36,64.91,64.91,0,0,1-9.93-9,1.91,1.91,0,0,0-1-.47c-2.43-.47-4.87-.83-7.28-1.36C30.2,234.33,28.2,233.69,26.13,233.11Zm-2.81-4.42c.06-.15.11-.19.11-.25A66.73,66.73,0,0,1,26.26,215a1.53,1.53,0,0,0-.11-1.09,65.36,65.36,0,0,1-3.53-10.84l-.53-2.38c-4.05,2.44-7.57,5.22-9.69,9.54a5.7,5.7,0,0,1,3.87,5A5.87,5.87,0,0,1,13.4,221,24.23,24.23,0,0,0,23.32,228.69Zm57.61-30.53a1.42,1.42,0,0,1-.1.36A66.63,66.63,0,0,1,78,211.85a1.62,1.62,0,0,0,.09,1A63.38,63.38,0,0,1,82,225.23a3.71,3.71,0,0,0,.23.86c4-2.46,7.56-5.22,9.65-9.53a5.77,5.77,0,0,1-3.86-5A5.91,5.91,0,0,1,90.87,206a24.36,24.36,0,0,0-9.94-7.8ZM66,176.1c-4.77.09-8.73,2.11-12.66,4.75.27.23.41.36.57.47a63.26,63.26,0,0,1,9.34,8.43,2.43,2.43,0,0,0,1.58,1,59.16,59.16,0,0,1,12.67,2.86c.22.07.42.17.68.28a24.45,24.45,0,0,0-2.86-12.4A6,6,0,0,1,66,176.1Zm10.47,40.46a101.08,101.08,0,0,1-8,14.94c.51-.12.79-.16,1.09-.24,3.09-1.09,6.18-2.27,9.26-3.38.57-.2.64-.51.52-1-.46-1.86-.85-3.76-1.35-5.61C77.51,219.65,77,218.12,76.48,216.56ZM35.79,195.34c-.38.1-.52.11-.65.15q-4.91,1.78-9.81,3.55c-.5.17-.47.48-.38.87.57,2.31,1.09,4.62,1.73,6.92.3,1.17.75,2.29,1.14,3.44A99,99,0,0,1,35.79,195.34Zm9,41.28a1.14,1.14,0,0,0,.09.26,53.09,53.09,0,0,0,8.22,7,.88.88,0,0,0,.83-.12c2.26-2.18,4.51-4.39,6.72-6.62.33-.33.58-.72,1-1.23A84.14,84.14,0,0,1,44.8,236.62Zm14.89-46.41a55.25,55.25,0,0,0-8.57-7.29.74.74,0,0,0-.69.12q-3.63,3.57-7.22,7.2a5.41,5.41,0,0,0-.49.69A85.26,85.26,0,0,1,59.69,190.21ZM78,196.89A55.25,55.25,0,0,0,67,194c1.63,2.35,3.27,4.58,4.74,6.89S74.57,205.64,76,208c.69-1.2,1.87-7.47,2.06-11.11ZM26.26,229.94a56.12,56.12,0,0,0,11.18,2.93,87.1,87.1,0,0,1-9.15-14.31A57.19,57.19,0,0,0,26.26,229.94ZM30,251.74a2.9,2.9,0,0,0,4,.9l0,0a2.92,2.92,0,1,0-4-.88ZM8.1,217.4a2.9,2.9,0,0,0,4,.85h0a3,3,0,0,0,.86-4,2.93,2.93,0,0,0-4-.89,2.87,2.87,0,0,0-.91,4l0,0Zm66.22-42.28a2.91,2.91,0,0,0-4-.88l0,0a2.91,2.91,0,0,0,3.17,4.89h0a2.91,2.91,0,0,0,.86-4l0,0Zm21.93,34.4a2.9,2.9,0,0,0-4-.93h0a2.91,2.91,0,1,0,4,1l0,0Z"/><path class="cls-1" d="M204.16,399.82c-.8.26-1.6.56-2.4.78a17.91,17.91,0,0,1-11-.7,57.46,57.46,0,0,1-6.54-3,1.38,1.38,0,0,0-1.72.1,27.28,27.28,0,0,1-12,5.2c-.18,0-.34,0-.51.06a6.84,6.84,0,0,0-4.84,1.52c-1.83,1.58-4.67,1.19-6.55-.31a5.86,5.86,0,0,1-2-6.36,1.35,1.35,0,0,0,0-.93c-2.58-4-3.41-8.48-3.62-13.09,0-.81.22-1.81-.15-2.41s-1.35-.74-2.06-1.09a25.74,25.74,0,0,1-9.09-7,6.29,6.29,0,0,0-3.62-2.65,5.45,5.45,0,0,1-3.66-5.45,5.72,5.72,0,0,1,4-5.35,1.42,1.42,0,0,0,1-.91,21.61,21.61,0,0,1,7.49-8.86c1.21-.89,2.5-1.67,3.79-2.45a1.08,1.08,0,0,0,.63-1.21,29.74,29.74,0,0,1,.86-11.57,14.62,14.62,0,0,1,6.92-9.12,15.68,15.68,0,0,1,11.12-1.42,29.47,29.47,0,0,1,9.21,3.69,1.57,1.57,0,0,0,2-.1,26.94,26.94,0,0,1,11-4.95c1.26-.22,2.54-.18,3.82-.31a1.7,1.7,0,0,0,1-.42,5.82,5.82,0,0,1,9.89,5.63,1.49,1.49,0,0,0,0,1,24.43,24.43,0,0,1,3.51,13.37,3,3,0,0,0,2.09,3.27A23.74,23.74,0,0,1,222.2,352a5.93,5.93,0,0,0,3.44,2.5,5.46,5.46,0,0,1,3.73,5.53,5.83,5.83,0,0,1-4,5.36,1.49,1.49,0,0,0-.83.69,21.43,21.43,0,0,1-7.23,8.72,49.7,49.7,0,0,1-4.28,2.78,1,1,0,0,0-.53,1.09,30.76,30.76,0,0,1-.49,10.17,16.12,16.12,0,0,1-5.15,9.09.7.7,0,0,0-.11.23Zm-39.53-26.63c2.18,2.84,4.36,5.69,6.54,8.51a1.69,1.69,0,0,0,1.09.55,76.75,76.75,0,0,0,21.29-.93,1.67,1.67,0,0,0,1-.58,76.72,76.72,0,0,0,9.9-19.05,1.41,1.41,0,0,0,0-.95,76.92,76.92,0,0,0-11.55-18.14,1.69,1.69,0,0,0-1-.5,76.76,76.76,0,0,0-21.29.91,1.77,1.77,0,0,0-1,.63,76.78,76.78,0,0,0-9.87,19,1.57,1.57,0,0,0,.07,1.09c1.53,3.18,3.19,6.32,4.85,9.49ZM154.26,345a66.13,66.13,0,0,1,13.51-4.42,2,2,0,0,0,.83-.65c1.56-1.83,3.05-3.74,4.68-5.45s3.08-3,4.71-4.63c-4.15-2.28-8.39-4-13.21-3.57a9.86,9.86,0,0,0-6.54,3.06c-4.1,4.41-4.18,9.9-4,15.66ZM186,394.53a.57.57,0,0,0,.15.16,25.38,25.38,0,0,0,9.65,3.43c4.66.52,8.6-.78,11.29-4.87a16.72,16.72,0,0,0,2.55-8.38c.12-1.8.06-3.6.08-5.54a68,68,0,0,1-13.54,4.46,1.76,1.76,0,0,0-.84.63c-1.4,1.65-2.7,3.37-4.16,4.95C189.57,391.2,187.78,392.81,186,394.53ZM156,381.86a24.2,24.2,0,0,0,2.88,12.27,5.93,5.93,0,0,1,9.25,5.36c4.76-.09,8.72-2.1,12.66-4.73a4.71,4.71,0,0,0-.42-.36,64.91,64.91,0,0,1-9.93-9,2,2,0,0,0-1.09-.47c-2.43-.47-4.88-.83-7.29-1.36C160,383.08,158,382.48,156,381.86Zm-2.81-4.42c.06-.15.11-.19.11-.25a66.85,66.85,0,0,1,2.84-13.41,1.53,1.53,0,0,0-.11-1.09,63.55,63.55,0,0,1-3.53-10.84l-.53-2.39c-4.05,2.45-7.57,5.23-9.69,9.54a5.72,5.72,0,0,1,3.86,4.94,5.87,5.87,0,0,1-2.87,5.66A24.33,24.33,0,0,0,153.16,377.44Zm57.61-30.53a2.42,2.42,0,0,0-.1.36,66.78,66.78,0,0,1-2.84,13.33,1.62,1.62,0,0,0,.09,1A63.32,63.32,0,0,1,211.85,374a3.65,3.65,0,0,0,.23.87c4-2.46,7.56-5.23,9.64-9.53a5.79,5.79,0,0,1-3.85-5,5.91,5.91,0,0,1,2.88-5.63,24.34,24.34,0,0,0-10-7.79Zm-14.92-22.05c-4.77.09-8.73,2.11-12.66,4.75.27.23.41.36.56.47a62.83,62.83,0,0,1,9.35,8.43,2.43,2.43,0,0,0,1.58,1,59.32,59.32,0,0,1,12.62,2.86l.67.28a24.44,24.44,0,0,0-2.84-12.38,6,6,0,0,1-9.28-5.42Zm10.46,40.46a100,100,0,0,1-8,15c.5-.12.79-.15,1.09-.24,3.09-1.09,6.16-2.28,9.26-3.38.57-.21.64-.5.52-1-.46-1.86-.85-3.76-1.35-5.61-.47-1.64-1-3.17-1.54-4.73ZM165.63,344.1c-.38.1-.52.11-.65.15l-9.82,3.55c-.49.17-.46.47-.37.87.57,2.31,1.09,4.62,1.73,6.92.3,1.17.75,2.29,1.09,3.44a98.45,98.45,0,0,1,8-14.94Zm9,41.28a2,2,0,0,0,.08.26,53.57,53.57,0,0,0,8.22,7,.88.88,0,0,0,.83-.12q3.4-3.27,6.73-6.62c.33-.33.58-.72,1-1.23a83.31,83.31,0,0,1-16.85.73ZM189.53,339a54.77,54.77,0,0,0-8.57-7.3.74.74,0,0,0-.69.12q-3.65,3.58-7.22,7.2a4.88,4.88,0,0,0-.49.7,84.5,84.5,0,0,1,17-.74Zm18.32,6.67a55.25,55.25,0,0,0-11-2.91c1.63,2.35,3.27,4.58,4.74,6.89s2.83,4.77,4.22,7.15c.69-1.23,1.87-7.5,2.06-11.14Zm-51.78,33a56.21,56.21,0,0,0,11.19,2.93,87.5,87.5,0,0,1-9.13-14.32,57.11,57.11,0,0,0-2.06,11.38Zm3.74,21.8a2.89,2.89,0,0,0,4,.9l0,0a2.91,2.91,0,1,0-4-.9Zm-21.9-34.38a2.91,2.91,0,0,0,4,.86h0a2.92,2.92,0,0,0-3.18-4.89h0a2.9,2.9,0,0,0-.87,4Zm66.21-42.28a2.89,2.89,0,0,0-4-.87l0,0a2.91,2.91,0,1,0,4,.87h0ZM226,358.26a2.9,2.9,0,0,0-4-.94l0,0a2.91,2.91,0,1,0,4,1Z"/></svg>