<svg id="Layer_1" data-name="Layer 1" xmlns="http://www.w3.org/2000/svg" viewBox="0 0 500 500"><defs><style>.cls-1{fill:#fecf81;}.cls-2{fill:#fec481;}</style></defs><path class="cls-1" d="M337.73,204.35C315.31,221.28,289.8,226.76,263.3,229c-26.21,2.24-52.05.12-77.28-7.69-11.83-3.67-22.91-8.82-33.27-17.21,0,2.78.09,4.89,0,7-.2,3.83-2.87,6.44-6.33,6.32a6.08,6.08,0,0,1-5.93-6.2s0-.1,0-.15c-.08-10.78-.23-21.58.09-32.36.2-7.08,3.65-13,8.43-18.11,9.48-10.16,21.58-16,34.49-20.18,27.9-9.18,56.53-10.93,85.58-8,17.2,1.74,33.92,5.4,49.75,12.59,8,3.63,15.42,8.13,21.62,14.47a32,32,0,0,1,9.69,23.54q-.21,77.44,0,154.88c0,10.92-4.16,19.33-12,26.34-10.09,9-22.11,14.65-35,17.94s-25.86,5.12-38.88,7.26a5.71,5.71,0,0,1-7-5.43c-.3-3.56,1.91-6.12,5.9-6.72.75-.12,1.53-.12,2.3-.2,15.11-1.55,29.95-4.36,44.1-10.09,8.27-3.36,16.07-7.44,22.42-13.93a19.06,19.06,0,0,0,5.8-14.16c-.18-16.44-.06-32.88-.06-49.32v-3.37c-7.62,4-14.93,8.49-22.7,11.9-14.78,6.48-30.54,9.56-46.45,11.82-4.25.61-7.45-1.79-7.85-5.5-.34-3.48,2.11-6.12,6.35-6.73,15.77-2.37,31.45-5.33,45.86-12.39a113.06,113.06,0,0,0,19.15-12.6c4.17-3.24,5.74-8.16,5.69-13.72C337.56,240.9,337.73,223,337.73,204.35Zm-91.41-61c-20.72.18-40,2.33-58.72,8.6-10.64,3.57-20.92,8-28.93,16.2s-7.85,16.21-.09,24.38a16.13,16.13,0,0,0,3.72,3.37c7.74,4.19,15.19,9.35,23.43,12.13,36.38,12.26,73.35,12.33,110.36,2.91,12.59-3.19,24.66-8,34.5-17.06,9.45-8.75,9.78-18.43,0-26.68a82,82,0,0,0-19.93-12.15C289.86,146,267.67,143.74,246.32,143.38Z"/><path class="cls-1" d="M41.79,334.41c0-57.65,47.15-104.72,104.72-104.63a104.85,104.85,0,0,1,104.9,104.81c0,.15,0,.31,0,.47-.1,57.77-47.27,104.56-105.3,104.44C88.53,439.31,41.74,392.23,41.79,334.41Zm12.33.35c0,50.75,41.47,92.28,92,92.35a92.5,92.5,0,1,0-92-93v.61Z"/><path class="cls-2" d="M202.08,334.71c0,8.86-.1,17.72,0,26.57a8.28,8.28,0,0,1-4.57,8.15q-23,13.14-46,26.56a8.84,8.84,0,0,1-10,0q-22.68-13.38-45.61-26.38c-3.59-2-5-4.63-4.93-8.69q.19-26.39,0-52.76c0-4.12,1.56-6.61,5.09-8.61q22.91-13,45.63-26.34a8.56,8.56,0,0,1,9.66,0q23.07,13.44,46.31,26.73a8,8,0,0,1,4.39,7.85C202,316.74,202.08,325.72,202.08,334.71ZM108.69,306.6c12.48,7.19,24.44,14.14,36.51,20.92.89.5,2.69.11,3.73-.48,8-4.48,16-9.15,24-13.76l11.59-6.73c-12.33-7.15-24.21-14.05-36.15-20.8a4.48,4.48,0,0,0-3.77.16c-11.81,6.72-23.56,13.55-35.93,20.69Zm-5.25,11.31c0,13.38.09,25.84-.08,38.29,0,2.61,1,3.84,3.07,5,10.28,5.81,20.46,11.79,30.68,17.68,1,.54,2,1,3.37,1.63,0-13.45.05-26.4-.12-39.36a5,5,0,0,0-2.38-3.36c-7-4.24-14.18-8.29-21.3-12.33C112.45,323.06,108.26,320.68,103.44,317.91Zm49.32,63c12.33-7.14,24-13.84,35.54-20.7a4.32,4.32,0,0,0,1.39-3.15c.15-4.62.06-9.25.06-13.87V318.69c-.62,0-.93-.16-1.12-.08-11.45,6.58-22.92,13.15-34.32,19.83a3.74,3.74,0,0,0-1.5,2.72C152.73,354.12,152.76,367.08,152.76,380.88Z"/><path class="cls-1" d="M364.23,319.36a32.92,32.92,0,0,1-3.49-2.6,12.74,12.74,0,0,1-3.83-13.08c1.3-5,2.83-10,4.27-15a1.88,1.88,0,0,0-.53-2.19,7.56,7.56,0,0,1-2.17-7.93q2.91-10.41,5.94-20.81a7.59,7.59,0,0,1,6.05-5.57,1.88,1.88,0,0,0,1.59-1.59q5-17.61,10.07-35.17A13.23,13.23,0,0,1,396,205.57a21.14,21.14,0,0,1,4,.82l10,2.84A35.12,35.12,0,0,1,475.63,228c3.49,1,7,2,10.55,3a13.44,13.44,0,0,1,9,7.29,13.26,13.26,0,0,1,.72,9.82c-1.83,6.31-3.62,12.64-5.42,18.92q-9.66,33.75-19.31,67.49c-2.2,7.66-6.78,11.05-14.76,10.94-.09,0-.18.08-.28.12Zm123.66-62.71c-3.88,1.43-7.28.84-10.73-.16q-42.56-12.23-85.1-24.36c-5.34-1.52-9.36.72-10.9,6.06l-3,10.62-1.21,4.2,1.81.52c7,2,14,4,21.09,6a19.19,19.19,0,0,1,7.56,4A18.83,18.83,0,0,1,390,295.91c-7.24-2-14.45-4.13-21.69-6.2l-1.75-.5L366,291q-1.81,6.38-3.64,12.74c-1.64,5.72.55,9.64,6.3,11.29,28.61,8.19,57.24,16.31,85.83,24.58,5,1.47,9.89-.76,11.47-6.38,7-24.92,14.18-49.76,21.28-74.64Zm-35.61-12.89c3.19.94,6.21,1.81,9.26,2.6.38.1,1-.31,1.38-.68a28,28,0,0,0,7-14.93,29.58,29.58,0,0,0-38.41-32.65c-13.63,4.28-22.5,18.66-20.14,32.69.08.5.36,1.28.72,1.39,3.09.95,6.22,1.84,9.38,2.74,1-2.14,1.89-4.18,2.93-6.12a2.36,2.36,0,0,0-.12-2.61c-1.3-2.27-2.58-4.58-3.78-6.92a5.82,5.82,0,0,1,2.46-7.86,5.73,5.73,0,0,1,3.64-.59c2.5.34,5,.71,7.51.94a2.52,2.52,0,0,0,1.84-.71c1.85-1.93,3.59-4,5.35-6a5.61,5.61,0,0,1,10,2.84c.43,2.63.83,5.28,1.37,7.91a2.56,2.56,0,0,0,1.19,1.56c2.14,1.11,4.35,2.12,6.56,3.08a5.67,5.67,0,0,1,3.86,5.25,5.86,5.86,0,0,1-3.38,5.62c-2.19,1.23-4.42,2.44-6.62,3.74a2.34,2.34,0,0,0-1.09,1.34c-.32,2.36-.54,4.76-.85,7.36Zm-65.76,17.6h0q-6.52-1.89-13-3.72c-2.34-.66-3.42-.05-4.09,2.3q-2.83,9.69-5.55,19.39c-.69,2.4-.07,3.49,2.38,4.19,8.24,2.36,16.46,4.73,24.71,7a15.69,15.69,0,0,0,4,.64A13.4,13.4,0,0,0,399.09,265C394.91,263.7,390.7,262.56,386.52,261.36ZM447,242.19c.28-2.28.59-4.41.78-6.55a6.09,6.09,0,0,1,3.3-5l6.45-3.64c.47-.27.94-.6,1.69-1.12-2.74-1.26-5.1-2.48-7.56-3.47a6.6,6.6,0,0,1-4.43-5.6c-.4-2.78-.94-5.54-1.54-8.62-2.15,2.42-4.1,4.6-6,6.82a6.09,6.09,0,0,1-6.06,2.18c-.88-.15-1.77-.26-2.64-.36l-6-.71c.43.87.66,1.38.95,1.89,1.17,2.17,2.37,4.33,3.54,6.5a6.17,6.17,0,0,1,.09,6c-.95,1.89-1.83,3.87-2.77,5.9ZM384.4,227.14c3.79-1.41,7.18-.87,10.61.21s7,2,10.78,3.1a35.89,35.89,0,0,1,1.94-16.08c-4.1-1.17-8-2.51-12-3.34-3.33-.69-7,1.69-8.11,4.94-1.2,3.55-2.13,7.22-3.26,11.17ZM468,248.25l11.88,3.39c.55.17,1.11.31,1.67.43a8.06,8.06,0,0,0,9.17-5.21c1.3-3.9-.17-8.33-3.79-9.76-3.83-1.51-7.91-2.36-12-3.54A36.49,36.49,0,0,1,468,248.25Z"/><path class="cls-2" d="M439.48,181.29a26.32,26.32,0,0,1-.8,2.71,2.68,2.68,0,0,1-3.31,1.67,2.63,2.63,0,0,1-1.76-3.25c.45-1.79.94-3.55,1.52-5.3a2.51,2.51,0,0,1,3.07-1.77,2.57,2.57,0,0,1,2.08,3v.05a27.82,27.82,0,0,1-.8,2.84Z"/><path class="cls-2" d="M470.5,190.12c-.27.94-.48,1.83-.8,2.72a2.64,2.64,0,0,1-3.11,1.77,2.57,2.57,0,0,1-2-3,45,45,0,0,1,1.67-5.9,2.51,2.51,0,0,1,3.25-1.45h0a2.55,2.55,0,0,1,1.75,3.1C471.06,188.31,470.75,189.21,470.5,190.12Z"/><path class="cls-2" d="M455.73,183.07c-.26,1-.47,1.85-.79,2.73a2.67,2.67,0,0,1-5.12-1.48c.46-1.83.95-3.66,1.57-5.45a2.66,2.66,0,0,1,5.1,1.48C456.3,181.27,456,182.17,455.73,183.07Z"/><path class="cls-2" d="M386,314.43a13.79,13.79,0,0,1-1.77-.63,2.7,2.7,0,0,1-1.34-3.22,2.66,2.66,0,0,1,3.12-1.75,25.76,25.76,0,0,1,2.73.78,2.68,2.68,0,0,1,1.89,3.17,2.74,2.74,0,0,1-3.27,2,10.72,10.72,0,0,1-1.37-.39Z"/><path class="cls-2" d="M426.42,320.38c2.49.71,3.47,1.89,3,3.58s-2,2.29-4.55,1.57a12.77,12.77,0,0,1-1.36-.4,2.77,2.77,0,0,1-1.9-3.36A2.72,2.72,0,0,1,425,320C425.51,320.1,426,320.25,426.42,320.38Z"/><path class="cls-2" d="M419.75,245.66a12.78,12.78,0,0,1,1.36.39,2.67,2.67,0,0,1-1.44,5.12,21.37,21.37,0,0,1-2.84-.8,2.67,2.67,0,0,1,1.45-5.14h0A14.6,14.6,0,0,1,419.75,245.66Z"/><path class="cls-2" d="M458.57,256.77a12.42,12.42,0,0,1,1.36.38,2.67,2.67,0,0,1-1.42,5.13,21,21,0,0,1-2.84-.8,2.68,2.68,0,0,1,1.59-5.11c.45.1.94.26,1.36.39Z"/><path class="cls-2" d="M393.76,238.25a13.1,13.1,0,0,1,1.51.45,2.65,2.65,0,0,1-1.37,5.11,17.21,17.21,0,0,1-2.73-.74,2.68,2.68,0,0,1-2-3.21c0-.06,0-.12.05-.18a2.67,2.67,0,0,1,3.52-1.74c.36.08.71.2,1.06.29Z"/><path class="cls-2" d="M432.68,249.33c2.58.75,3.56,1.95,3,3.7s-2,2.21-4.59,1.46-3.6-1.89-3.13-3.66S429.94,248.56,432.68,249.33Z"/><path class="cls-2" d="M471.43,260.45a13.66,13.66,0,0,1,1.51.44,2.67,2.67,0,0,1-1.39,5.12,21.32,21.32,0,0,1-2.74-.75,2.68,2.68,0,0,1-1.94-3.25l0-.12a2.69,2.69,0,0,1,3.52-1.73l1.06.3Z"/><path class="cls-2" d="M373,310.76a12.18,12.18,0,0,1-2-.86,2.64,2.64,0,0,1,1.89-4.78,19.18,19.18,0,0,1,2.88.79,2.61,2.61,0,0,1,1.89,3.17,2.72,2.72,0,0,1-3.27,2c-.46-.09-.95-.26-1.36-.38Z"/><path class="cls-2" d="M413.3,316.64c.46.13.95.23,1.37.39a2.62,2.62,0,0,1,1.82,3.2,2.66,2.66,0,0,1-3.15,2,20,20,0,0,1-2.72-.76,2.68,2.68,0,1,1,1.39-5.17l.08,0A11.32,11.32,0,0,1,413.3,316.64Z"/><path class="cls-2" d="M450.68,333a12.8,12.8,0,0,1-2-.86,2.64,2.64,0,0,1,1.89-4.8,20,20,0,0,1,2.84.8,2.6,2.6,0,0,1,1.89,3.16,2.71,2.71,0,0,1-3.26,2c-.46-.11-.92-.24-1.36-.39Z"/><path class="cls-2" d="M405.13,247.05c-2.53-.72-3.57-2-3-3.79s2-2.14,4.48-1.43c.45.13.94.24,1.35.39a2.68,2.68,0,1,1-1.46,5.16A9.61,9.61,0,0,1,405.13,247.05Z"/><path class="cls-2" d="M445.56,253c2.59.75,3.62,1.95,3.14,3.67s-2,2.24-4.58,1.51c-.4-.11-.81-.21-1.21-.35a2.77,2.77,0,0,1-2-3.37l0,0a2.72,2.72,0,0,1,3.41-1.75C444.76,252.78,445.15,252.91,445.56,253Z"/><path class="cls-2" d="M400.5,313a12.59,12.59,0,0,1,1.35.39,2.55,2.55,0,0,1,1.7,3,2.5,2.5,0,0,1-2.82,2.16h0a14.4,14.4,0,0,1-3.47-.95,2.65,2.65,0,0,1,1.73-5C399.5,312.65,400,312.82,400.5,313Z"/><path class="cls-2" d="M439.2,324c.46.13.95.24,1.37.4a2.58,2.58,0,0,1,1.79,3.16l0,0a2.6,2.6,0,0,1-3.13,1.95,17.93,17.93,0,0,1-2.58-.71,2.69,2.69,0,0,1-2-3.21,1.21,1.21,0,0,1,.05-.18c.44-1.54,1.75-2.19,3.49-1.75.35.08.7.2,1.05.3Z"/><path class="cls-2" d="M402.79,280a8,8,0,1,1-5.45-10h0a8,8,0,0,1,5.47,9.88Zm-5.17-1.55a2.63,2.63,0,0,0-1.84-3.23l-.1,0a2.72,2.72,0,0,0-3.22,1.89,2.76,2.76,0,0,0,1.89,3.33,2.68,2.68,0,0,0,3.26-1.92v-.05Z"/><path class="cls-1" d="M76.67,247.68a24.56,24.56,0,0,1-3.17,1.46,10.23,10.23,0,0,1-10.62-2.3c-3.05-2.85-6-5.82-9-8.76a1.46,1.46,0,0,0-1.74-.47,6.1,6.1,0,0,1-6.42-1.5q-6.18-6-12.33-12.14a6.08,6.08,0,0,1-1.6-6.38,1.5,1.5,0,0,0-.5-1.74q-10.5-10.2-20.93-20.54a10.63,10.63,0,0,1-1.63-13.52,16.82,16.82,0,0,1,2.11-2.5c1.93-2,3.89-4,5.81-5.93a28.13,28.13,0,0,1,38.36-39c2-2.08,4.12-4.16,6.16-6.28a10.76,10.76,0,0,1,8.59-3.54A10.64,10.64,0,0,1,77,127.77c3.74,3.7,7.5,7.38,11.21,11.07l40.1,39.42c4.55,4.48,5.18,9,2.05,14.57a1,1,0,0,0,0,.25Zm3.21-111a13,13,0,0,1-4.22,7.48Q50.78,169.44,26,194.72c-3.12,3.16-3.07,6.85.1,10l6.3,6.2,2.5,2.43,1-1.06c4.11-4.19,8.23-8.34,12.33-12.54A15.61,15.61,0,0,1,54,195.92a15.08,15.08,0,0,1,16.1,24.66c-4.19,4.33-8.43,8.6-12.66,12.89l-1,1.05,1.12,1.06L65.08,243c3.36,3.37,7,3.3,10.36-.11q25.07-25.5,50.16-51a7,7,0,0,0,.5-9.92,6.67,6.67,0,0,0-.6-.59c-14.87-14.44-29.59-29-44.37-43.54Zm-22.7,20.09c1.86-1.89,3.65-3.68,5.37-5.51a1.49,1.49,0,0,0,0-1.24,22.48,22.48,0,0,0-7.85-10.6,23.72,23.72,0,1,0-28.62,37.83,23.48,23.48,0,0,0,6.2,3.37c.38.14,1,.24,1.26,0,1.87-1.8,3.66-3.67,5.51-5.6-1.12-1.54-2.24-2.93-3.18-4.41a1.94,1.94,0,0,0-1.89-.92c-2.09,0-4.2.07-6.31,0A4.66,4.66,0,0,1,23.09,165a4.73,4.73,0,0,1,1-2.77c1.19-1.62,2.41-3.24,3.52-4.92a2.05,2.05,0,0,0,.22-1.57c-.66-2-1.43-4-2.18-6.05a4.48,4.48,0,0,1,5.88-5.86c2,.71,4,1.44,6.08,2.07a2,2,0,0,0,1.56-.25c1.59-1.12,3.15-2.24,4.68-3.43a4.54,4.54,0,0,1,5.16-.7A4.72,4.72,0,0,1,51.65,146c0,2,0,4,.11,6.07a1.89,1.89,0,0,0,.53,1.27C53.91,154.5,55.47,155.59,57.18,156.79Zm-12.78,53h0q-3.82,3.87-7.61,7.75c-1.36,1.39-1.35,2.38,0,3.76q5.79,5.63,11.52,11.31c1.43,1.4,2.43,1.38,3.87-.07,4.81-4.89,9.63-9.77,14.41-14.69a13.13,13.13,0,0,0,2-2.59,10.74,10.74,0,0,0-16.82-12.93C49.25,204.79,46.84,207.32,44.4,209.81Zm9.66-49.93c-1.5-1.06-2.88-2.09-4.3-3a4.88,4.88,0,0,1-2.25-4.25c0-2,0-4-.1-5.93,0-.44-.06-.88-.12-1.63-1.95,1.45-3.71,2.65-5.35,4a5.28,5.28,0,0,1-5.6,1c-2.11-.79-4.27-1.43-6.65-2.24.89,2.43,1.66,4.64,2.49,6.83a4.89,4.89,0,0,1-.77,5.09c-.45.56-.87,1.12-1.28,1.73-.89,1.24-1.76,2.5-2.8,4,.77,0,1.21.08,1.66.08h5.87a4.92,4.92,0,0,1,4.27,2.24c1,1.41,2,2.77,3.08,4.2ZM19.5,198.2a12.4,12.4,0,0,1,4.21-7.38c2.1-2,4.12-4.18,6.31-6.4a28.74,28.74,0,0,1-10.6-7.53c-2.4,2.43-4.83,4.65-6.94,7.14a6,6,0,0,0,.37,7.6C14.93,193.84,17.16,195.89,19.5,198.2Zm46.83-50.71,6.93-7.07a12.91,12.91,0,0,0,1-1,6.47,6.47,0,0,0-.16-8.44c-2.24-2.43-5.93-3.09-8.34-1.07S61,134.58,58.62,137A29,29,0,0,1,66.33,147.49Z"/><path class="cls-2" d="M8.31,141.9a22.36,22.36,0,0,1,1.62,1.61,2.17,2.17,0,0,1-.1,3,2.11,2.11,0,0,1-3,0c-1.12-1-2.14-2-3.15-3.1a2,2,0,0,1-.07-2.84,2.06,2.06,0,0,1,2.9-.31l0,0a18,18,0,0,1,1.72,1.66Z"/><path class="cls-2" d="M26.41,123.45c.55.53,1.12,1,1.61,1.6a2.11,2.11,0,0,1,.06,2.86,2.08,2.08,0,0,1-2.86.29,35.73,35.73,0,0,1-3.51-3.45,2,2,0,0,1,.22-2.83h0a2,2,0,0,1,2.85,0A16.7,16.7,0,0,1,26.41,123.45Z"/><path class="cls-2" d="M15.8,131.14c.54.53,1.12,1,1.62,1.6a2.14,2.14,0,0,1-3,3,44.24,44.24,0,0,1-3.23-3.19,2.1,2.1,0,0,1,.12-3,2.12,2.12,0,0,1,2.88-.07C14.75,130,15.26,130.61,15.8,131.14Z"/><path class="cls-2" d="M81.52,230.49a10.66,10.66,0,0,1-1.12,1,2.11,2.11,0,0,1-2.77-3.15c.5-.57,1-1.11,1.58-1.63a2.15,2.15,0,0,1,3-.13,2.24,2.24,0,0,1,.16,3.07c-.25.28-.52.55-.8.81Z"/><path class="cls-2" d="M101.19,204.32c1.45-1.48,2.65-1.73,3.68-.76s.84,2.29-.64,3.8c-.27.27-.51.56-.8.8a2.24,2.24,0,0,1-3.07,0,2.16,2.16,0,0,1,0-3.06h0C100.65,204.85,100.93,204.59,101.19,204.32Z"/><path class="cls-2" d="M46.07,180.41a8.65,8.65,0,0,1,.79-.81,2.13,2.13,0,0,1,3,3,15.08,15.08,0,0,1-1.67,1.72,2.14,2.14,0,0,1-3.06-3A10.81,10.81,0,0,1,46.07,180.41Z"/><path class="cls-2" d="M68.73,157.34c.27-.27.52-.56.8-.81a2.1,2.1,0,0,1,2.86,0,2.06,2.06,0,0,1,.24,2.89l0,.05a15,15,0,0,1-1.67,1.71,2.14,2.14,0,0,1-3-3.07c.24-.28.52-.53.79-.8Z"/><path class="cls-2" d="M30.89,195.84a10.57,10.57,0,0,1,.89-.88,2.13,2.13,0,0,1,3.08,2.92,17.38,17.38,0,0,1-1.57,1.64,2.15,2.15,0,1,1-3.22-2.86l.19-.19c.2-.22.4-.43.62-.63Z"/><path class="cls-2" d="M53.6,172.72c1.51-1.54,2.74-1.77,3.77-.72s.78,2.24-.74,3.78-2.7,1.82-3.77.81S52,174.34,53.6,172.72Z"/><path class="cls-2" d="M76.24,149.71c.31-.31.58-.63.9-.9a2.13,2.13,0,0,1,3.06,2.94,15.11,15.11,0,0,1-1.57,1.63,2.12,2.12,0,0,1-3,.22l-.14-.13a2.17,2.17,0,0,1,0-3.06l.1-.09.61-.63Z"/><path class="cls-2" d="M74,238.22a9.84,9.84,0,0,1-1.37,1.12A2.12,2.12,0,0,1,70,236.16a16,16,0,0,1,1.67-1.72,2.1,2.1,0,0,1,3-.1,2.17,2.17,0,0,1,.14,3.06,10.06,10.06,0,0,1-.8.8Z"/><path class="cls-2" d="M93.54,212.11c.26-.27.52-.56.8-.81a2.08,2.08,0,0,1,2.94,0,2.13,2.13,0,0,1,.17,3,14.21,14.21,0,0,1-1.57,1.63,2.14,2.14,0,0,1-3,.05l-.05-.05a2.1,2.1,0,0,1-.07-3l.07-.07A10.09,10.09,0,0,1,93.54,212.11Z"/><path class="cls-2" d="M119.34,192.08A9.84,9.84,0,0,1,118,193.2a2.11,2.11,0,0,1-2.65-3.17,15,15,0,0,1,1.66-1.72,2.11,2.11,0,0,1,3-.12,2.16,2.16,0,0,1,.15,3.05h0a10,10,0,0,1-.78.82Z"/><path class="cls-2" d="M41.44,191.23c-1.47,1.5-2.77,1.73-3.78.69s-.74-2.24.71-3.7c.27-.28.51-.56.79-.81a2.15,2.15,0,0,1,3.07,3C42,190.7,41.71,191,41.44,191.23Z"/><path class="cls-2" d="M61.12,165.06c1.52-1.53,2.76-1.79,3.79-.79s.8,2.24-.69,3.8c-.24.23-.46.48-.71.71a2.24,2.24,0,0,1-3.16.07,2.17,2.17,0,0,1,.08-3.06C60.64,165.53,60.9,165.3,61.12,165.06Z"/><path class="cls-2" d="M86.05,219.72c.27-.27.52-.56.81-.81A2.13,2.13,0,0,1,90,221.68a11.21,11.21,0,0,1-2,2.06,2.13,2.13,0,0,1-2.85-3.12C85.45,220.3,85.76,220,86.05,219.72Z"/><path class="cls-2" d="M108.66,196.68c.27-.26.52-.54.8-.8a2.06,2.06,0,0,1,2.91,0l0,0a2.09,2.09,0,0,1,.18,2.94h0a15.49,15.49,0,0,1-1.48,1.55,2.14,2.14,0,0,1-3,.2l-.12-.11a2.1,2.1,0,0,1-.05-3l.15-.14.62-.63Z"/><path class="cls-2" d="M63.72,205.48a6.46,6.46,0,1,1-9.18.14l.11-.11a6.39,6.39,0,0,1,9-.06Zm-3.08,3a2.11,2.11,0,0,0-3,.08l0,.06a2.18,2.18,0,0,0,.07,3,2.24,2.24,0,0,0,3.07,0,2.16,2.16,0,0,0,0-3.05Z"/></svg>