<svg id="Layer_1" data-name="Layer 1" xmlns="http://www.w3.org/2000/svg" viewBox="0 0 500 500"><defs><style>.cls-1{fill:#fecf81;}.cls-2{fill:#fec481;}</style></defs><path class="cls-1" d="M154.71,427.78a42,42,0,0,1-5.25-2c-6.13-3.23-9.31-8.45-9.59-15.34-.14-3.1,0-6.2,0-9.3-1.4-.5-2.72-.86-4-1.42-8.72-4-13.44-10.82-13.53-20.38-.18-15.26,0-30.53,0-45.79V226c.15-2.79,2-4.65,4.51-4.58s4.14,1.86,4.24,4.57V377.29c0,10.23,5.12,15.4,15.27,15.4H335.18c7.41,0,12.54-3.52,14.2-9.82a18.55,18.55,0,0,0,.45-4.58V187.39c0-8.9-5.38-14.28-14.22-14.29H145.24c-8.63,0-14.13,5.52-14.16,14.15v15.69c0,3.36-1.57,5.16-4.34,5.16s-4.44-1.87-4.41-5.16c.07-6.77-.37-13.62.48-20.28,1.38-10.78,10.55-18.31,21.47-18.37,14.66-.08,29.32,0,44,0H335.94c11.24,0,20,6.92,22.24,17.57a33.66,33.66,0,0,1,.45,6.65c0,62.26-.18,124.52.16,186.77.08,14.53-7,23.19-18.37,25.92v7.64c0,9.72-4.83,16-14.21,18.51a3.66,3.66,0,0,0-.67.37H276.65c-11.61-3.44-15.32-11.26-14.55-21.66.11-1.49,0-3,0-4.48h-44c0,3.23.1,6.31,0,9.37A17.26,17.26,0,0,1,206,426.85c-.79.26-1.58.58-2.36.87Zm-6.06-26.18c0,3.25-.18,6.25,0,9.23a8.5,8.5,0,0,0,8.43,8.12q21.87.15,43.73,0a8.25,8.25,0,0,0,8.26-7.06,99.05,99.05,0,0,0,.08-10.34Zm182.85,0H270.92c0,3-.07,5.79,0,8.61a8.57,8.57,0,0,0,8.41,8.73h.44q21.48.09,43,0a8.42,8.42,0,0,0,8.69-7.53,88.48,88.48,0,0,0,.09-9.77Z"/><path class="cls-2" d="M328.11,212.55c8.5,1,12.93,6,12.95,14.38v23.41c0,9-3.89,13.58-12.9,15.12v34.83l2.06.38A12.81,12.81,0,0,1,341,312.78q.24,14,0,28a12.73,12.73,0,0,1-9.45,11.83c-1,.29-2.16.46-3.54.74v4c-.29,7.89-5.81,13.29-13.7,13.3H166.87c-9.18,0-14.57-5.35-14.59-14.47V319.7a10.44,10.44,0,0,1,.34-3,4,4,0,0,1,4.31-3,4,4,0,0,1,4,3.66,20.4,20.4,0,0,1,.11,2.82v35.49c0,4.95,1.34,6.29,6.2,6.29,48.19,0,96.38-.07,144.57.07,7.05,0,7.91-2.86,7.12-8.57a34.94,34.94,0,0,1-4.64-1.27c-5.24-2.2-8.19-6.2-8.27-11.9-.18-9-.13-18,0-27a12.88,12.88,0,0,1,11.1-12.57c1.19-.19,2.07-.27,2.07-1.89-.08-10.89-.07-21.77-.1-32.67a2.59,2.59,0,0,0-.23-.66c-.8-.13-1.71-.25-2.6-.44A13.12,13.12,0,0,1,306,252.25c-.08-8.15,0-16.29,0-24.43,0-9.15,3.91-13.8,13.08-15.31a37.8,37.8,0,0,0,0-4.76,4.07,4.07,0,0,0-4.13-3.79H167.5c-5.29,0-6.45,1.17-6.45,6.54v83.08a24.64,24.64,0,0,1-.09,3.1,4,4,0,0,1-3.91,3.77,4.15,4.15,0,0,1-4.55-3.3,12,12,0,0,1-.22-2.8V209.72c0-9.2,5.33-14.47,14.54-14.47,48.7,0,97.41.11,146.11-.11,9.21,0,15.64,6.2,15.07,15.13A21.75,21.75,0,0,0,328.11,212.55ZM314.75,239c0,4.28-.05,8.56,0,12.85,0,3,1.71,4.6,4.63,4.68,2.74.06,5.49.06,8.27,0,3-.08,4.62-1.65,4.63-4.63q.08-12.85,0-25.71c0-3.1-1.68-4.65-4.85-4.7H320c-3.58,0-5.17,1.61-5.17,5.17C314.72,230.68,314.75,234.81,314.75,239Zm17.57,87.92V314c0-3-1.55-4.63-4.55-4.73-2.72-.09-5.47-.08-8.21,0-3.1.1-4.73,1.69-4.75,4.84q-.06,12.72,0,25.44c0,3.1,1.73,4.71,4.84,4.81,2.48.06,5,0,7.45,0,3.6-.06,5.17-1.62,5.22-5.17,0-4.14,0-8.27,0-12.34Z"/><path class="cls-2" d="M187.44,283a52.72,52.72,0,1,1,52.81,52.62h0A52.72,52.72,0,0,1,187.44,283Zm14.11-21c3,1.82,7.94,2.18,6.08,7.54-1,2.85-2.89,3-9.56.88a43.17,43.17,0,0,0,0,25c6.63-2.06,8.57-2,9.56.86,1.85,5.33-3,5.73-6.08,7.56a42.82,42.82,0,0,0,17.68,17.64c3.11-6.11,4.57-7.47,7.31-6.2,5.07,2.4,2.07,6.2,1,9.7,8.46,2.38,16.67,2.59,25-.11-2.07-6.25-2-8.36.66-9.37,5.41-2.07,6,2.75,7.71,6a43.24,43.24,0,0,0,17.74-17.71c-3.1-1.82-7.95-2.19-6.09-7.55,1-2.85,2.91-2.95,9.56-.85a43,43,0,0,0,0-25c-6.66,2.07-8.58,2-9.56-.89-1.86-5.36,3.05-5.7,6.09-7.53A42.88,42.88,0,0,0,261,244.32c-3.22,6.2-4.63,7.45-7.33,6.2-5-2.4-2.06-6.15-1.09-9.67a41.48,41.48,0,0,0-25,.08c2.06,6.33,2.06,8.27-.65,9.36-5.48,2.19-5.91-2.87-7.79-6A43,43,0,0,0,201.55,262Z"/><path class="cls-1" d="M178.69,221.43v15.32a20.49,20.49,0,0,1-.14,2.82,4.3,4.3,0,0,1-4.2,3.77,4.2,4.2,0,0,1-4.34-3.9c-.2-2.37-.12-4.78-.13-7.18,0-4.8,0-9.59,0-14.39.05-3.66,1.59-5.17,5.17-5.17h20.56c3.1,0,4.94,1.68,4.95,4.33s-1.87,4.39-4.93,4.41C190.06,221.46,184.53,221.43,178.69,221.43Z"/><path class="cls-1" d="M213.83,282.78A26.3,26.3,0,1,1,240,309.23,26.3,26.3,0,0,1,213.83,282.78Zm8.75,0a17.58,17.58,0,1,0,17.64-17.51h-.06a17.52,17.52,0,0,0-17.59,17.42v.09Z"/><path class="cls-1" d="M494.67,352.53V370a16.22,16.22,0,0,1-2.43,3.44,23.16,23.16,0,0,1-4.8,3.1c-1.94,1-4,1.65-6.21,2.53v16.45c1.1.62,2.34,1.26,3.5,2a6.69,6.69,0,0,1,3.3,6.21c-.12,4.13-.19,8.36,0,12.52.17,3.48-1.35,5.78-4.14,7.57a37.56,37.56,0,0,1-10.41,4.38c-12.87,3.58-26.05,4.77-39.34,5.17a204.64,204.64,0,0,1-27.9-1,134.94,134.94,0,0,1-25-4.49,32.31,32.31,0,0,1-10.49-4.79,7.24,7.24,0,0,1-3.16-6.36c.13-5.29,0-10.58,0-15.82-1.3-.89-2.73-1.74-4-2.74a6.62,6.62,0,0,1-2.7-5.65c.09-4.61.06-9.22,0-13.83a5.8,5.8,0,0,1,2.34-5,24.21,24.21,0,0,1,4.59-2.69c2.06-.9,4.22-1.52,6.48-2.31V352.21a27.86,27.86,0,0,1-3.55-1.29,71.68,71.68,0,0,1-7.35-4.14,6,6,0,0,1-2.51-5.43c.07-4.61,0-9.22,0-13.83A5.82,5.82,0,0,1,363,322.8a16.73,16.73,0,0,1,2.77-1.93A41,41,0,0,1,377.16,317c12.09-2.55,24.37-3.3,36.68-3.65a274.78,274.78,0,0,1,35.83,1.32c6.84.7,13.67,1.53,20.24,3.66a49.59,49.59,0,0,1,8.15,3.65,5.62,5.62,0,0,1,3.1,5c0,5.77,0,11.52,0,17.34,1.74.58,3.79,1.17,5.77,1.94C490.29,347.53,493.28,349.09,494.67,352.53Zm-73.09-34.77a253.66,253.66,0,0,0-31.17,1.62,94.14,94.14,0,0,0-18.5,3.68,30.06,30.06,0,0,0-5.5,2.6c-1.15.67-1.08,1.39-.11,2.31a4.73,4.73,0,0,0,1.24.94,58,58,0,0,0,6.2,2.73c9.8,3.26,20,4.66,30.2,5.44a208.05,208.05,0,0,0,49.55-1.79,77.84,77.84,0,0,0,18.61-4.94,20.29,20.29,0,0,0,4-2.38c1-.78,1-1.55-.06-2.31a15.59,15.59,0,0,0-3.3-1.81c-5.87-2.31-12.05-3.34-18.25-4.14A241.52,241.52,0,0,0,421.58,317.76Zm-42.45,35.73-.18.27a5.42,5.42,0,0,0,1,1.21,25.74,25.74,0,0,0,3.49,2,70.77,70.77,0,0,0,15.5,4.43,178.77,178.77,0,0,0,29.28,3c15.78.4,31.46-.5,46.9-4.05A44.71,44.71,0,0,0,488,355.81c2.89-1.69,2.95-2.94-.09-4.24-3.24-1.4-6.71-2.32-10.09-3.4a1.42,1.42,0,0,0-1,.23,48.75,48.75,0,0,1-14.13,5.16,178.9,178.9,0,0,1-38.94,4.14A193.58,193.58,0,0,1,382,354Zm93.33,28.17-.11-.44a7.36,7.36,0,0,0-1,.12c-5.29.74-10.56,1.66-15.87,2.21a206.71,206.71,0,0,1-29.44.84c-11.67-.47-23.25-1.61-34.59-4.5-5.27-1.33-10.5-2.84-14.79-6.48a1.24,1.24,0,0,0-1-.15c-2.15.68-4.32,1.33-6.41,2.15a15.78,15.78,0,0,0-3,1.8,1,1,0,0,0-.41,1.41,1.12,1.12,0,0,0,.31.34,5.37,5.37,0,0,0,1.3,1,52.87,52.87,0,0,0,6.2,2.78c10.75,3.6,21.93,5,33.17,5.73a210.58,210.58,0,0,0,28.42,0,150.94,150.94,0,0,0,28.59-4.2c2.85-.65,5.74-1.68,8.67-2.64ZM372.54,403l-.2.17a11.74,11.74,0,0,0,2.12,1.61,73.34,73.34,0,0,0,8.19,3.3c9.91,3,20.14,4.28,30.43,4.93a204,204,0,0,0,48.74-2.28,74.22,74.22,0,0,0,17.05-4.69,20.15,20.15,0,0,0,3.89-2.33c1-.8,1-1.46-.06-2.17a43.19,43.19,0,0,0-4.48-2.33,1.24,1.24,0,0,0-.94.14c-4.77,3-10.07,4.45-15.51,5.65a209.19,209.19,0,0,1-77.64.75c-3.89-.77-7.76-1.83-11.63-2.75Zm59.72-49.85v-11h-8.73v11Zm-13.32,0v-11h-8.77v10.95Zm20,75.74V418h-8.74v10.91Zm-13.44,0v-11h-8.74v10.94Zm6.72-35.42h-8.77V404.4h8.77Zm-22.13-.05v11h8.75v-11Zm35.43-13.52v-11h-8.72v10.95Zm-13.31-11h-8.76v11h8.76Zm-33.29,23.57V403.5l6.57.54V393Zm13.34-24.53V379l6.56.54V368.48Zm24.51-15.08,6.54-.6v-11l-6.54.53Zm6.57,50.65v-11l-6.55.54v11.1ZM456.73,379V367.93l-6.56.55v11Zm-51.15-26.16V342.49a1.07,1.07,0,0,0-.71-.79c-1.93-.21-3.86-.31-5.87-.46v11Zm-11.21-1.1v-11l-6.58-.91v10.91Zm.12,63.8v10.93l6.55,1v-11Zm66.72,0-6.57.94v11l6.57-1Zm.12-37.08c2.06-.31,4-.56,6-.94.27-.05.62-.66.63-1,.06-2.21,0-4.42,0-6.65v-3.32l-6.63.94ZM387.73,391v10.21a1.16,1.16,0,0,0,.74.81c1.92.35,3.85.61,5.85.91v-11Zm8.93-14.47V366.32a.91.91,0,0,0-.5-.73c-2-.5-4-.93-6.07-1.39v10.7Zm62.46,24.5,6.53-1.61V388.73l-6.53,1.49Zm-69.26,24.51v-10.9l-6.63-1.48v10.06a1,1,0,0,0,.62.78c2,.58,4,1.06,6,1.57Zm75.86-10.86v10.87c2.07-.53,4.13-1,6.08-1.57.27-.07.54-.62.56-1,.06-1.52,0-3,0-4.54v-5.29ZM459.1,339v10.82c2.13-.52,4.14-1,6.13-1.56.24-.07.45-.68.46-1V337.5Zm-53.41,78v11l6.45.56V417.46ZM450,428V417l-6.47.52v11.08Zm-48.88-61.49v10.22a.91.91,0,0,0,.51.74c2,.35,4,.64,6,.95v-11ZM448,391.92v11c1.88-.28,3.67-.6,5.47-.81.91-.1,1.13-.5,1.12-1.34V391Zm6.47-52.14-6.48.92v11l6.48-1Zm18,36.76c1.41-.33,2.68-.6,3.94-.92,2.65-.68,2.65-.68,2.65-3.42v-8l-6.59,1.53ZM372.21,346.69V336.48a.86.86,0,0,0-.41-.58c-2.07-.91-4.14-1.78-6.27-2.71v9a1.87,1.87,0,0,0,.55,1.13c1.61,1.71,3.74,2.5,6.09,3.41Zm118.06,13.23c-2.12.92-4.14,1.76-6.07,2.65a1.15,1.15,0,0,0-.61.81v10a16.48,16.48,0,0,0,5.9-3.17,2.69,2.69,0,0,0,.78-1.68c0-2.84,0-5.7,0-8.63Zm-118.1,37.93V387.8a.77.77,0,0,0-.36-.6c-2.07-.93-4.14-1.82-6.33-2.75v8.68a2.2,2.2,0,0,0,.54,1.4A14,14,0,0,0,372.17,397.85Zm4.51,1.64,6.53,1.59V390.21l-6.53-1.47Zm6.58-49.62V339.42a.88.88,0,0,0-.55-.56c-2-.48-3.95-.9-6.06-1.37v10.1a1.06,1.06,0,0,0,.64.75c1.92.53,3.78,1,6,1.53Zm86.9,48a18.09,18.09,0,0,0,6.28-3.58,1.27,1.27,0,0,0,.39-.79v-9.07l-6.2,2.7a1,1,0,0,0-.49.76C470.16,391.18,470.16,394.44,470.16,397.9Zm-85-24.42.36-.34v-7.29c0-3,0-3-2.68-4.13-1.33-.57-2.62-1.22-4-1.88,0,2.86-.06,5.55,0,8.27a3,3,0,0,0,.95,2.06,62.45,62.45,0,0,0,5.4,3.31Zm85-27,.37.32c1.88-1.11,3.78-2.21,5.63-3.38a1.67,1.67,0,0,0,.68-1.18c.05-3,0-5.94,0-9-2.17.93-4.18,1.78-6.2,2.68a1.08,1.08,0,0,0-.49.78C470.16,339.92,470.16,343.18,470.16,346.44Zm-91.35,76.32v-10.5a.82.82,0,0,0-.38-.59c-2.07-.9-4.13-1.76-6.2-2.67v8.91a2.06,2.06,0,0,0,.75,1.41c1.79,1.14,3.67,2.18,5.82,3.43ZM483.5,409c-2.12.91-4.14,1.74-6.13,2.67a1.4,1.4,0,0,0-.47,1v10c2.07-1.18,3.89-2.13,5.61-3.19a2.15,2.15,0,0,0,1-1.44c0-3,0-6,0-9.09Z"/><path class="cls-1" d="M202.61,76.25a26.28,26.28,0,0,1,.07,4.61c-2.07,12.88-4.28,25.73-6.3,38.63a6.2,6.2,0,0,1-4.53,5.48c-11.37,4.14-22.73,8.54-34.1,12.75a3.17,3.17,0,0,0-2.45,2.91c-.67,4.74-1.52,9.46-2.34,14.18-.55,3.1-2.35,4.59-4.8,4.14s-3.49-2.47-3-5.37c.74-4.65,1.43-9.3,2.34-13.92a3.56,3.56,0,0,0-1.45-4c-9.45-7.64-18.79-15.43-28.23-23.07a5.7,5.7,0,0,1-2.31-6Q118.87,86.81,122,67a5.41,5.41,0,0,1,3.8-4.68c12.61-4.69,25.2-9.47,37.82-14.15a18,18,0,0,1,4.08-.54Zm-13.34,37c1.85-11.1,3.62-21.58,5.27-32A3,3,0,0,0,193.38,79q-11.41-9.6-23-18.91c-.5-.34-1-.66-1.53-1-1.77,10.69-3.54,21.09-5.17,31.52a3.57,3.57,0,0,0,1.3,2.51c6.07,5.1,12.22,10.11,18.35,15.14Zm-65-10.77c10.33-3.88,20.2-7.57,30.05-11.37A3.5,3.5,0,0,0,156,88.71c1.68-9.67,3.26-19.38,4.85-29.06.1-.59.1-1.19.16-2.07-10.24,3.85-20.21,7.59-30.15,11.37a2.09,2.09,0,0,0-1.17,1.33C127.79,80.92,126.07,91.5,124.26,102.45Zm59.7,17a9.43,9.43,0,0,0-.82-1c-7.84-6.46-15.68-12.94-23.61-19.31a3.78,3.78,0,0,0-3.1-.27c-9.14,3.33-18.25,6.79-27.37,10.23a17.46,17.46,0,0,0-1.67.85l21.87,18c.2-1,.35-1.85.49-2.65.67-4.07,1.3-8.15,2.06-12.21.48-2.52,2.34-3.86,4.57-3.51s3.49,2.18,3.24,4.77c-.09.74-.24,1.47-.37,2.21-.68,4.2-1.36,8.42-2.06,13Z"/><path class="cls-1" d="M73.53,81.56c4.79,3.93,9.61,7.82,14.35,11.82a3,3,0,0,0,3.54.58c5.3-2.06,10.66-4,16-6,1.83-.68,3.69-.47,4.59,1.23a6.19,6.19,0,0,1,.35,4.32c-.29.91-1.76,1.66-2.85,2.07-4.91,1.94-9.84,3.85-14.85,5.55a3.87,3.87,0,0,0-2.89,3.63C89.9,116.58,87.84,128.37,86,140.2a6.18,6.18,0,0,1-4.47,5.49c-11.37,4.14-22.74,8.5-34.11,12.71A3.19,3.19,0,0,0,45,161.3c-.77,5.4-1.72,10.76-2.64,16.14-.51,3.1-2.29,4.63-4.69,4.23s-3.61-2.46-3.1-5.5c.86-5.3,1.68-10.61,2.67-15.88a3.45,3.45,0,0,0-1.45-3.77c-9.37-7.61-18.61-15.34-28-22.91a6.44,6.44,0,0,1-2.55-6.88Q8.6,107.35,11.64,87.9a5.72,5.72,0,0,1,4-5Q34.36,76,53,68.85a5.71,5.71,0,0,1,6.38,1C64,73.84,68.8,77.7,73.53,81.56Zm-22.8-3.31C40.3,82.17,30.33,85.87,20.42,89.7A3.37,3.37,0,0,0,19,92c-1,6.1-2.06,12.22-3,18.31-.69,4.14-1.38,8.27-2.07,12.48a3.62,3.62,0,0,0,.93,0c9.74-3.65,19.47-7.24,29.18-11A2.68,2.68,0,0,0,45.43,110C47.21,99.61,48.92,89.2,50.73,78.25Zm7.92,1.52c-.18.77-.33,1.22-.41,1.7-1.63,9.85-3.31,19.7-4.83,29.57a3.71,3.71,0,0,0,1.24,2.84c7.55,6.32,15.17,12.53,22.74,18.76a15.9,15.9,0,0,0,1.55,1l4.69-28.34-10.37,3.92c-3.94,1.48-6.2,1-7.13-1.62s.45-4.33,4.24-5.77l10.34-3.94ZM73.89,140c-8.36-6.86-16.3-13.32-24.16-19.89a3.24,3.24,0,0,0-3.74-.63c-9.08,3.5-18.21,6.89-27.32,10.34a15.35,15.35,0,0,0-1.66.86l22,18c.7-4.22,1.33-8.1,2-12,.53-3,2.33-4.63,4.74-4.2s3.58,2.44,3.1,5.53c-.61,3.88-1.27,7.76-2,12.08Z"/><path class="cls-1" d="M23.86,258.12c-5.17-4.25-10.33-8.55-15.5-12.72a5.35,5.35,0,0,1-2.07-5.64q3.39-19.9,6.62-39.83a5.38,5.38,0,0,1,3.83-4.63q18.75-7,37.5-14.14a5.7,5.7,0,0,1,6.36,1.11c9.39,7.84,18.9,15.51,28.32,23.35a3,3,0,0,0,3.52.63c4.28-1.72,8.63-3.29,13-4.93,3.34-1.25,5.6-.65,6.55,1.72s-.27,4.4-3.84,5.76c-4.25,1.61-8.47,3.27-12.75,4.78a3.12,3.12,0,0,0-2.29,2.77c-1.93,12.06-4,24.12-5.91,36.18A6.22,6.22,0,0,1,82.61,258q-18.49,6.79-36.87,13.88a5.83,5.83,0,0,1-6.59-1.12C34.15,266.45,29,262.33,23.86,258.12Zm-5.8-15.2c.46.45.72.75,1,1,7.78,6.4,15.5,12.82,23.4,19.12a3.64,3.64,0,0,0,3,.31c8.91-3.24,17.77-6.61,26.65-9.95.82-.31,1.62-.65,2.67-1.09a9.82,9.82,0,0,0-1-1c-7.78-6.4-15.51-12.83-23.39-19.12a3.73,3.73,0,0,0-3.11-.31c-9.13,3.34-18.23,6.79-27.33,10.22C19.43,242.28,18.86,242.56,18.06,242.92Zm-3-7.48c10.33-3.89,20.37-7.66,30.37-11.52a3,3,0,0,0,1.23-2.07c1-6,2.07-12,3-18.07.72-4.29,1.42-8.58,2.13-13a6,6,0,0,0-1,.13c-9.65,3.62-19.33,7.23-28.94,10.94a3.45,3.45,0,0,0-1.69,2.31c-1.26,7.06-2.39,14.16-3.55,21.24C16.16,228.61,15.64,231.9,15.08,235.44Zm66.68-25.23-21.88-18a5.55,5.55,0,0,0-.34.83c-1.67,10.09-3.39,20.18-4.94,30.3a3.74,3.74,0,0,0,1.28,2.81c7.24,6,14.47,12,21.81,18l2.4,2c1.61-9.7,3.1-18.93,4.73-28.55l-13.74,5.17c-3,1.11-5.17.37-6-2s.29-4.3,3.25-5.44C72.7,213.63,77.09,212,81.76,210.21Z"/></svg>