<svg id="Layer_1" data-name="Layer 1" xmlns="http://www.w3.org/2000/svg" viewBox="0 0 500 500"><defs><style>.cls-1{fill:#fecf81;}.cls-2{fill:#fec481;}</style></defs><path class="cls-1" d="M4.11,150.88C7,143.23,8.86,134.93,13,128c10.46-17.28,26.53-26,46.72-26.75,9.74-.34,19.5-.06,29.69-.06C92.6,73.93,105.05,52.21,128,37a81.92,81.92,0,0,1,51.32-13.7,83,83,0,0,1,54.35,24C248.79,61.92,257.05,80,259.28,101h34.11c2.7-4,4.35-8.69,7.64-10.83,3.5-2.28,8.55-2.2,12.93-3.12a3.31,3.31,0,0,1,1.33,0c6,1,9.42-.76,12.31-6.91,4.54-9.66,13.49-14.2,24.23-14.35,12.57-.17,25.13,0,37.7,0h4.88c0-2.34-.06-4.35,0-6.37.16-4.79,3.06-7.88,7.23-7.79,4,.1,6.84,3.09,6.91,7.67.11,6.75,0,13.51,0,20.68h27.38c3.85,0,6.62,1.51,7.8,5.25,1.45,4.59-2.12,8.86-7.57,8.92-9,.1-18,0-27.3,0V122.5h24.3a38.49,38.49,0,0,1,4.43.07,7.08,7.08,0,0,1,6.41,7.24c-.13,3.83-3,6.73-7.29,6.82-6.51.15-13,.05-19.52.05H408.6v16.8c0,1.63.1,3.27-.06,4.88a7,7,0,0,1-14.05.08c-.21-2.32,0-4.68,0-7.57h-7.26c-10.2,0-20.42-.29-30.6.07-15.77.57-26.78-5.76-32.35-21.35H312.49c-10.86,0-15.28-3.46-17.8-14H259.36c-3.05,26.66-15.19,48.13-37.48,63.37a81.82,81.82,0,0,1-51.12,14.43,83.19,83.19,0,0,1-55.34-23.76C100.1,154.91,91.8,136.72,89.58,116c-12,0-23.79-1.21-35.23.27-21.42,2.76-35.94,20.46-36,42.18-.12,33.1,0,66.21,0,99.32V363.49H32.11c.37-5.24.45-10.66,1.17-16,3.77-27.71,26-50.07,53.57-53.85,3.76-.52,5.93-1.91,7.54-5.46,12-26.43,30.09-47.5,55.28-62.27,65.37-38.35,150-14.23,185.27,52.85,2.39,4.56,3.74,10.93,7.52,13.17,4,2.35,10.3.66,15.59.87,12.67.51,25.59-.3,38,1.91,35.5,6.37,61.72,38.41,62.21,74.5.19,14.19.07,28.38,0,42.57,0,6.26-2.57,8.7-9,8.71-13.89,0-27.79.09-41.69-.06a5.36,5.36,0,0,0-5.49,3.14,49.41,49.41,0,0,1-86.32-.11,5.06,5.06,0,0,0-5.11-3q-65.19.1-130.39,0c-2.45,0-3.84.61-5.17,2.92-19.55,34.07-66.84,34-86.52-.12-1.22-2.12-2.44-2.83-4.79-2.81-14,.1-28.09.07-42.13,0-6.68,0-9.1-2.42-9.11-9.06v-33.5c-6.13,0-12.13-.23-18.1.07-4.34.22-7.78-.9-10.29-4.51Zm440,255.27V371.6c-.14-36.47-28.22-64.49-64.75-64.61-13,0-26-.15-39,.07-4.91.08-8.07-1.56-10.12-6.12C327.76,295.43,325,290,322,284.76,300,245.85,266.58,224,222,222.2c-45.71-1.82-81.37,17.89-106.25,56.37-4.71,7.28-8.28,15.31-12.22,23.07a8.89,8.89,0,0,1-8.32,5.43C67.31,308.34,47,329.52,46.81,357.45c-.09,15.08,0,30.16,0,45.23,0,1.13.18,2.26.27,3.29H82.44c-3.27-34.45,22.35-55.3,45.68-56.61,13.64-.76,25.79,2.9,36.08,11.86,13.58,11.82,18.68,27.11,17,44.78H309.51c-3.29-34.71,22.7-55.75,46.53-56.7,13.48-.53,25.44,3.25,35.53,12.18,13.36,11.81,18.37,27,16.73,44.67ZM174.55,37.36c-38.7-.19-70.87,31.57-71.08,70.15-.22,39.25,31.2,71.48,69.92,71.74a70.95,70.95,0,1,0,1.3-141.89ZM394.21,79.93c-14.23,0-28-.05-41.69,0-9,0-14.81,6-14.87,15.15q-.09,13.07,0,26.14c.05,9.6,5.86,15.41,15.49,15.44h37.67c1.12,0,2.25-.19,3.41-.3ZM96.37,399.27a35.47,35.47,0,1,0,35.52-35.52A35.47,35.47,0,0,0,96.37,399.27Zm262.47-35.52a35.47,35.47,0,1,0,35.55,35.39v-.34A35.52,35.52,0,0,0,358.84,363.75ZM323.07,115.31v-13.8H309.59v13.8Z"/><path class="cls-1" d="M217,307H123.41c-9.49,0-12.45-4.41-8.14-13,21.2-42.15,55.53-65,102.65-64.71,46.35.34,80.08,23.24,100.86,64.76,4.27,8.52,1.28,12.92-8.26,12.92Zm84.53-14.41c-14.2-28.67-49.08-48.31-77.18-48.75v48.75Zm-91.9.07v-49c-35.24,1.7-67,26.59-76.88,49Z"/><path class="cls-1" d="M248.65,335.36c-3.4,0-6.81.11-10.2,0-4.25-.19-7.13-3.05-7.22-6.89-.1-4,2.86-7.12,7.34-7.21q10.41-.21,20.83,0c4.26.09,7.14,3,7.23,6.87s-2.88,7-7.34,7.25h-.89Z"/><path class="cls-2" d="M195.71,94.12c9.42,0,18.14.06,26.85,0,3.76,0,6.74,1,8.14,4.77s-.27,6.25-2.9,8.58q-31,27.51-62,55.06c-2.5,2.22-5.19,3.41-8.48,1.87s-4.25-4.21-4.24-7.6c.06-11.22,0-22.43,0-34.27H126c-3.58,0-6.41-1.07-7.83-4.56s0-6.28,2.66-8.63L183.18,54c2.37-2.11,5-3.18,8.11-1.82s4.44,4.06,4.43,7.48C195.69,71,195.71,82.31,195.71,94.12ZM181.52,74.46l-38.07,33.85h10.24c12.9,0,13.63.75,13.63,13.82V142.2l37.5-33.37a7.91,7.91,0,0,0-1.24-.43c-4.43,0-8.85,0-13.28-.09-6.3-.07-8.75-2.54-8.77-8.93C181.49,91.45,181.52,83.51,181.52,74.46Z"/><path class="cls-2" d="M131.91,427.6a28.38,28.38,0,1,1,28.31-28.45v.34A28.42,28.42,0,0,1,131.91,427.6ZM146,399.38a14.17,14.17,0,1,0-14.34,14h.12A14.22,14.22,0,0,0,146,399.38Z"/><path class="cls-2" d="M387.29,399.17a28.38,28.38,0,1,1-28.55-28.32,28.38,28.38,0,0,1,28.55,28.32Zm-14.2,0A14.17,14.17,0,1,0,359,413.39h.12A14.22,14.22,0,0,0,373.09,399.17Z"/><rect class="cls-2" x="49.75" y="453.41" width="448.44" height="11.43"/><rect class="cls-2" x="4.11" y="479.16" width="133.6" height="11.43"/><rect class="cls-2" x="347.47" y="479.16" width="150.64" height="11.43"/></svg>