<svg id="Layer_1" data-name="Layer 1" xmlns="http://www.w3.org/2000/svg" viewBox="0 0 500 500"><defs><style>.cls-1{fill:#fecf81;}</style></defs><path class="cls-1" d="M288.4,274c4.17,21.31-4.45,30.65-30.06,32.79v23.5c1.17-.86,2.18-1.51,3.09-2.29a55.25,55.25,0,0,1,35.83-13.55c5.28-.08,10.57-.06,15.86,0,4.37.05,7.86,2.27,8.06,6.52.64,13.67,1.55,27.53-4.82,40.36-10.25,20.62-27,31.44-50,32.43-2.61.11-5.22,0-8.19,0v15.49H242.24V394.63c-7.72-.95-15-1.16-22-2.84C196.48,386,179.39,364.44,178.73,340c-.16-5.78-.14-11.57,0-17.35.09-4.6,2.61-8,7.13-8,10,.1,20.13.34,30,1.74s18,7.08,25.83,14.25V306.5c-9,.43-18-.05-24.76-7.49-6.6-7.25-8-15.64-5.13-24.92-1.72-.84-3.21-1.5-4.65-2.26a23.73,23.73,0,0,1-7.78-35.32c1.7-2.27,2.1-5.5,3.05-8.31.15-.45,0-1,0-1.48,1.46-9.22-2.19-15.31-9.52-21.39-28.66-23.78-37.89-64.08-23.66-98.6,14.36-34.81,49.53-56.74,86.59-54,36.34,2.7,67,26.92,77.5,61.27a86.54,86.54,0,0,1-29.44,94.2c-4.7,3.69-6.62,7.58-6.38,13.42.26,6.38.58,12,4.65,17.92,7.52,10.88,2.61,25.87-9.15,32.21C291.62,272.55,290.11,273.19,288.4,274Zm-6.75-47.08a25.91,25.91,0,0,0,.13-3.34c-1.25-12.33,3.81-21,13.46-28.89,20.41-16.7,28.91-38.89,25.34-65.21-5.41-39.92-43.19-66.88-83.61-59.9-38.88,6.72-65.24,46.26-56.75,85.06,3.72,17,12.28,31,26.12,41.39,8.36,6.3,12.7,14.08,12,24.58-.14,2.07,0,4.16,0,6.13h23.8c0-5.51.32-10.65-.13-15.73a12.68,12.68,0,0,0-2.94-7.23c-8.3-8.75-17-17.1-25.45-25.72-7.77-7.94-9.63-18.87-5.1-28.35,4.68-9.77,14.52-15.6,25.64-13.63,5.72,1,11,4.47,17.11,7.09.35-.3,1.57-1.39,2.86-2.39a24.85,24.85,0,0,1,31.13.65c9,7.67,12,21.24,5.33,30.92-5.23,7.59-12.31,13.91-18.34,20.55l-12.37-11.69c3.75-3.38,7.41-6.45,10.81-9.79,8.06-7.92,9.35-12.9,4.73-17.41s-9.32-3.05-17.08,4.69c-.82.82-1.59,1.69-2.47,2.44-3.86,3.34-7.74,3.39-11.55,0-2.1-1.86-4-4-6-5.93-4.54-4.4-9.85-4.87-13.58-1.25-3.91,3.8-3.5,9.19,1.16,13.91,5.93,6,11.4,12.59,18,17.75,11.42,8.95,16.68,19.84,14.17,34.3-.38,2.2-.05,4.52-.05,7ZM195,330.78c-4.2,28.32,19.87,52.23,46.8,46.5C244.62,348,223.29,326.76,195,330.78Zm63.45,46.93c32.92,3.36,50.92-23.34,46.52-47C275.85,327.59,254.7,348.82,258.47,377.71ZM250.06,243c-10.08,0-20.16,0-30.24,0-5.84,0-9.38,3.09-9.38,7.91s3.54,7.91,9.38,7.92q30.24.08,60.48,0c5.83,0,9.39-3.12,9.39-7.92s-3.56-7.88-9.38-7.91C270.23,243,260.15,243,250.06,243Zm.49,31.75c-5.29,0-10.58-.11-15.86,0-5.07.14-8.39,3.4-8.38,7.9s3.33,7.82,8.4,7.88q15.36.19,30.73,0c5.06-.06,8.39-3.41,8.38-7.9s-3.33-7.74-8.4-7.88S255.5,274.77,250.55,274.77Z"/><path class="cls-1" d="M107.73,414.31c2.36,1.66,4.6,3.05,6.65,4.69,10.52,8.44,16.19,19.44,16.6,32.92.29,9.24.13,18.5.06,27.75,0,6.44-3,9.32-9.48,9.33q-38.15.06-76.3,0c-6.47,0-9.34-2.92-9.39-9.4-.07-8.92-.16-17.85,0-26.76.3-15.29,7-27.22,19.49-35.95,1.19-.83,2.44-1.59,3.65-2.38-10.62-18.39-9-34.57,4.53-45.39a31.6,31.6,0,0,1,41.31,1.29C117.28,381.71,118.47,398.25,107.73,414.31ZM115.18,473c0-7.12.11-13.71,0-20.3-.28-13.05-9-24.13-21.9-26.27a59.52,59.52,0,0,0-20.58.24c-10.58,2.05-17.87,9.17-19.81,19.76C51.28,455,51.78,464,51.35,473ZM99.3,393.75a15.85,15.85,0,1,0-15.69,15.9A16,16,0,0,0,99.3,393.75Z"/><path class="cls-1" d="M392.48,414.47c-10.87-16.42-9.64-32.93,3-44.25a31.56,31.56,0,0,1,41.69-.6c13.11,11.07,14.6,27.74,3.83,44.75,1.34.91,2.7,1.8,4,2.73,12.32,8.67,18.83,20.53,19.19,35.6.22,8.91.1,17.84,0,26.76,0,6.71-2.91,9.54-9.76,9.55q-37.89,0-75.8,0c-6.78,0-9.56-2.86-9.61-9.69-.06-6.44.28-12.9-.07-19.32C368,440.33,374.74,424.79,392.48,414.47ZM448.33,473c0-7.71.35-15-.08-22.19a26.52,26.52,0,0,0-20.74-24.21c-5.09-1.07-10.48-1-15.73-.94-12.58.22-23.68,8.8-25.81,21.19-1.46,8.47-1,17.27-1.36,26.15Zm-31.51-95a15.86,15.86,0,1,0,15.71,15.87A15.92,15.92,0,0,0,416.82,377.94Z"/><path class="cls-1" d="M166.21,37.35l15.5,15.78L171,63.68,155.77,48.13Z"/><path class="cls-1" d="M146.66,139.64H123.47V124.29h23.19Z"/><path class="cls-1" d="M353.43,139.51V124.25h23.18v15.26Z"/><path class="cls-1" d="M257.7,36.6H242.52V13.24H257.7Z"/><path class="cls-1" d="M345,47.69l-16.75,16.2L318,53.67,334.47,37.2Z"/><path class="cls-1" d="M257.75,425.83V441H242.47v-15.2Z"/><path class="cls-1" d="M162.5,472.9H147.3V457.61h15.2Z"/><path class="cls-1" d="M194.3,457.62v15.27H179.05V457.62Z"/><path class="cls-1" d="M226.16,457.69v15.08H210.73V457.69Z"/><path class="cls-1" d="M257.6,473H242.44V457.54H257.6Z"/><path class="cls-1" d="M274.15,457.51h15.22v15.32H274.15Z"/><path class="cls-1" d="M321.06,473H306V457.61h15.08Z"/><path class="cls-1" d="M353,457.66v15.19H337.59V457.66Z"/><path class="cls-1" d="M11.6,262.27c.37-2.73.63-5.47,1.14-8.17,3.81-20.19,14.31-36,31.33-47.44,1.29-.87,2.48-.71,3.2.35s.37,2.32-1.07,3.28A67.52,67.52,0,0,0,32.29,310.92c11.16,12.75,25.12,20.56,41.91,22.82,19.09,2.57,36.32-2.29,51.53-14.16.41-.32.8-.66,1.21-1a2.13,2.13,0,0,1,3.12.16,2,2,0,0,1-.46,3.06A114.74,114.74,0,0,1,119.38,329a71.79,71.79,0,0,1-105.6-44.75c-1-3.79-1.3-7.73-1.93-11.6-.07-.45-.16-.91-.25-1.36Z"/><path class="cls-1" d="M88,194.88c2.67.37,5.36.67,8,1.11,28.12,4.61,51.93,27.32,57.64,55.23,4.8,23.49-.63,44.47-16.07,62.84-1.12,1.33-2.22,1.62-3.25.9s-1.12-2.06-.15-3.42c2.79-3.86,5.85-7.56,8.22-11.67,14.09-24.32,10.86-56.06-7.66-77.21A67.64,67.64,0,0,0,56.25,204.8c-.35.15-.68.32-1,.45a2.11,2.11,0,0,1-3-1,2,2,0,0,1,1.22-2.85c2.94-1.2,5.88-2.43,8.89-3.39a64.49,64.49,0,0,1,15.53-2.94,6.94,6.94,0,0,0,1.08-.23Z"/><path class="cls-1" d="M83.53,328.8a62,62,0,1,1,62-62.08A62.06,62.06,0,0,1,83.53,328.8Zm-.08-4.21a57.84,57.84,0,1,0-57.81-57.84A57.85,57.85,0,0,0,83.45,324.59Z"/><path class="cls-1" d="M78.84,227.33h3.65c0-1.13,0-2.22,0-3.32a19.19,19.19,0,0,1,.32-4A6.26,6.26,0,0,1,95,221.18a52.47,52.47,0,0,1,.06,5.61,1.44,1.44,0,0,0,1.21,1.67,22,22,0,0,1,13,10.89c.84,1.57.33,3-1.15,3.37s-2.06-.48-2.65-1.55a18,18,0,0,0-10.65-8.78l-.4-.13c-3.54-1-3.54-1-3.54-4.6,0-1.78,0-3.56,0-5.33s-.79-2.58-2.12-2.56-2,.91-2.07,2.62c0,2.19,0,4.39,0,6.59,0,1.89-.76,2.61-2.67,2.63q-3.37,0-6.74,0c-1.89,0-2.62-.76-2.64-2.66,0-2.11,0-4.21,0-6.32,0-1.69-.77-2.58-2.1-2.58s-2.07.9-2.09,2.59c0,2.11,0,4.21,0,6.32,0,1.9-.75,2.63-2.65,2.65-2.44,0-4.87,0-7.3,0s-3.75,1.4-3.76,3.46a3.52,3.52,0,0,0,3.73,3.54c1.63,0,3.27,0,4.91,0a2.11,2.11,0,0,1,2.33,2.23c0,.37,0,.75,0,1.12v49.69c0,2.83-.55,3.38-3.36,3.38-1.31,0-2.62,0-3.93,0a3.49,3.49,0,1,0-.18,7c2.43.09,4.87,0,7.3,0s2.89.59,2.91,2.92c0,2.15,0,4.3,0,6.45,0,1.69.78,2.58,2.11,2.57s2.06-.91,2.08-2.6c0-2.25,0-4.49,0-6.74,0-1.93.71-2.59,2.65-2.6h6.6c2.17,0,2.8.65,2.81,2.88,0,2.06,0,4.12,0,6.17,0,1.7.76,2.6,2.08,2.61s2.09-.88,2.11-2.56c0-2.25,0-4.5,0-6.74,0-1.85.71-2.52,2.54-2.6a20.55,20.55,0,0,0,11.28-37.23c-2-1.46-2.11-2.24-.63-4.25a18,18,0,0,0,3.5-9.62c.11-1.64.93-2.56,2.22-2.49s2.07,1.07,2,2.69a22.39,22.39,0,0,1-3.6,10.93l1.08,1c7.44,7.11,10.09,15.73,7.1,25.55S106.45,304,96.32,305.76c-1,.17-1.24.52-1.21,1.43,0,1.5.06,3,0,4.5a6.3,6.3,0,0,1-12.59,0c-.07-1.72,0-3.45,0-5.29H78.78c0,2.11.1,4.16,0,6.2a6.15,6.15,0,0,1-4.56,5.45,6,6,0,0,1-6.68-2.38,10.74,10.74,0,0,1-1.25-4.2,42.36,42.36,0,0,1-.05-5.19c-2.1,0-4.06.06-6,0a7.72,7.72,0,0,1-7.35-10.13,7.6,7.6,0,0,1,7-5.27c1.12,0,2.23,0,3.46,0v-48c-1.08,0-2.18,0-3.27,0a7.7,7.7,0,0,1-7.58-7.06,7.5,7.5,0,0,1,6-8.15,38.14,38.14,0,0,1,5.87-.21c.55,0,1.1,0,1.91,0,0-2.11-.15-4.07,0-6a6.29,6.29,0,0,1,12.53,1C78.85,224,78.84,225.64,78.84,227.33Z"/><path class="cls-1" d="M79,290.65c1.24,0,2.36,0,3.47,0a2.1,2.1,0,0,1,2.23,2.18,2.05,2.05,0,0,1-2.24,2c-1.82,0-3.65.05-5.47,0a2,2,0,0,1-2.28-2.24q0-11.3,0-22.59a2,2,0,0,1,2.17-2.2c5.61,0,11.23-.14,16.83,0a13.31,13.31,0,0,1,12.52,12.2c.44,7.11-4.1,13.23-10.77,14.47a16.17,16.17,0,0,1-2.78.28,2.09,2.09,0,0,1-2.3-2.1c0-1.18.87-1.92,2.18-2.12a16.77,16.77,0,0,0,4.07-.87A9.22,9.22,0,0,0,102,279.6a9.12,9.12,0,0,0-8.59-7.54c-4.75-.13-9.51,0-14.36,0Z"/><path class="cls-1" d="M74.7,249.66c0-2.81,0-5.61,0-8.42,0-1.93.69-2.6,2.63-2.61,4.07,0,8.14,0,12.21,0a11,11,0,0,1,.67,22c-4.38.23-8.79.13-13.19.11-1.58,0-2.3-.8-2.31-2.38C74.68,255.46,74.7,252.56,74.7,249.66ZM79,256.49c3.76,0,7.36.13,10.94,0a6.68,6.68,0,0,0,6.48-7.17,6.8,6.8,0,0,0-7-6.43c-3.13,0-6.26,0-9.39,0A9.52,9.52,0,0,0,79,243Z"/><path class="cls-1" d="M344.67,262.27c.37-2.73.63-5.47,1.14-8.17,3.8-20.19,14.31-36,31.33-47.44,1.29-.87,2.48-.71,3.2.35s.37,2.32-1.07,3.28a67.52,67.52,0,0,0-13.91,100.63c11.16,12.75,25.12,20.56,41.91,22.82,19.09,2.57,36.32-2.29,51.53-14.16.41-.32.79-.66,1.21-1a2.13,2.13,0,0,1,3.12.16,2,2,0,0,1-.46,3.06A116.21,116.21,0,0,1,452.45,329a71.79,71.79,0,0,1-105.6-44.75c-1-3.79-1.3-7.73-1.93-11.6-.07-.45-.17-.91-.25-1.36Z"/><path class="cls-1" d="M421,194.88c2.68.37,5.37.67,8,1.11,28.12,4.61,51.93,27.32,57.64,55.23,4.8,23.49-.63,44.47-16.07,62.84-1.12,1.33-2.22,1.62-3.25.9s-1.12-2.06-.15-3.42c2.79-3.86,5.85-7.56,8.22-11.67,14.09-24.32,10.86-56.06-7.66-77.21a67.64,67.64,0,0,0-78.48-17.86c-.35.15-.68.32-1,.45a2.11,2.11,0,0,1-3-1,2,2,0,0,1,1.22-2.85c2.94-1.2,5.87-2.43,8.89-3.39A64.49,64.49,0,0,1,411,195.11a6.94,6.94,0,0,0,1.08-.23Z"/><path class="cls-1" d="M416.6,328.8a62,62,0,1,1,62-62.08A62.06,62.06,0,0,1,416.6,328.8Zm-.08-4.21a57.84,57.84,0,1,0-57.81-57.84A57.85,57.85,0,0,0,416.52,324.59Z"/><path class="cls-1" d="M369,249.67v10.1h.19c.74-.45,5.43-7.87,9.61-7.87h2v25.75a33.38,33.38,0,0,1-1.28,7.66v.21h10.31v-.21a32.07,32.07,0,0,1-1.3-7.66V251.9h1.88c4.29,0,8.91,7.42,9.61,7.87h.26v-10.1Z"/><path class="cls-1" d="M423.17,267.12c3.79-1.22,7.29-3.71,7.29-8.21,0-5.2-4.69-9.24-11.4-9.24H402.72v.18a30.67,30.67,0,0,1,1.32,7.66v20.14a30.22,30.22,0,0,1-1.32,7.66v.21h16.86c6.68,0,12.49-3.09,12.49-9.36C432.09,270.77,427.68,268.22,423.17,267.12ZM411.8,251.81h4.62c4,0,5.94,3.78,5.94,7.1,0,3.59-2,7.38-6.06,7.38h-4.46Zm5.2,31.54h-5.2V268.42H417c4.71,0,7.1,3.32,7.1,7.67,0,4.57-2.25,7.26-7.12,7.26Z"/><path class="cls-1" d="M433.11,249.67v10.1h.18c.75-.45,5.43-7.87,9.62-7.87h2v25.75a33.58,33.58,0,0,1-1.3,7.66v.21h10.31v-.21a32.45,32.45,0,0,1-1.3-7.66V251.9h1.88c4.3,0,8.92,7.42,9.61,7.87h.26v-10.1Z"/></svg>